<?xml version="1.0" encoding="utf-8"?>
<!-- Generator: Adobe Illustrator 25.4.1, SVG Export Plug-In . SVG Version: 6.00 Build 0)  -->
<svg version="1.1" id="Layer_1" xmlns="http://www.w3.org/2000/svg" xmlns:xlink="http://www.w3.org/1999/xlink" x="0px" y="0px"
	 viewBox="0 0 335 144" style="enable-background:new 0 0 335 144;" xml:space="preserve">
<g>
	<g>
		<path d="M40.38,0.14c4.29-0.54,10.5,0.38,11.84,4.67c0.35,2.6,1.29,9.74-2.62,10c-4.48-1.23-10.21-3.01-11.37-7.62
			C38.1,5.03,37.84,1.15,40.38,0.14z"/>
		<path d="M53.32,12.36c0.29-4.07,4.96-5.82,8.87-4.17c5.4,5.79,3.23,15.07,5.27,22.15c1.79,7.53,1.89,15.46,1.98,23.14
			c0.11,2.07-2.28,2.81-3.98,3.66c-7.76,1.13-7.26-7.61-7.37-12.3c-0.76-1.97-3.87-2.13-5.19-3.78c-2.72-6.11,3.93-4.13,4.38-7.36
			c0.44-5.98-6.05-7.58-10.72-10.1c-3.09-1.32-7.32-3.3-5.26-6.91C45.52,10.5,57.86,26.23,53.32,12.36z"/>
		<path d="M88.36,15.41c1.13-7.2,8.21-7.07,8.56,0.28C95.59,21.55,88.46,21.93,88.36,15.41z"/>
		<path d="M97.71,16.41c2.45-2.93,8.36-1.93,9.86,1.46c1.2,2.67-1.6,5.11-2.05,7.71c-3.19,5.99-18.98,45.55-27.96,29.89
			c-0.81-4.95,4.95-8.72,6.89-13.09c1.32-5.9-2.05-12.37-0.97-18.59C91.21,13.2,90.84,35.44,97.71,16.41z"/>
		<path d="M17.77,26.77c-0.91-5,6.66-6.4,9.49-2.74C36.18,34.67,47.1,45,53.11,57.11c0.67,4.77-7.02,6.07-9.52,2.44
			c-5.1-6.27-9.35-13.58-15.35-19.06c-3.6-0.86-8.06,0.88-11.29-1.06c-1.75-2.07-1.38-6.2,2.23-6.17
			C22.95,31.75,17.57,29.09,17.77,26.77z"/>
		<path d="M7.09,23.78c5.09-1.45,9.32,1.08,10.53,5.63c0.24,0.6,0.07,1.28-0.46,1.69C11.42,36.91,2.03,26.07,7.09,23.78z"/>
		<path d="M41.24,33.5c-2.63-4.5,8.35-7.88,10.78-2.68c0.5,0.57,0.51,1.36,0.03,1.94C49.62,36.56,44.39,36.61,41.24,33.5z"/>
		<path d="M0.34,44.29c3.11-3.23,7.5-4.47,10.84-0.75c0.54,0.41,0.78,1.08,0.54,1.69C10.37,50.75-2.2,48.8,0.34,44.29z"/>
		<path d="M15.72,49.07c6.39-8.55,13.16,8.08,18.05,11.32c20.71,16.25,16.27,43.36,16.31,65.66c-0.07,0.97,0.84,1.77,1.93,1.68
			c7.72-1.51,15.5-1.27,23.18,0.31c1.08,0.12,2-0.69,1.94-1.66c-0.73-17.76-2.09-37.18,9.39-52.64c4.81-3.37,8.41-17.22,14.76-15.22
			c1.03,0.36,2.15-0.27,2.32-1.24c1.11-8.33,15.62-5.62,7.52,2.17c-1.73,2.07,2.16,2.83,2.52,4.57
			c2.11,11.58-22.42,0.35-25.82,35.77c-1.6,9.91-3.16,22.06,1.42,31.16c4.24,1.51,8.82,2.72,12.12,5.66
			c2.73,2.72-0.15,7.84-4.25,7.37c-13.12-3.56-26.52-8.89-40.87-7c-7.89,1.28-15.7,2.65-23.04,5.66c-4.84,0.86-8.36-4.45-5.5-8.06
			c3.23-3.36,10.44-2.45,12.96-5.8c0.6-13.03,1.4-26.44-1.27-39.29C39.03,74.5,26.13,62.92,11.28,57.47
			c-2.14-1.13-4.18-3.97-2.16-5.95C10.5,49.11,13.81,50.42,15.72,49.07z"/>
		<path d="M59.96,81c-5.47-4.32,17.1-16.88,21.93-17.61c2.4-1.11,9.73-0.72,5.43,2.49c-9.5,2.31-19.04,6.69-24.31,14.43
			C62.41,81.28,60.99,81.21,59.96,81z"/>
	</g>
	<g>
		<path d="M158.04,25.51c0,0.24-0.12,0.41-0.48,0.41h-7.48v4.77h5.72c0.3,0,0.48,0.14,0.48,0.41v2.36c0,0.26-0.18,0.41-0.48,0.41
			h-5.72v4.82h7.48c0.36,0,0.48,0.12,0.48,0.38v2.38c0,0.24-0.12,0.38-0.48,0.38h-11.02c-0.27,0-0.45-0.14-0.45-0.38V23.13
			c0-0.24,0.18-0.38,0.45-0.38h11.02c0.36,0,0.48,0.14,0.48,0.38V25.51z"/>
		<path d="M165.1,38.68h7.12c0.33,0,0.48,0.14,0.48,0.38v2.38c0,0.26-0.15,0.38-0.48,0.38h-10.72c-0.3,0-0.48-0.12-0.48-0.38V23.13
			c0-0.24,0.18-0.38,0.48-0.38h3.11c0.33,0,0.48,0.14,0.48,0.38V38.68z"/>
	</g>
	<g>
		<path d="M226.5,97.77c0.95,0,1.4,0.49,1.02,1.25l-11.65,24.1V140c0,0.7-0.45,1.08-1.27,1.08h-6.11c-0.83,0-1.27-0.38-1.27-1.08
			v-16.89l-11.65-24.1c-0.38-0.76,0.06-1.25,1.02-1.25h6.37c0.76,0,1.21,0.27,1.46,0.87l7.13,15.54l7.13-15.54
			c0.25-0.6,0.7-0.87,1.46-0.87H226.5z"/>
		<path d="M259.47,97.77c0.7,0,1.27,0.49,1.27,1.08v34.44c0,5.09-3.18,7.8-9.17,7.8h-7.13c-5.98,0-9.17-2.71-9.17-7.8V98.85
			c0-0.6,0.57-1.08,1.27-1.08h6.11c0.7,0,1.27,0.49,1.27,1.08v32.92c0,1.46,0.89,2.17,2.55,2.17h3.31c1.66,0,2.55-0.7,2.55-2.17
			V98.85c0-0.6,0.57-1.08,1.27-1.08H259.47z"/>
		<path d="M270.29,98.64c0-0.54,0.32-0.87,1.02-0.87h15.28c5.98,0,9.17,2.76,9.17,7.85v27.67c0,5.09-3.18,7.8-9.17,7.8h-15.28
			c-0.7,0-1.02-0.27-1.02-0.87V98.64z M284.81,133.94c1.65,0,2.55-0.7,2.55-2.17v-24.64c0-1.46-0.89-2.22-2.55-2.22h-5.86v29.02
			H284.81z"/>
		<path d="M327.33,141.09c-0.57,0-0.89-0.27-1.02-0.76l-1.78-7.91H313.2l-1.72,7.91c-0.13,0.49-0.45,0.76-1.02,0.76h-6.81
			c-0.7,0-1.02-0.32-0.83-0.92l10.57-41.64c0.13-0.54,0.51-0.76,1.08-0.76h8.85c0.57,0,0.96,0.22,1.08,0.76l10.57,41.64
			c0.13,0.6-0.13,0.92-0.89,0.92H327.33z M318.86,107.24l-4.07,18.9h8.15L318.86,107.24z"/>
	</g>
	<g>
		<path d="M216.06,64.65c0,3.63-1.59,6.01-4.65,7.15l4.39,14.19c0.19,0.65-0.19,0.97-0.89,0.97h-6.62c-0.64,0-0.95-0.27-1.08-0.76
			l-4.26-13.75h-4.39v13.65c0,0.54-0.38,0.87-1.02,0.87h-6.62c-0.64,0-1.02-0.32-1.02-0.87V44.5c0-0.54,0.38-0.87,1.02-0.87h15.98
			c5.98,0,9.17,2.71,9.17,7.8V64.65z M204.85,65.29c1.66,0,2.55-0.76,2.55-2.17V52.95c0-1.41-0.89-2.17-2.55-2.17h-6.3v14.51H204.85
			z"/>
		<path d="M248.77,43.64c0.7,0,1.02,0.32,1.02,0.87v5.41c0,0.54-0.32,0.87-1.02,0.87h-7.38v35.3c0,0.6-0.32,0.87-1.02,0.87h-6.62
			c-0.64,0-1.02-0.27-1.02-0.87v-35.3h-7.38c-0.64,0-1.02-0.32-1.02-0.87V44.5c0-0.54,0.38-0.87,1.02-0.87H248.77z"/>
		<path d="M282.83,49.92c0,0.54-0.25,0.92-1.02,0.92H265.9v10.83h12.16c0.64,0,1.02,0.32,1.02,0.92v5.36c0,0.6-0.38,0.92-1.02,0.92
			H265.9v10.94h15.91c0.76,0,1.02,0.27,1.02,0.87v5.41c0,0.54-0.25,0.87-1.02,0.87h-23.43c-0.57,0-0.95-0.32-0.95-0.87V44.5
			c0-0.54,0.38-0.87,0.95-0.87h23.43c0.76,0,1.02,0.32,1.02,0.87V49.92z"/>
	</g>
	<g>
		<path d="M177.28,141.24c-1.34,0-2.09-0.6-2.39-1.67l-4.17-17.4h-26.53l-4.02,17.4c-0.3,1.07-1.04,1.67-2.39,1.67h-15.95
			c-1.64,0-2.39-0.72-1.94-2.03l24.75-91.64c0.3-1.19,1.19-1.67,2.53-1.67h20.72c1.34,0,2.24,0.48,2.53,1.67l24.75,91.64
			c0.3,1.31-0.3,2.03-2.09,2.03H177.28z M157.46,66.76l-9.54,41.59H167L157.46,66.76z"/>
	</g>
</g>
</svg>
