<?xml version="1.0" encoding="utf-8"?>
<!-- Generator: Adobe Illustrator 25.4.1, SVG Export Plug-In . SVG Version: 6.00 Build 0)  -->
<svg version="1.1" id="Layer_1" xmlns="http://www.w3.org/2000/svg" xmlns:xlink="http://www.w3.org/1999/xlink" x="0px" y="0px"
	 viewBox="0 0 191 144" style="enable-background:new 0 0 191 144;" xml:space="preserve">
<style type="text/css">
	.st0{fill:#0CABEC;}
	.st1{fill:#2EA9E1;}
	.st2{fill:#FD0000;}
	.st3{fill-rule:evenodd;clip-rule:evenodd;fill:#0CABEC;}
	.st4{fill-rule:evenodd;clip-rule:evenodd;fill:#FD0000;}
	.st5{fill:#FABF0C;}
</style>
<g>
	<g>
		<path class="st0" d="M58.21,36.21H58H58.21z"/>
		<path class="st1" d="M66.37,64.18c-0.2,0.05-0.39,0.09-0.59,0.14C65.98,64.27,66.17,64.24,66.37,64.18"/>
		<path class="st2" d="M109.76,36.17H85.95c-2.51,0-4.57-1.98-4.57-4.53c0-2.54,2.06-4.52,4.57-4.52H110c2.51,0,4.57,1.98,4.57,4.52
			c0,2.55-2.05,4.53-4.57,4.53"/>
		<path class="st2" d="M137.93,0c4.81,0,9.31,0.98,13.52,2.95c3.78,1.77,7.07,4.08,9.85,6.93c-0.37-0.07-0.76-0.12-1.17-0.12
			c-3.23,0-5.86,2.62-5.86,5.83c0,0.41,0.05,0.82,0.13,1.2c-2.04-2.09-4.37-3.74-6.99-4.96c-2.89-1.33-6.05-2.01-9.48-2.01
			c-3.21,0-6.19,0.6-8.97,1.8c-2.78,1.2-5.19,2.84-7.25,4.92c-2.06,2.08-3.68,4.5-4.85,7.27c-1.18,2.76-1.76,5.71-1.76,8.85
			s0.58,6.07,1.76,8.81c1.17,2.73,2.78,5.14,4.85,7.18c2.06,2.05,4.47,3.68,7.25,4.88c2.78,1.2,5.76,1.79,8.97,1.79
			c3.43,0,6.57-0.61,9.4-1.84c2.63-1.13,4.97-2.77,7.03-4.91c-0.05,0.31-0.07,0.62-0.07,0.94c0,3.22,2.62,5.84,5.86,5.84
			c0.52,0,1.02-0.07,1.5-0.19c-2.94,3.04-6.36,5.44-10.27,7.22c-4.09,1.85-8.57,2.78-13.43,2.78c-4.52,0-8.77-0.85-12.75-2.52
			c-3.98-1.69-7.44-3.99-10.39-6.93c-2.94-2.94-5.28-6.37-7-10.3c-1.71-3.94-2.57-8.18-2.57-12.74c0-4.5,0.85-8.73,2.57-12.7
			c1.72-3.96,4.06-7.42,7-10.39c2.95-2.97,6.41-5.3,10.39-7.01C129.15,0.85,133.4,0,137.93,0"/>
		<path class="st3" d="M60.85,28.49c1.71,0,3.08,1.37,3.08,3.07c0,1.7-1.37,3.06-3.08,3.06c-1.7,0-3.08-1.37-3.08-3.06
			C57.77,29.86,59.15,28.49,60.85,28.49 M60.85,25.72c3.23,0,5.86,2.61,5.86,5.84c0,3.22-2.63,5.84-5.86,5.84
			c-3.24,0-5.86-2.62-5.86-5.84C54.99,28.33,57.61,25.72,60.85,25.72"/>
		<path class="st4" d="M160.05,12.48c1.7,0,3.08,1.37,3.08,3.07c0,1.69-1.37,3.07-3.08,3.07s-3.08-1.38-3.08-3.07
			C156.97,13.85,158.35,12.48,160.05,12.48 M160.05,9.71c3.23,0,5.85,2.62,5.85,5.84c0,3.22-2.62,5.83-5.85,5.83
			c-3.24,0-5.86-2.62-5.86-5.83C154.2,12.33,156.82,9.71,160.05,9.71"/>
		<path class="st0" d="M88.26,19.97c-1.72-3.96-4.05-7.42-6.99-10.38c-2.95-2.97-6.41-5.3-10.39-7.01
			c-3.98-1.72-8.23-2.57-12.75-2.57c-0.07,0-0.15,0-0.21,0c-4.72,0.03-9.16,1.01-13.31,2.95c-3.03,1.42-5.73,3.21-8.13,5.33
			c-0.59,0.52-1.17,1.05-1.72,1.61c0.38-0.08,0.77-0.12,1.17-0.12c3.23,0,5.86,2.62,5.86,5.84c0,0.41-0.29,0.86-0.13,1.19
			c0.17-0.8,2.33-2.11,2.98-2.58c1.06-0.79,2.19-1.48,3.38-2.06c5.89-2.92,13.02-3.09,19.07-0.52c5.45,2.31,9.82,6.75,12.12,12.18
			c1.17,2.77,1.76,5.72,1.76,8.85c0,9.89-6.89,19.06-16.48,21.8c-2.06,0.59-4.21,0.86-6.35,0.86c-8.32,0-15.99-4.34-20.26-11.52
			c-1.37-2.3-2.29-4.82-2.75-7.56l22.71-0.03c-1.39-1.09-2.06-2.8-2.06-4.71s0.9-3.63,2.28-4.72L29.9,26.82
			c-1.43,0-2.59,0.39-3.48,1.18c-0.89,0.78-1.33,2.02-1.33,3.71c0,4.72,0.86,9.1,2.57,13.15c4.37,10.31,13.75,17.97,24.87,19.88
			c10.34,1.76,21.31-1.63,28.74-9.02c2.94-2.94,5.27-6.37,6.99-10.3c0.36-0.82,0.66-1.65,0.95-2.5c1.07-3.22,1.63-6.63,1.63-10.25
			C90.84,28.16,89.98,23.94,88.26,19.97"/>
		<path class="st3" d="M35.94,12.48c1.7,0,3.08,1.37,3.08,3.07c0,1.69-1.38,3.07-3.08,3.07c-1.7,0-3.08-1.38-3.08-3.07
			C32.86,13.85,34.24,12.48,35.94,12.48 M41.8,15.55c0,3.22-2.62,5.83-5.86,5.83c-3.24,0-5.86-2.62-5.86-5.83
			c0-3.22,2.62-5.84,5.86-5.84C39.18,9.71,41.8,12.33,41.8,15.55"/>
		<path class="st4" d="M160.04,46.56c1.7,0,3.08,1.37,3.08,3.07c0,1.7-1.38,3.07-3.08,3.07c-1.71,0-3.08-1.37-3.08-3.07
			C156.96,47.94,158.34,46.56,160.04,46.56 M160.04,43.8c3.23,0,5.86,2.61,5.86,5.83c0,3.22-2.63,5.83-5.86,5.83
			c-3.24,0-5.86-2.61-5.86-5.83C154.19,46.41,156.81,43.8,160.04,43.8"/>
		<path class="st2" d="M142.47,32.58c0,3.79-3.08,6.86-6.89,6.86c-3.81,0-6.89-3.07-6.89-6.86c0-3.79,3.09-6.86,6.89-6.86
			C139.38,25.71,142.47,28.78,142.47,32.58"/>
		<path class="st5" d="M96.12,91.66c-14.96,0-28.35-6.43-34.37-16.61c-1.02-1.72-0.44-3.94,1.29-4.96c1.73-1.01,3.95-0.44,4.98,1.28
			c4.88,8.26,16.39,13.37,29.32,13.02c11.76-0.31,21.54-5.24,25.5-12.85c0.93-1.77,3.12-2.47,4.9-1.55c1.78,0.92,2.48,3.1,1.55,4.88
			c-5.26,10.1-17.13,16.37-31.76,16.76C97.06,91.65,96.59,91.66,96.12,91.66"/>
		<path class="st0" d="M53.61,103.61c1.73,0,3.18-1.39,3.18-3.16c0-1.72-1.46-3.12-3.18-3.12c-1.72,0-3.12,1.4-3.12,3.12
			C50.49,102.22,51.89,103.61,53.61,103.61"/>
		<path class="st4" d="M179.47,113.26c3.12,0,5.65,2.82,5.65,6.29c0,3.48-2.53,6.29-5.65,6.29c-3.13,0-5.66-2.82-5.66-6.29
			C173.81,116.08,176.34,113.26,179.47,113.26 M170.07,97.58L170.07,97.58c1.74,0,3.11,1.41,3.11,3.14v7.91
			c1.91-0.95,3.72-1.49,5.78-1.49c6.63,0,12.04,5.56,12.04,12.42c0,6.85-5.36,12.41-11.98,12.41c-6.46,0-11.75-5.28-12.01-11.9
			c-0.02-0.14-0.05-0.28-0.05-0.42v-18.93C166.96,98.99,168.33,97.58,170.07,97.58"/>
		<path class="st5" d="M101.15,123.39v0.35c0,1.95-0.73,3.9-2.18,5.39c-1.89,1.95-4.62,3.03-7.8,3.03c-3.55,0-6.78-1.69-8.4-4.36
			c-0.27-0.46-0.43-1.03-0.43-1.53c0-1.03,0.54-2,1.57-2.57c0.49-0.26,1.03-0.41,1.57-0.41c1.08,0,2.16,0.57,2.75,1.54
			c1.03,1.68,3.52,1.74,5.11,0.9c1.79-0.94,1.26-2.86-0.35-3.57c-1.6-0.71-3.4-0.75-5-1.45c-1.56-0.68-3.05-1.86-3.88-3.36
			c-0.55-0.99-0.8-2.12-0.8-3.25c0-4.01,3.88-6.98,9.05-6.98c1.72,0,3.61,0.52,5.07,1.39c0.97,0.57,1.51,1.53,1.51,2.57
			c0,0.57-0.16,1.07-0.49,1.59c-0.74,1.18-2.3,1.63-3.59,1.23c-0.75-0.24-1.42-0.64-2.16-0.9c-0.74-0.26-1.59-0.36-2.27,0.01
			c-0.68,0.38-1.05,1.37-0.57,1.98c0.52,0.66,1.72,0.7,2.5,0.89c1.19,0.31,2.37,0.71,3.49,1.2c4.15,1.9,5.31,4.36,5.31,6.1
			 M79.62,110.27v12.11c0,0.42-0.16,2.51-1.29,4.69c-1.72,3.2-4.9,4.96-8.89,4.96c-4.04,0-7.08-1.76-8.75-4.96
			c-1.19-2.19-1.16-4.27-1.16-4.69v-12.11c0-1.77,1.36-3.15,3.08-3.15c1.72,0,3.14,1.39,3.14,3.15v12.11c0,0.11-0.01,1.06,0.47,1.97
			c0.43,0.69,1.1,1.44,3.2,1.44c2.05,0,2.67-0.74,3.05-1.44c0.54-0.91,0.45-1.86,0.45-1.97v-12.11c0-1.77,1.63-3.15,3.35-3.15
			C78,107.12,79.62,108.5,79.62,110.27"/>
		<path class="st2" d="M164.08,110.52v11.94c0,0.42-0.17,2.49-1.28,4.67c-1.7,3.18-4.85,4.93-8.79,4.93c-3.99,0-7.11-1.75-8.76-4.93
			c-1.17-2.18-1.26-4.25-1.26-4.67v-12.05c0-1.74,1.38-3.13,3.08-3.13c1.71,0,3.14,1.39,3.14,3.13v12.05c0,0.1,0.06,1.06,0.54,1.96
			c0.42,0.69,1.12,1.44,3.2,1.44c2.02,0,2.87-0.74,3.24-1.44c0.53-0.9,0.67-1.86,0.67-1.96v-12.05c0-1.74,1.41-3.13,3.11-3.13
			c1.7,0,3.11,1.39,3.11,3.13"/>
		<path class="st2" d="M113.25,119.67c0-6.84,5.23-12.41,11.67-12.41c1.65,0,3.25,0.37,4.79,1.11c1.11,0.48,1.75,1.59,1.75,2.76
			c0,0.48-0.1,0.9-0.31,1.33c-0.53,1.11-1.6,1.8-2.77,1.8c-0.42,0-0.91-0.11-1.33-0.32c-0.69-0.32-1.39-0.47-2.13-0.47
			c-2.98,0-5.43,2.76-5.43,6.2c0,3.4,2.45,6.15,5.43,6.15c0.74,0,1.44-0.16,2.13-0.47c0.42-0.21,0.85-0.26,1.28-0.26
			c1.17,0,2.29,0.63,2.82,1.75c0.21,0.42,0.31,0.85,0.31,1.32c0,1.17-0.64,2.28-1.75,2.81c-1.54,0.69-3.14,1.06-4.79,1.06
			C118.48,132.03,113.25,126.46,113.25,119.67"/>
		<path class="st2" d="M140.64,100.37v28.79c0,1.58-1.37,2.86-3.13,2.86c-1.7,0-3.09-1.28-3.09-2.86v-28.79
			c0-1.58,1.38-2.86,3.09-2.86C139.27,97.51,140.64,98.79,140.64,100.37"/>
		<path class="st0" d="M37.05,107.1c-3.99,0-7.1,1.77-8.82,4.98c-1.13,2.21-1.24,4.3-1.24,4.73V129c0,1.77,1.62,3.16,3.35,3.16
			c1.72,0,3.35-1.39,3.35-3.16v-12.19c0-0.1-0.17-1.07,0.37-1.98c0.38-0.7,0.92-1.45,2.97-1.45c2.1,0,2.65,0.75,3.08,1.45
			c0.48,0.91,0.28,1.88,0.28,1.98V129c0,1.77,1.65,3.16,3.37,3.16c1.72,0,3.32-1.39,3.32-3.16v-12.19c0-0.43-0.04-2.52-1.22-4.73
			C44.2,108.87,41.1,107.1,37.05,107.1"/>
		<path class="st0" d="M53.52,106.96c-1.92,0-3.08,1.45-3.08,3.17v18.79c0,1.72,1.16,3.11,3.08,3.11c1.92,0,3.14-1.39,3.14-3.11
			v-18.79C56.66,108.4,55.44,106.96,53.52,106.96"/>
		<path class="st0" d="M23.63,120.5v-3.57c0-3.58-2.36-6.97-5.51-8.61c-3.98-2.06-9.21-1.33-12.88,1.07
			c-6,3.91-6.88,12.81-2.49,18.23c2.93,3.61,7.98,5.36,12.45,3.81c0.47-0.16,0.94-0.36,1.39-0.57c0.15-0.07,0.46-0.14,0.46-0.22
			c0,2.55-0.6,5.52-2.94,7.02c-2.38,1.52-5.55,0.39-7.01-1.85c-0.59-0.9-1.55-1.49-2.56-1.49c-0.58,0-1.17,0.12-1.71,0.5
			c-0.9,0.59-1.44,1.57-1.44,2.59c0,0.58,0.16,0.88,0.48,1.41C3.9,141.95,7.2,144,10.72,144h0.75c3.36,0,6.86-1.32,9.05-3.98
			c1.86-2.28,3.12-4.92,3.12-7.95v-2.95v-1.77v-3.78V120.5z M11.52,125.87c-3.04,0-5.44-2.77-5.44-6.21c0-3.4,2.4-6.16,5.44-6.16
			c2.98,0,5.44,2.76,5.44,6.16C16.95,123.1,14.5,125.87,11.52,125.87"/>
		<path class="st0" d="M30.2,141.5v0.08c0,0.48-0.2,0.93-0.55,1.26c-0.39,0.37-0.92,0.56-1.51,0.56h-0.07
			c-0.75-0.02-1.41-0.42-1.72-1.04c-0.03-0.07-0.05-0.14-0.05-0.21c0-0.18,0.11-0.35,0.3-0.43c0.08-0.03,0.15-0.05,0.22-0.05
			c0.19,0,0.39,0.1,0.47,0.28c0.14,0.29,0.44,0.47,0.8,0.48h0.04c0.31,0,0.57-0.09,0.75-0.26c0.18-0.17,0.27-0.37,0.27-0.6v-0.03
			c-0.02-0.38-0.8-0.71-1.13-0.8l-0.03-0.02c-0.91-0.31-1.37-0.84-1.37-1.58v-0.07c0.02-0.42,0.22-0.8,0.6-1.06
			c0.32-0.23,0.75-0.37,1.21-0.37h0.08c0.37,0.01,0.75,0.15,1.06,0.36c0.13,0.1,0.21,0.24,0.21,0.38c0,0.1-0.04,0.21-0.1,0.28
			c-0.11,0.12-0.26,0.19-0.42,0.19c-0.11,0-0.22-0.02-0.31-0.09c-0.13-0.1-0.31-0.16-0.47-0.16h-0.05c-0.43,0-0.77,0.2-0.77,0.5
			v0.04c0,0.4,0.33,0.55,0.68,0.68C28.61,139.9,30.15,140.36,30.2,141.5"/>
		<path class="st0" d="M36.54,138.13v4.81c0,0.26-0.23,0.48-0.52,0.48c-0.28,0-0.51-0.21-0.51-0.48v-1.92h-2.32v1.92
			c0,0.26-0.24,0.48-0.52,0.48c-0.28,0-0.51-0.21-0.51-0.48v-4.81c0-0.26,0.23-0.48,0.51-0.48c0.28,0,0.52,0.21,0.52,0.48v1.92h2.32
			v-1.92c0-0.26,0.23-0.48,0.51-0.48C36.31,137.65,36.54,137.87,36.54,138.13"/>
		<path class="st0" d="M43.6,142.75c0.03,0.06,0.04,0.12,0.04,0.18c0,0.25-0.2,0.48-0.52,0.48c-0.2,0-0.4-0.12-0.48-0.31l-0.39-0.9
			h-2.4l-0.39,0.9c-0.08,0.19-0.28,0.31-0.48,0.31c-0.3,0-0.51-0.24-0.51-0.48c0-0.07,0.01-0.12,0.04-0.18l2.06-4.8
			c0.08-0.18,0.28-0.3,0.49-0.3c0.21,0,0.4,0.12,0.48,0.3L43.6,142.75z M41.84,141.25l-0.78-1.84l-0.78,1.84H41.84z"/>
		<path class="st0" d="M45.59,142.94v-4.81c0-0.26,0.23-0.48,0.51-0.48h1.41c0.06,0,0.52,0.01,1.01,0.23
			c0.69,0.32,1.07,0.91,1.07,1.69c0,0.05-0.01,0.49-0.25,0.94c-0.34,0.64-1,0.99-1.83,0.99h-0.88v1.44c0,0.26-0.23,0.48-0.52,0.48
			C45.81,143.41,45.59,143.2,45.59,142.94 M46.62,140.53h0.88c0.44,0,0.73-0.14,0.89-0.44c0.14-0.24,0.15-0.51,0.15-0.52
			c0-0.41-0.16-0.68-0.49-0.83c-0.26-0.12-0.55-0.12-0.55-0.12h-0.88V140.53z"/>
		<path class="st0" d="M51.53,142.94v-4.81c0-0.26,0.23-0.48,0.51-0.48c0.29,0,0.52,0.21,0.52,0.48v4.81c0,0.26-0.23,0.48-0.52,0.48
			C51.76,143.41,51.53,143.2,51.53,142.94"/>
		<path class="st0" d="M58.21,143.21l-2.67-3.56v3.28c0,0.26-0.24,0.48-0.52,0.48c-0.29,0-0.51-0.21-0.51-0.48v-4.81
			c0-0.25,0.22-0.48,0.52-0.48c0.16,0,0.32,0.07,0.42,0.21l2.66,3.56v-3.28c0-0.26,0.23-0.48,0.52-0.48c0.29,0,0.52,0.21,0.52,0.48
			v4.81c0,0.26-0.23,0.48-0.52,0.48C58.46,143.41,58.3,143.34,58.21,143.21"/>
		<path class="st0" d="M61.99,142.57c-0.58-0.54-0.9-1.27-0.9-2.04c0-0.76,0.32-1.49,0.9-2.03c0.58-0.56,1.36-0.85,2.19-0.85
			c0.82,0,1.6,0.29,2.19,0.85c0.09,0.09,0.14,0.21,0.14,0.33c0,0.12-0.04,0.25-0.15,0.35c-0.1,0.1-0.23,0.14-0.36,0.14
			s-0.27-0.04-0.36-0.14c-0.39-0.36-0.92-0.56-1.46-0.56c-0.55,0-1.07,0.19-1.46,0.56c-0.39,0.37-0.61,0.85-0.61,1.36
			c0,0.51,0.22,0.99,0.61,1.36c0.39,0.38,0.93,0.57,1.46,0.57c0.47,0,0.93-0.15,1.31-0.44v-1.01H64.2c-0.28,0-0.52-0.22-0.52-0.48
			c0-0.26,0.24-0.48,0.52-0.48h1.81c0.28,0,0.51,0.22,0.51,0.48v1.7c0,0.14-0.05,0.26-0.15,0.35c-0.6,0.56-1.4,0.84-2.18,0.84
			C63.39,143.41,62.6,143.13,61.99,142.57"/>
		<path class="st0" d="M75.68,137.65c0.28,0,0.52,0.21,0.52,0.48c0,0.27-0.23,0.48-0.52,0.48h-1.03v4.32c0,0.26-0.24,0.48-0.52,0.48
			c-0.28,0-0.52-0.21-0.52-0.48v-4.32h-1.04c-0.28,0-0.51-0.21-0.51-0.48c0-0.26,0.23-0.48,0.51-0.48H75.68z"/>
		<path class="st0" d="M77.52,140.53c0-1.59,1.33-2.88,2.96-2.88c1.63,0,2.97,1.29,2.97,2.88c0,1.59-1.34,2.88-2.97,2.88
			C78.84,143.41,77.52,142.12,77.52,140.53 M78.55,140.53c0,1.06,0.87,1.92,1.93,1.92c1.07,0,1.93-0.86,1.93-1.92
			c0-1.06-0.87-1.91-1.93-1.91C79.42,138.62,78.55,139.47,78.55,140.53"/>
		<path class="st0" d="M90.04,142.94v-3.37l-1.39,1.73c-0.1,0.12-0.25,0.2-0.42,0.2c-0.15,0-0.31-0.07-0.41-0.2l-1.39-1.73v3.37
			c0,0.26-0.23,0.48-0.52,0.48c-0.29,0-0.51-0.21-0.51-0.48v-4.81c0-0.25,0.22-0.48,0.52-0.48c0.16,0,0.31,0.07,0.41,0.19l1.9,2.38
			l1.91-2.38c0.1-0.12,0.25-0.19,0.41-0.19c0.3,0,0.52,0.23,0.52,0.48v4.81c0,0.26-0.23,0.48-0.52,0.48
			C90.26,143.41,90.04,143.2,90.04,142.94"/>
		<path class="st0" d="M93.02,140.53c0-1.59,1.33-2.88,2.96-2.88c1.64,0,2.97,1.29,2.97,2.88c0,1.59-1.33,2.88-2.97,2.88
			C94.35,143.41,93.02,142.12,93.02,140.53 M94.06,140.53c0,1.06,0.87,1.92,1.92,1.92c1.07,0,1.94-0.86,1.94-1.92
			c0-1.06-0.87-1.91-1.94-1.91C94.92,138.62,94.06,139.47,94.06,140.53"/>
		<path class="st0" d="M104.82,142.68c0.05,0.08,0.08,0.16,0.08,0.26c0,0.16-0.09,0.31-0.24,0.4c-0.08,0.05-0.18,0.07-0.27,0.07
			c-0.18,0-0.35-0.09-0.45-0.23l-1.14-1.69h-0.87v1.44c0,0.26-0.24,0.48-0.52,0.48c-0.28,0-0.51-0.21-0.51-0.48v-4.81
			c0-0.26,0.23-0.48,0.51-0.48h1.4c0.05,0,0.52,0.01,1.01,0.23c0.69,0.32,1.07,0.91,1.07,1.69c0,0.05-0.01,0.49-0.24,0.94
			c-0.19,0.34-0.46,0.59-0.78,0.76L104.82,142.68z M101.94,140.53h0.88c0.44,0,0.73-0.14,0.89-0.44c0.14-0.24,0.15-0.51,0.15-0.52
			c0-0.41-0.16-0.68-0.49-0.83c-0.27-0.12-0.55-0.12-0.55-0.12h-0.88V140.53z"/>
		<path class="st0" d="M110.76,142.68c0.06,0.08,0.08,0.16,0.08,0.26c0,0.16-0.08,0.31-0.24,0.4c-0.08,0.05-0.18,0.07-0.27,0.07
			c-0.18,0-0.35-0.09-0.45-0.23l-1.14-1.69h-0.87v1.44c0,0.26-0.24,0.48-0.52,0.48s-0.51-0.21-0.51-0.48v-4.81
			c0-0.26,0.23-0.48,0.51-0.48h1.4c0.06,0,0.52,0.01,1.01,0.23c0.69,0.32,1.07,0.91,1.07,1.69c0,0.05-0.01,0.49-0.24,0.94
			c-0.19,0.34-0.46,0.59-0.78,0.76L110.76,142.68z M107.88,140.53h0.88c0.45,0,0.73-0.14,0.89-0.44c0.15-0.24,0.15-0.51,0.15-0.52
			c0-0.41-0.16-0.68-0.5-0.83c-0.27-0.12-0.55-0.12-0.55-0.12h-0.88V140.53z"/>
		<path class="st0" d="M112.66,140.53c0-1.59,1.32-2.88,2.96-2.88c1.64,0,2.97,1.29,2.97,2.88c0,1.59-1.34,2.88-2.97,2.88
			C113.99,143.41,112.66,142.12,112.66,140.53 M113.7,140.53c0,1.06,0.87,1.92,1.93,1.92c1.07,0,1.94-0.86,1.94-1.92
			c0-1.06-0.87-1.91-1.94-1.91C114.56,138.62,113.7,139.47,113.7,140.53"/>
		<path class="st0" d="M127.55,138.14c0,0.05-0.01,0.12-0.04,0.18l-2.16,4.8c-0.08,0.18-0.27,0.3-0.47,0.3
			c-0.21,0-0.4-0.12-0.48-0.3l-0.68-1.53l-0.69,1.53c-0.08,0.18-0.26,0.3-0.46,0.3c-0.21,0-0.4-0.12-0.48-0.3l-2.16-4.8
			c-0.02-0.06-0.03-0.12-0.03-0.18c0-0.25,0.21-0.49,0.52-0.49c0.2,0,0.38,0.12,0.46,0.3l1.68,3.74l0.59-1.34l-0.9-2.02
			c-0.02-0.06-0.04-0.12-0.04-0.19c0-0.25,0.21-0.48,0.52-0.48c0.25,0,0.39,0.12,0.47,0.3l0.52,1.15l0.51-1.15
			c0.08-0.18,0.27-0.3,0.47-0.3c0.31,0,0.52,0.24,0.52,0.49c0,0.05-0.01,0.12-0.04,0.18l-0.9,2.02l0.6,1.34l1.67-3.74
			c0.08-0.18,0.27-0.3,0.47-0.3c0.07,0,0.14,0.02,0.2,0.04C127.43,137.77,127.55,137.95,127.55,138.14"/>
		<path class="st0" d="M129.86,139.3c-0.22-0.07-0.35-0.25-0.35-0.45c0-0.05,0.01-0.11,0.02-0.16l0.26-0.71
			c0.07-0.21,0.27-0.33,0.48-0.33c0.05,0,0.11,0.01,0.17,0.02c0.21,0.07,0.35,0.26,0.35,0.45c0,0.05-0.01,0.09-0.28,0.87
			c-0.07,0.2-0.28,0.33-0.5,0.33C129.97,139.32,129.91,139.31,129.86,139.3"/>
		<path class="st0" d="M136.63,141.5v0.08c0,0.48-0.21,0.93-0.56,1.26c-0.39,0.37-0.92,0.56-1.51,0.56h-0.06
			c-0.75-0.02-1.41-0.42-1.71-1.04c-0.03-0.07-0.05-0.14-0.05-0.21c0-0.18,0.11-0.35,0.3-0.43c0.07-0.03,0.14-0.05,0.22-0.05
			c0.19,0,0.39,0.1,0.48,0.28c0.14,0.29,0.44,0.47,0.8,0.48h0.05c0.31,0,0.57-0.09,0.75-0.26c0.18-0.17,0.28-0.37,0.28-0.6v-0.03
			c-0.02-0.38-0.8-0.71-1.13-0.8l-0.03-0.02c-0.9-0.31-1.37-0.84-1.37-1.58v-0.07c0.02-0.42,0.22-0.8,0.6-1.06
			c0.32-0.23,0.75-0.37,1.22-0.37h0.08c0.37,0.01,0.75,0.15,1.06,0.36c0.13,0.1,0.21,0.24,0.21,0.38c0,0.1-0.04,0.21-0.11,0.28
			c-0.11,0.12-0.25,0.19-0.41,0.19c-0.1,0-0.21-0.02-0.31-0.09c-0.13-0.1-0.31-0.16-0.47-0.16h-0.05c-0.43,0-0.77,0.2-0.78,0.5v0.04
			c0,0.4,0.34,0.55,0.68,0.68C135.04,139.9,136.58,140.36,136.63,141.5"/>
		<path class="st0" d="M143.09,142.57c-0.59-0.54-0.9-1.27-0.9-2.04c0-0.76,0.31-1.49,0.9-2.03c0.59-0.56,1.36-0.85,2.19-0.85
			c0.82,0,1.6,0.29,2.19,0.85c0.1,0.09,0.14,0.21,0.14,0.33c0,0.12-0.04,0.25-0.15,0.35c-0.1,0.1-0.23,0.14-0.36,0.14
			c-0.14,0-0.27-0.04-0.36-0.14c-0.39-0.36-0.91-0.56-1.46-0.56c-0.56,0-1.07,0.19-1.46,0.56c-0.39,0.37-0.61,0.85-0.61,1.36
			c0,0.51,0.22,0.99,0.61,1.36c0.4,0.38,0.93,0.57,1.46,0.57c0.47,0,0.92-0.15,1.31-0.44v-1.01h-1.29c-0.29,0-0.52-0.22-0.52-0.48
			c0-0.26,0.24-0.48,0.52-0.48h1.81c0.28,0,0.51,0.22,0.51,0.48v1.7c0,0.14-0.05,0.26-0.15,0.35c-0.6,0.56-1.4,0.84-2.18,0.84
			C144.48,143.41,143.69,143.13,143.09,142.57"/>
		<path class="st0" d="M153.43,142.94c0,0.26-0.23,0.48-0.52,0.48h-2.83c-0.3,0-0.53-0.21-0.53-0.48v-4.81
			c0-0.26,0.23-0.48,0.53-0.48h2.83c0.29,0,0.52,0.21,0.52,0.48c0,0.27-0.23,0.49-0.52,0.49h-2.32v1.44h1.81
			c0.28,0,0.51,0.22,0.51,0.48c0,0.26-0.23,0.48-0.51,0.48h-1.81v1.44h2.32C153.2,142.45,153.43,142.66,153.43,142.94"/>
		<path class="st0" d="M159.08,143.21l-2.66-3.56v3.28c0,0.26-0.24,0.48-0.52,0.48c-0.29,0-0.52-0.21-0.52-0.48v-4.81
			c0-0.25,0.22-0.48,0.53-0.48c0.16,0,0.31,0.07,0.41,0.21l2.67,3.56v-3.28c0-0.26,0.23-0.48,0.52-0.48c0.29,0,0.52,0.21,0.52,0.48
			v4.81c0,0.26-0.23,0.48-0.52,0.48C159.34,143.41,159.18,143.34,159.08,143.21"/>
		<path class="st0" d="M161.98,142.94v-4.81c0-0.26,0.23-0.48,0.51-0.48c0.28,0,0.51,0.21,0.51,0.48v4.81
			c0,0.26-0.23,0.48-0.51,0.48C162.2,143.41,161.98,143.2,161.98,142.94"/>
		<path class="st0" d="M165.2,142.29c-0.25-0.5-0.26-0.99-0.26-1.04v-3.12c0-0.26,0.23-0.48,0.52-0.48c0.28,0,0.51,0.21,0.51,0.48
			v3.12c0,0.12,0.1,1.2,1.17,1.2c1.01,0,1.16-1.01,1.16-1.2v-3.12c0-0.26,0.23-0.48,0.51-0.48c0.28,0,0.51,0.21,0.51,0.48v3.12
			c0,0.06,0,0.54-0.24,1.04c-0.36,0.73-1.05,1.12-1.93,1.12C166.25,143.41,165.56,143.02,165.2,142.29"/>
		<path class="st0" d="M175.16,141.5v0.08c0,0.48-0.2,0.93-0.56,1.26c-0.39,0.37-0.92,0.56-1.5,0.56h-0.07
			c-0.75-0.02-1.4-0.42-1.71-1.04c-0.04-0.07-0.05-0.14-0.05-0.21c0-0.18,0.11-0.35,0.3-0.43c0.07-0.03,0.14-0.05,0.21-0.05
			c0.19,0,0.38,0.1,0.48,0.28c0.14,0.29,0.44,0.47,0.8,0.48h0.05c0.31,0,0.56-0.09,0.75-0.26c0.17-0.17,0.27-0.37,0.27-0.6v-0.03
			c-0.02-0.38-0.8-0.71-1.13-0.8l-0.03-0.02c-0.91-0.31-1.37-0.84-1.37-1.58v-0.07c0.01-0.42,0.22-0.8,0.6-1.06
			c0.32-0.23,0.75-0.37,1.21-0.37h0.08c0.37,0.01,0.75,0.15,1.06,0.36c0.13,0.1,0.21,0.24,0.21,0.38c0,0.1-0.04,0.21-0.11,0.28
			c-0.1,0.12-0.25,0.19-0.41,0.19c-0.11,0-0.22-0.02-0.31-0.09c-0.13-0.1-0.31-0.16-0.47-0.16h-0.06c-0.43,0-0.76,0.2-0.77,0.5v0.04
			c0,0.4,0.33,0.55,0.68,0.68C173.57,139.9,175.11,140.36,175.16,141.5"/>
		<path class="st0" d="M180.98,142.94c0,0.26-0.23,0.48-0.52,0.48h-2.82c-0.29,0-0.53-0.21-0.53-0.48v-4.81
			c0-0.26,0.24-0.48,0.53-0.48h2.82c0.29,0,0.52,0.21,0.52,0.48c0,0.27-0.23,0.49-0.52,0.49h-2.31v1.44h1.81
			c0.29,0,0.51,0.22,0.51,0.48c0,0.26-0.22,0.48-0.51,0.48h-1.81v1.44h2.31C180.75,142.45,180.98,142.66,180.98,142.94"/>
		<path class="st0" d="M186.81,141.5v0.08c0,0.48-0.21,0.93-0.56,1.26c-0.39,0.37-0.92,0.56-1.5,0.56h-0.07
			c-0.75-0.02-1.4-0.42-1.71-1.04c-0.03-0.07-0.05-0.14-0.05-0.21c0-0.18,0.11-0.35,0.3-0.43c0.08-0.03,0.15-0.05,0.22-0.05
			c0.2,0,0.39,0.1,0.48,0.28c0.14,0.29,0.44,0.47,0.8,0.48h0.05c0.31,0,0.57-0.09,0.75-0.26c0.18-0.17,0.27-0.37,0.27-0.6v-0.03
			c-0.03-0.38-0.8-0.71-1.13-0.8l-0.04-0.02c-0.91-0.31-1.37-0.84-1.37-1.58v-0.07c0.02-0.42,0.22-0.8,0.6-1.06
			c0.32-0.23,0.75-0.37,1.21-0.37h0.08c0.37,0.01,0.75,0.15,1.06,0.36c0.13,0.1,0.2,0.24,0.2,0.38c0,0.1-0.04,0.21-0.1,0.28
			c-0.11,0.12-0.26,0.19-0.42,0.19c-0.1,0-0.21-0.02-0.31-0.09c-0.13-0.1-0.31-0.16-0.47-0.16h-0.05c-0.43,0-0.77,0.2-0.78,0.5v0.04
			c0,0.4,0.34,0.55,0.68,0.68C185.22,139.9,186.76,140.36,186.81,141.5"/>
	</g>
</g>
</svg>
