<?xml version="1.0" encoding="utf-8"?>
<!-- Generator: Adobe Illustrator 25.4.1, SVG Export Plug-In . SVG Version: 6.00 Build 0)  -->
<svg version="1.1" id="Layer_1" xmlns="http://www.w3.org/2000/svg" xmlns:xlink="http://www.w3.org/1999/xlink" x="0px" y="0px"
	 viewBox="0 0 200 144" style="enable-background:new 0 0 200 144;" xml:space="preserve">
<style type="text/css">
	.st0{fill:#0872B9;}
	.st1{fill:#92298D;}
	.st2{fill:#8BC540;}
	.st3{fill:#D31C5B;}
	.st4{fill:#FFFFFF;}
	.st5{fill:#FAAF3A;}
	.st6{fill:#EE3D53;}
	.st7{fill:#29A9E1;}
	.st8{fill:#F69220;}
	.st9{fill:#2E358E;}
</style>
<g>
	<polygon class="st0" points="66.44,82.38 0,69.34 12.99,2.68 79.44,15.72 	"/>
	
		<rect x="71.94" y="0.86" transform="matrix(-0.9995 0.0302 -0.0302 -0.9995 203.2845 75.1316)" class="st1" width="58.27" height="76.48"/>
	<polygon class="st2" points="170.08,96.68 107.88,72.4 135.58,0.96 197.78,25.24 	"/>
	<g>
		<g>
			<g>
				<path class="st0" d="M44.88,144c-0.53,0-1.06-0.04-1.58-0.13l-0.97-0.16c-3.48-0.59-6.36-3.05-7.47-6.41l-10.3-30.91
					c-0.15-0.37-0.37-0.96-1-2.76c-0.42-1.2-0.87-2.48-1.36-3.86c-0.5-1.42-0.97-2.74-1.4-3.97c-0.5-1.44-0.64-1.82-0.67-1.88
					c-0.25-0.61-0.67-1.69-1.22-3.1c-0.54-1.39-1.14-2.89-1.76-4.45c-0.63-1.56-1.24-3.04-1.81-4.4c-0.58-1.37-1.02-2.43-1.27-3.06
					c-0.31-0.76-0.52-1.56-0.62-2.38l-0.16-1.25c-0.33-2.6,0.41-5.22,2.05-7.25c1.63-2.02,4-3.28,6.57-3.51
					c0.04-0.01,0.12-0.03,0.25-0.07c0.77-0.25,1.46-0.46,2.1-0.63c0.34-0.13,0.77-0.3,1.31-0.5c0.85-0.32,1.8-0.67,2.81-1.03
					c0.91-0.33,1.74-0.63,2.49-0.92c1.02-0.38,1.4-0.54,1.49-0.57c2.35-0.96,4.98-0.94,7.31,0.05l0.42,0.18
					c0.05,0.02,0.11,0.05,0.16,0.07c2.05,0.92,3.3,2.31,4.04,3.34c0.02-0.2,0.05-0.41,0.08-0.65c0.02-0.72,0.13-1.44,0.31-2.14
					c0.05-0.2,0.11-0.43,0.16-0.67c0.34-3.53,2.61-6.6,5.92-7.95l0.65-0.27c2.33-0.95,4.69-1.85,7.03-2.68
					c2.05-0.73,4.12-1.51,6.16-2.34c2.35-0.96,4.98-0.94,7.31,0.05c2.33,0.99,4.18,2.87,5.13,5.22l0.1,0.24
					c0.6,1.48,0.82,3.08,0.64,4.66c-0.14,1.25-0.26,2.26-0.36,3.07c-0.1,0.76-0.2,1.56-0.3,2.38c-0.09,0.76-0.17,1.38-0.23,1.88
					c-0.06,0.58-0.16,1.11-0.3,1.71c-0.03,0.13-0.06,0.28-0.08,0.45c-0.07,0.45-0.15,0.9-0.24,1.34c-0.02,0.16-0.03,0.3-0.04,0.42
					c-0.04,0.32-0.08,0.68-0.14,1.08c-0.01,0.11-0.02,0.19-0.03,0.27c-0.03,0.48-0.05,0.83-0.07,1.08c0,0.01,0,0.02,0,0.03
					c-0.02,0.7-0.1,1.38-0.25,2.03c-0.51,2.7-0.94,5.43-1.27,8.14c-0.22,1.8-0.38,3.64-0.49,5.5c0.09,0.06,0.18,0.12,0.28,0.17
					c0.77,0.48,1.51,0.95,2.22,1.4c0.65,0.42,1.2,0.79,1.66,1.14c0.34,0.21,0.68,0.43,1.04,0.68c0.56,0.38,1.15,0.79,1.77,1.23
					c0.55,0.39,1.08,0.76,1.61,1.12c0.5,0.34,0.93,0.65,1.3,0.92c0.19,0.13,0.37,0.25,0.54,0.37c0.01,0.01,0.02,0.01,0.03,0.02
					c0.17,0.12,0.35,0.25,0.54,0.38c0.01,0.01,0.02,0.01,0.03,0.02l0.72,0.49c0.17,0.1,0.34,0.21,0.51,0.33
					c0.1,0.07,0.29,0.2,0.57,0.38l1.14,0.76c0.52,0.35,1,0.68,1.44,1.01c0.68,0.39,1.31,0.86,1.87,1.4
					c0.04,0.03,0.08,0.06,0.13,0.09c0.14,0.09,0.27,0.19,0.4,0.28c0.12,0.08,0.25,0.15,0.39,0.24l0.82,0.5
					c0.4,0.24,0.73,0.45,1.02,0.64c0.24,0.16,0.48,0.34,0.71,0.53c0.44,0.25,0.88,0.51,1.32,0.79c0.64,0.4,1.26,0.83,1.88,1.3
					c1.07,0.8,2.06,1.79,2.96,2.94c1.77,2.27,2.43,5.21,1.79,8.02c-0.63,2.81-2.49,5.18-5.07,6.46l-7.6,3.79
					c-0.73,0.36-1.5,0.63-2.3,0.8c-1.07,0.62-2.21,1.11-3.4,1.49l-1.31,0.91c-3.79,2.63-8.87,2.14-12.11-1.04
					c-0.12-0.09-0.24-0.19-0.37-0.29c-0.01-0.01-0.03-0.03-0.05-0.04c-0.4-0.24-0.82-0.51-1.24-0.83c-1.42-1-2.81-2-4.14-2.97
					c0.32,1.03,0.65,2.06,0.97,3.09c0.37,1.17,0.51,2.39,0.41,3.61c-0.1,1.3-0.52,3.23-1.91,5.18c-0.72,1.09-1.65,2.03-2.76,2.75
					c-0.2,0.13-0.52,0.34-0.97,0.62c-0.78,0.49-1.42,0.89-2.27,1.23l-10.03,4.08C47.32,143.76,46.1,144,44.88,144z M64.2,134.99
					C64.2,135,64.2,135,64.2,134.99C64.2,135,64.2,135,64.2,134.99z M65.35,132.99C65.35,133,65.35,133,65.35,132.99
					C65.35,133,65.35,133,65.35,132.99z M65.35,132.98C65.35,132.99,65.35,132.99,65.35,132.98
					C65.35,132.99,65.35,132.99,65.35,132.98z M70.28,126.25c0,0,0.01,0.01,0.01,0.01C70.28,126.26,70.28,126.25,70.28,126.25z
					 M93.44,102.4c0,0,0,0.01,0,0.01C93.45,102.41,93.45,102.41,93.44,102.4z M93.44,102.39C93.44,102.39,93.44,102.39,93.44,102.39
					C93.44,102.39,93.44,102.39,93.44,102.39z M93.43,102.38C93.44,102.38,93.44,102.38,93.43,102.38
					C93.44,102.38,93.44,102.38,93.43,102.38z M93.43,102.37C93.43,102.37,93.43,102.37,93.43,102.37
					C93.43,102.37,93.43,102.37,93.43,102.37z M94.96,101.64C94.96,101.64,94.96,101.64,94.96,101.64
					C94.96,101.64,94.96,101.64,94.96,101.64z M94.35,101.22c0.01,0,0.02,0.01,0.02,0.01C94.37,101.23,94.36,101.23,94.35,101.22z
					 M92.43,100.06C92.43,100.06,92.43,100.06,92.43,100.06C92.43,100.06,92.43,100.06,92.43,100.06z M57.53,99.31
					C57.53,99.31,57.53,99.31,57.53,99.31C57.53,99.31,57.53,99.31,57.53,99.31z M90.89,98.87C90.89,98.87,90.89,98.88,90.89,98.87
					C90.89,98.88,90.89,98.87,90.89,98.87z M89.68,98.32C89.68,98.33,89.68,98.33,89.68,98.32C89.68,98.33,89.68,98.33,89.68,98.32z
					 M89.67,98.32C89.67,98.32,89.67,98.32,89.67,98.32C89.67,98.32,89.67,98.32,89.67,98.32z M89.65,98.31c0,0,0.01,0,0.01,0
					C89.66,98.32,89.66,98.31,89.65,98.31z M88.33,97.21c0,0,0.01,0,0.01,0C88.34,97.21,88.33,97.21,88.33,97.21z M84.45,94.63
					C84.46,94.63,84.46,94.63,84.45,94.63C84.46,94.63,84.46,94.63,84.45,94.63z M84.44,94.62c0,0,0.01,0,0.01,0
					C84.44,94.62,84.44,94.62,84.44,94.62z M84.42,94.61c0,0,0.01,0,0.01,0.01C84.43,94.62,84.43,94.61,84.42,94.61z M73.42,93.17
					c0,0.01,0,0.02-0.01,0.03C73.41,93.19,73.42,93.18,73.42,93.17z M39.15,85.11C39.15,85.11,39.15,85.11,39.15,85.11
					C39.15,85.11,39.15,85.11,39.15,85.11z M69.31,84.35c0.09,0.04,0.18,0.08,0.27,0.12C69.47,84.41,69.37,84.38,69.31,84.35z
					 M68.12,83.69C68.12,83.69,68.12,83.7,68.12,83.69C68.12,83.7,68.12,83.69,68.12,83.69z M21.98,64.52
					C21.98,64.52,21.98,64.52,21.98,64.52C21.98,64.52,21.98,64.52,21.98,64.52z"/>
			</g>
			<g>
				<path class="st0" d="M89.53,105.81c-0.54,0-1.13-0.04-1.79-0.15c-0.46-0.05-0.92-0.12-1.43-0.21c-0.12-0.02-0.25-0.04-0.37-0.06
					c-0.62-0.08-1.14-0.17-1.63-0.28l-3.12-0.73c-0.04,0-0.08,0-0.11-0.01c-0.02,0-0.05,0-0.07,0c-0.37-0.02-1.03-0.05-1.84-0.23
					c-0.61-0.01-1.33-0.07-2.14-0.27c0,0,0,0-0.01,0c-0.25-0.06-0.49-0.13-0.71-0.2c-0.25-0.04-0.51-0.09-0.78-0.15l-0.65-0.15
					c-0.37-0.09-0.74-0.19-1.1-0.32c-0.35-0.04-0.7-0.11-1.04-0.19c-0.39-0.09-0.82-0.21-1.47-0.42c-0.09-0.03-0.16-0.05-0.22-0.07
					c-2.74-0.7-5.03-2.58-6.26-5.14c-1.04-2.18-1.22-4.66-0.52-6.94c0.03-0.2,0.07-0.41,0.12-0.63l1.39-5.99
					c0.76-3.26,3.09-5.74,6.01-6.82c0.18-0.87,0.36-1.72,0.55-2.52c0.17-0.72,0.31-1.38,0.43-1.94c0.14-0.66,0.24-1.13,0.3-1.39
					c0.48-2.19,0.97-4.42,1.47-6.63c-0.83-0.73-1.55-1.59-2.16-2.56c-0.53-0.86-0.92-1.8-1.16-2.79c-0.34-1.42-0.3-2.63-0.24-3.41
					c0.03-0.43,0.09-0.9,0.16-1.37c0.03-0.17,0.05-0.33,0.07-0.48c0.06-0.43,0.13-0.81,0.22-1.17c0.06-0.24,0.12-0.47,0.27-1.02
					c0.11-0.38,0.24-0.81,0.38-1.26c0.13-0.39,0.25-0.76,0.36-1.1c0-0.02,0.01-0.03,0.02-0.05c0.05-0.2,0.12-0.42,0.19-0.65
					c0,0,0,0,0,0c0.06-0.4,0.13-0.74,0.2-1.07c0.57-2.48,2.11-4.63,4.26-5.97l0.27-0.17c2.25-1.4,4.97-1.8,7.53-1.11l6.14,1.66
					l9.33,1.96c0.07,0.02,0.14,0.03,0.22,0.05c0.29,0.07,0.6,0.15,1.06,0.29c0.01,0,0.02,0.01,0.04,0.01
					c0.36,0.11,0.76,0.23,1.19,0.37c0.4,0.13,0.75,0.25,1.06,0.36l0.04,0.01c1.68,0.47,3.21,1.4,4.41,2.68
					c2.29,2.45,3.27,5.73,2.69,9c-0.08,0.47-0.18,0.92-0.27,1.34l-0.26,1.11c-0.14,0.6-0.3,1.26-0.48,1.96
					c-0.14,0.55-0.28,1.1-0.4,1.64l-0.32,1.35c-0.81,3.46-3.4,6.06-6.59,7.01c-0.57,2.29-1.2,4.58-1.87,6.81
					c-0.44,1.45-0.85,2.92-1.24,4.41c0.04,0.04,0.09,0.08,0.13,0.11c0.01,0.01,0.03,0.02,0.04,0.04c2.78,2.48,3.97,6.3,3.12,9.97
					l-1.3,5.59c-0.42,1.8-1.34,3.46-2.68,4.79c-1.82,1.93-4.34,3-6.94,3c-0.02,0-0.03,0-0.04,0c-0.36,0.02-0.75,0.04-1.14,0.04
					c-0.15,0-0.32,0.01-0.48,0.02C90.13,105.8,89.84,105.81,89.53,105.81z M89.93,105.48C89.93,105.48,89.94,105.48,89.93,105.48
					C89.94,105.48,89.93,105.48,89.93,105.48z M89.91,105.48c0,0,0.01,0,0.01,0C89.92,105.48,89.92,105.48,89.91,105.48z
					 M89.89,105.47c0,0,0.01,0,0.01,0C89.9,105.48,89.9,105.47,89.89,105.47z M78.04,103.86C78.04,103.86,78.04,103.86,78.04,103.86
					C78.04,103.86,78.04,103.86,78.04,103.86z M78.01,103.86c0,0,0.01,0,0.01,0C78.02,103.86,78.02,103.86,78.01,103.86z M78,103.85
					c0,0,0.01,0,0.01,0C78.01,103.86,78,103.86,78,103.85z M82.4,103.84C82.4,103.84,82.4,103.84,82.4,103.84
					C82.4,103.84,82.4,103.84,82.4,103.84z M78.06,103.83C78.07,103.84,78.07,103.84,78.06,103.83
					C78.07,103.84,78.07,103.84,78.06,103.83z M82.41,103.84C82.41,103.84,82.41,103.84,82.41,103.84
					C82.41,103.84,82.41,103.84,82.41,103.84z M79.65,103.59C79.65,103.6,79.65,103.6,79.65,103.59
					C79.65,103.6,79.65,103.6,79.65,103.59z M98.75,102.96C98.75,102.96,98.75,102.96,98.75,102.96
					C98.75,102.96,98.75,102.96,98.75,102.96z M71.11,102.38c0.05,0.01,0.09,0.02,0.13,0.03C71.19,102.4,71.15,102.39,71.11,102.38z
					 M99.43,102.23c0,0-0.01,0.01-0.01,0.01C99.42,102.23,99.42,102.23,99.43,102.23z M71.41,101.93c0.03,0.02,0.06,0.03,0.08,0.05
					C71.47,101.96,71.44,101.95,71.41,101.93z M71.08,94.23C71.08,94.23,71.08,94.23,71.08,94.23L71.08,94.23z M71.07,94.23
					C71.07,94.23,71.07,94.23,71.07,94.23C71.07,94.23,71.07,94.23,71.07,94.23z M71.06,94.22C71.06,94.22,71.06,94.22,71.06,94.22
					C71.06,94.22,71.06,94.22,71.06,94.22z M71.05,94.22C71.05,94.22,71.06,94.22,71.05,94.22C71.06,94.22,71.05,94.22,71.05,94.22z
					 M64.8,88.94C64.8,88.94,64.8,88.94,64.8,88.94C64.8,88.94,64.8,88.94,64.8,88.94z M79.72,76.76L79.72,76.76L79.72,76.76z
					 M72.38,49.57C72.38,49.57,72.38,49.58,72.38,49.57C72.38,49.58,72.38,49.57,72.38,49.57z M72.39,49.53c0,0.01,0,0.02-0.01,0.02
					C72.39,49.55,72.39,49.54,72.39,49.53C72.39,49.54,72.39,49.53,72.39,49.53z M103.63,44.8c0.1,0.02,0.2,0.05,0.3,0.08
					C103.81,44.84,103.71,44.82,103.63,44.8z"/>
			</g>
			<g>
				<path class="st0" d="M116.3,142.84c-1.25,0-2.49-0.05-3.71-0.16c-2.72-0.24-5.32-0.6-7.72-1.09c-2.2-0.45-4.24-0.91-6.05-1.38
					c-1.85-0.48-2.74-0.67-3.11-0.74c-0.06-0.01-0.12-0.02-0.18-0.03c-0.04-0.01-0.09-0.01-0.14-0.02
					c-0.56-0.09-0.99-0.17-1.38-0.26c-2.01-0.47-3.68-1.23-5.1-2.31c-2.88-2.18-4.42-5.7-4.21-9.65c0.02-0.36,0.06-0.72,0.12-1.07
					c0.7-4.17,1.45-8.34,2.22-12.4c0.78-4.12,1.67-8.35,2.65-12.57l1.98-8.52c0.05-0.2,0.13-0.55,0.39-1.52
					c0.19-0.71,0.41-1.48,0.64-2.27c0.19-0.64,0.36-1.25,0.51-1.8c0.11-0.43,0.19-0.73,0.24-0.89c0.07-0.29,0.15-0.58,0.25-0.87
					c0.02-0.07,0.05-0.14,0.06-0.19l0.14-0.62c0.11-0.48,0.25-0.99,0.41-1.49c0.14-0.42,0.3-0.84,0.49-1.27l2.68-11.49
					c0.15-0.63,0.36-1.31,0.77-2.43c0.37-1.03,0.59-1.59,0.81-2.07c1.05-2.3,2.97-4.09,5.34-4.98c0.86-0.32,1.73-0.56,2.61-0.71
					c0.51-0.08,1-0.15,1.49-0.2c1.03-0.1,2.07-0.03,3.08,0.21l3.62,0.85c3.1,0.73,6.2,1.56,9.22,2.48c3.29,1,6.58,2.32,9.77,3.93
					c0.43,0.21,0.89,0.45,1.41,0.76c0.01,0.01,0.02,0.01,0.03,0.02c0.4,0.24,0.81,0.49,1.22,0.75c0.42,0.27,0.77,0.5,1.09,0.73
					c0,0,0.01,0,0.01,0c2.81,1.74,5.28,3.85,7.34,6.3c1.98,2.35,3.62,4.95,4.87,7.75c1.2,2.66,2.09,5.52,2.67,8.49
					c0.56,2.87,0.83,5.79,0.83,8.68c-0.02,3.16-0.36,6.36-1.02,9.53c-0.64,3.08-1.52,6.07-2.63,8.87c-1.1,2.78-2.37,5.38-3.79,7.72
					c-1.57,2.59-3.29,4.8-5.12,6.57c-2.88,2.8-6.1,4.96-9.55,6.41c-3.14,1.32-6.4,2.2-9.69,2.61
					C120,142.73,118.14,142.84,116.3,142.84z M95.26,139.38c0.05,0.01,0.12,0.03,0.22,0.05C95.4,139.42,95.33,139.4,95.26,139.38z
					 M93.73,85.16c0,0.01,0,0.02-0.01,0.02L93.73,85.16z M135.12,68.4C135.12,68.4,135.12,68.4,135.12,68.4
					C135.12,68.4,135.12,68.4,135.12,68.4z M135.1,68.4c0,0,0.01,0,0.01,0C135.11,68.4,135.11,68.4,135.1,68.4z"/>
			</g>
			<g>
				<path class="st0" d="M167.33,132.74c-1.15,0-2.28-0.03-3.4-0.08c-3-0.15-6.09-0.65-9.19-1.5c-0.61-0.13-1.24-0.32-1.95-0.58
					l-1.22-0.45c-0.63-0.23-1.26-0.48-1.84-0.75c-0.32-0.14-0.58-0.26-0.77-0.35c-0.99-0.44-1.77-0.99-2.42-1.48
					c-0.38-0.29-0.79-0.61-1.21-0.95c-0.24-0.2-0.5-0.4-0.76-0.6c-0.62-0.47-1.15-0.92-1.62-1.36l0,0
					c-0.49-0.46-0.98-0.99-1.46-1.61c0,0-0.01-0.01-0.01-0.01c-0.1-0.1-0.2-0.21-0.3-0.32c-0.57-0.64-1.06-1.34-1.59-2.27
					c-0.03-0.05-0.06-0.1-0.08-0.14c-0.23-0.36-0.48-0.77-0.77-1.29c-0.24-0.44-0.5-0.91-0.76-1.43c-0.22-0.44-0.44-0.87-0.64-1.28
					c-0.16-0.33-0.33-0.7-0.5-1.11c-0.39-0.86-0.65-1.78-0.78-2.75l-0.08-0.57c-0.22-1.57-0.05-3.14,0.47-4.6
					c0.38-1.14,1.02-2.36,2.01-3.59c0.65-0.8,1.13-1.32,1.67-1.79c0.31-0.28,0.64-0.54,0.99-0.77l6.15-4.16
					c-1.29-0.7-2.39-1.46-3.36-2.3c-0.95-0.82-1.84-1.75-2.64-2.73c-0.74-0.92-1.45-1.95-2.09-3.06c-0.23-0.39-0.5-0.84-0.82-1.34
					c-0.5-0.66-0.94-1.38-1.3-2.18c-0.27-0.6-0.64-1.49-0.85-2.62c-0.02-0.11-0.06-0.29-0.12-0.53c-0.15-0.67-0.26-1.27-0.35-1.83
					c-0.55-3.2-0.55-6.2,0-8.92c0.52-2.55,1.54-5.18,3.03-7.83c1.51-2.69,3.55-5.02,6.06-6.93c2.07-1.57,4.38-2.91,6.84-3.97
					c2.36-1.02,4.84-1.8,7.37-2.32c2.27-0.47,4.53-0.78,6.71-0.93c0.69-0.06,1.33-0.04,2.21,0c0.73,0.03,1.33,0.08,1.87,0.15
					c0.31,0,0.63,0.01,0.94,0.02c0.48,0.01,0.95,0.03,1.38,0.06l0.07,0c0.17,0,0.33,0.01,0.5,0.02c3.66,0.23,6.84,2.39,8.52,5.79
					l0.01,0.03c0.32,0.56,0.59,1.15,0.79,1.77c0.32,0.98,0.57,1.86,0.76,2.68c0.11,0.5,0.22,0.98,0.32,1.44
					c0.15,0.65,0.27,1.28,0.39,1.91c0.11,0.59,0.21,1.24,0.31,1.93l0.55,3.12c0.02,0.12,0.04,0.24,0.06,0.37
					c0.61,4.43-1.85,8.6-5.74,10.33c0.24,0.07,0.4,0.12,0.48,0.15c0.53,0.18,1.05,0.4,1.54,0.67c0.35,0.16,0.7,0.34,1.06,0.52
					c0.37,0.19,0.71,0.37,1.02,0.53c0.01,0.01,0.03,0.02,0.04,0.02c0.09,0.05,0.17,0.09,0.22,0.12c0.17,0.08,0.32,0.16,0.48,0.25
					c0.17,0.09,0.45,0.25,0.84,0.46c0.01,0.01,0.02,0.01,0.03,0.02c0.49,0.27,1.03,0.57,1.6,0.9c0.6,0.34,1.16,0.68,1.71,1.01
					c0.26,0.16,0.39,0.23,0.44,0.26c0.44,0.22,0.86,0.46,1.25,0.74c0.79,0.51,1.49,1.12,2.09,1.81c0.87,0.91,1.64,1.76,2.32,2.57
					c0.95,1.13,1.79,2.32,2.51,3.53c0.79,1.34,1.45,2.78,1.95,4.27c0.44,1.31,0.79,2.73,1.08,4.34c0.34,1.67,0.54,3.18,0.6,4.6
					c0.07,1.62-0.04,3.34-0.33,5.14c-0.04,0.22-0.08,0.43-0.13,0.65c-0.06,0.25-0.09,0.38-0.1,0.44c-0.19,1.44-0.66,2.83-1.41,4.16
					c-0.17,0.46-0.37,0.92-0.61,1.36c-0.89,1.63-1.82,3.11-2.76,4.39c-1.13,1.54-2.41,2.92-3.82,4.11
					c-1.39,1.18-2.95,2.23-4.64,3.11c-1.39,0.73-2.97,1.41-4.69,2.03c-0.68,0.27-1.33,0.45-1.9,0.59c-0.7,0.17-1.22,0.29-1.78,0.36
					c-0.22,0.03-0.44,0.05-0.66,0.07l-4.62,0.31C170.79,132.67,169.05,132.74,167.33,132.74z M141.72,123.23
					C141.72,123.23,141.72,123.23,141.72,123.23C141.72,123.23,141.72,123.23,141.72,123.23z M199.42,112.08
					C199.42,112.08,199.42,112.08,199.42,112.08C199.42,112.08,199.42,112.08,199.42,112.08z M199.44,111.96c0,0.01,0,0.02,0,0.03
					c0,0,0,0.01,0,0.01C199.43,111.99,199.43,111.98,199.44,111.96z M198.49,111.69C198.49,111.69,198.49,111.69,198.49,111.69
					C198.49,111.69,198.49,111.69,198.49,111.69z M198.49,111.67C198.49,111.67,198.49,111.67,198.49,111.67
					C198.49,111.67,198.49,111.67,198.49,111.67z M149.54,108.11c1.21,0,2.41,0.23,3.53,0.68c-1.34-0.54-2.97-0.84-4.82-0.59
					C148.68,108.14,149.11,108.11,149.54,108.11z M188.2,83.97C188.2,83.97,188.2,83.97,188.2,83.97
					C188.2,83.97,188.2,83.97,188.2,83.97z M188.12,83.93c0.01,0.01,0.02,0.01,0.03,0.02C188.14,83.94,188.13,83.94,188.12,83.93z
					 M136.14,82.16c0,0.02,0,0.04,0.01,0.05C136.14,82.19,136.14,82.18,136.14,82.16z M182.06,80.74
					C182.06,80.74,182.06,80.74,182.06,80.74C182.06,80.74,182.06,80.74,182.06,80.74z M182.05,80.73
					C182.05,80.73,182.05,80.74,182.05,80.73C182.05,80.74,182.05,80.73,182.05,80.73z M180.86,54.85
					C180.86,54.85,180.86,54.85,180.86,54.85C180.86,54.85,180.86,54.85,180.86,54.85z M180.85,54.84
					C180.86,54.84,180.86,54.84,180.85,54.84C180.86,54.84,180.86,54.84,180.85,54.84z M174.65,51.52
					C174.65,51.52,174.65,51.52,174.65,51.52C174.65,51.52,174.65,51.52,174.65,51.52z M170.87,49.76
					C170.86,49.76,170.86,49.76,170.87,49.76C170.86,49.76,170.86,49.76,170.87,49.76z M170.87,49.76
					C170.87,49.76,170.87,49.76,170.87,49.76C170.87,49.76,170.87,49.76,170.87,49.76z M169.3,49.59c0,0-0.01,0-0.01,0
					C169.3,49.59,169.3,49.59,169.3,49.59z"/>
			</g>
		</g>
		<g>
			<path class="st3" d="M45.55,140.51l-6.09-1.03L27.96,105c-0.12-0.29-0.33-0.84-0.93-2.58c-0.42-1.2-0.87-2.5-1.36-3.88
				c-0.5-1.41-0.96-2.73-1.39-3.95c-0.55-1.6-0.7-1.97-0.72-2.02c-0.25-0.62-0.67-1.68-1.21-3.07c-0.55-1.41-1.15-2.92-1.78-4.49
				c-0.64-1.58-1.25-3.07-1.83-4.44c-0.57-1.35-1-2.4-1.25-3.01l-0.29-0.71c0,0-2.14-4.71-1.15-6.23c0.9-1.4,6.24-2.41,6.24-2.41
				c0.14-0.01,0.47-0.06,1-0.23c0.79-0.26,1.49-0.46,2.11-0.63c0.35-0.14,0.83-0.32,1.46-0.56c0.83-0.32,1.76-0.65,2.75-1.01
				c0.93-0.33,1.78-0.65,2.55-0.94c0.99-0.37,1.41-0.54,1.57-0.61l2.26-0.92l2.76,1.17c1.75,0.78,2.6,2.17,3.01,2.84
				c0.25,0.41,0.51,0.86,0.81,1.39c0.26,0.46,0.52,0.93,0.78,1.41c0.38,0.69,0.67,1.28,0.88,1.82l1.33,3.28
				c0.08,0.21,0.2,0.48,0.34,0.81c0.05-0.16,0.11-0.32,0.17-0.48c0.05-0.43,0.14-0.82,0.25-1.18c0.04-0.2,0.09-0.5,0.17-0.98
				c0.16-0.93,0.34-1.93,0.55-3.05c0.19-1.04,0.38-2.02,0.54-2.95c0.14-0.77,0.21-1.18,0.25-1.41l-0.06-0.94l0.19-0.45
				c0.01-0.11,0.03-0.22,0.04-0.34c0-0.04,0.01-0.07,0.01-0.11l-0.04-0.62l0.24-0.92c0.08-0.3,0.16-0.63,0.23-0.99l0.01-0.06
				l0.07-3.64l4.24-1.73c2.28-0.93,4.59-1.81,6.88-2.62c2.1-0.74,4.22-1.55,6.32-2.4l5.45-2.22l2.87,7.09l-0.17,1.48
				c-0.14,1.23-0.25,2.22-0.35,3.01c-0.1,0.77-0.2,1.57-0.3,2.39c-0.1,0.78-0.18,1.43-0.23,1.94c-0.04,0.41-0.12,0.81-0.23,1.3
				c-0.05,0.21-0.09,0.44-0.13,0.68c-0.07,0.47-0.16,0.93-0.26,1.37c-0.01,0.21-0.04,0.39-0.05,0.54c-0.03,0.3-0.08,0.64-0.13,1.02
				c-0.03,0.2-0.04,0.38-0.05,0.57c-0.02,0.43-0.04,0.75-0.06,0.98l-0.01,0.12c-0.01,0.41-0.04,0.91-0.17,1.46
				c-0.54,2.8-0.98,5.64-1.33,8.45c-0.32,2.58-0.52,5.23-0.6,7.89c0.05,0.03,0.1,0.07,0.15,0.1c0.61,0.41,1.26,0.83,1.94,1.26
				c0.76,0.47,1.49,0.93,2.19,1.38c0.65,0.41,1.15,0.77,1.58,1.09c0.3,0.18,0.63,0.39,1.04,0.67c0.54,0.37,1.11,0.77,1.72,1.19
				c0.56,0.4,1.11,0.78,1.66,1.15c0.51,0.35,0.93,0.65,1.27,0.9c0.16,0.11,0.33,0.22,0.51,0.35c0.21,0.15,0.41,0.29,0.63,0.44
				l0.65,0.44l0.09,0.04l0.52,0.35c0.11,0.08,0.32,0.22,0.63,0.42l1.14,0.76c0.5,0.34,0.97,0.66,1.4,0.98l1.84,0.78l0.31,0.77
				l0.28,0.25c0.17,0.11,0.34,0.21,0.52,0.32l0.82,0.5c0.34,0.21,0.63,0.39,0.86,0.54l0.32,0.21l0.29,0.25
				c0.04,0.04,0.07,0.05,0.07,0.05c0.48,0.27,0.97,0.56,1.46,0.86c0.54,0.34,1.08,0.72,1.62,1.12c0.81,0.61,1.57,1.37,2.27,2.27
				l4.44,5.7l-15.04,7.49l-0.99,0.09c-1.14,0.73-2.38,1.28-3.7,1.63l-6.16,4.26l-3.25-3.81c-0.16-0.13-0.36-0.29-0.58-0.46
				c-0.16-0.12-0.28-0.2-0.35-0.24c-0.37-0.22-0.69-0.43-1-0.66c-2.14-1.51-4.19-2.99-6.11-4.42c-1.93-1.44-3.85-2.85-5.71-4.21
				c-0.47-0.34-0.94-0.68-1.41-1.01c0.69,2.09,1.36,4.18,2,6.21c0.8,2.55,1.6,5.09,2.39,7.63l0.34,1.09l-0.09,1.13
				c-0.08,1.07-0.43,2.08-1.03,3l-0.46,1.12l-1.53,1c-0.19,0.13-0.5,0.33-0.93,0.6c-0.74,0.47-1.16,0.71-1.67,0.92L45.55,140.51z
				 M30.42,78.02c0.34,0.82,0.68,1.66,1.04,2.54c0.66,1.62,1.28,3.19,1.84,4.65c0.51,1.33,0.92,2.36,1.15,2.92
				c0.12,0.3,0.33,0.84,0.93,2.58c0.42,1.2,0.87,2.5,1.36,3.88c0.5,1.41,0.96,2.73,1.39,3.95c0.55,1.59,0.7,1.97,0.72,2.03
				l0.25,0.64l8.57,25.71l2.22-0.9c-0.33-1.06-0.67-2.12-1-3.19c-0.77-2.47-1.6-5.01-2.44-7.54c-0.05-0.15-0.12-0.34-0.21-0.63
				l-0.28-0.87c-0.05-0.16-0.11-0.33-0.17-0.46l-0.21-0.52c-0.16-0.39-0.31-0.86-0.53-1.67c-0.15-0.56-0.31-1.16-0.47-1.8
				c-0.14-0.57-0.28-1.1-0.41-1.59c-0.07-0.26-0.11-0.41-0.14-0.48l-0.93-2.29l-0.02-0.23c-0.21-0.57-0.35-1.08-0.43-1.57
				c-0.04-0.2-0.06-0.31-0.07-0.34c-0.52-1.75-0.26-3.64,0.74-5.16c0.54-0.82,1.27-1.49,2.12-1.97c-1.1-0.1-2.18-0.45-3.17-1.05
				l-1.67-1.01l-0.73-1.82c-0.16-0.39-0.48-1.14-0.97-2.24c-0.52-1.16-1.06-2.42-1.63-3.76c-0.55-1.3-1.06-2.52-1.55-3.66
				c-0.47-1.11-0.84-1.99-1.06-2.52l-1.12-2.77c-0.92,0.33-1.77,0.64-2.54,0.93C30.78,77.89,30.58,77.96,30.42,78.02z M53.16,96.11
				c0.02,0.01,0.09,0.04,0.2,0.09l0.27,0.11l0.26,0.14c2.27,1.24,4.47,2.56,6.54,3.94c2.02,1.34,4.04,2.74,5.99,4.16
				c1.9,1.38,3.85,2.82,5.82,4.29c1.74,1.3,3.6,2.64,5.53,4.01c0.68-0.34,1.33-0.53,1.93-0.63c0.13-0.04,0.24-0.1,0.35-0.16
				c0.5-0.32,1.01-0.6,1.53-0.84c-0.19-0.15-0.38-0.3-0.56-0.46c-0.22-0.15-0.46-0.31-0.71-0.5c-0.26-0.2-0.58-0.41-0.91-0.64
				l-1.13-0.75c-0.22-0.15-0.41-0.27-0.55-0.36c-0.24-0.14-0.47-0.3-0.7-0.45l-0.76-0.52c-0.22-0.15-0.45-0.31-0.66-0.46l-0.21-0.09
				l-0.58-0.45c-0.06-0.05-0.32-0.24-0.96-0.68c-0.6-0.41-1.21-0.83-1.82-1.26c-0.55-0.39-1.07-0.75-1.56-1.08
				c-0.13-0.09-0.23-0.15-0.3-0.2l-0.58-0.25l-0.68-0.6c-0.05-0.04-0.27-0.2-0.78-0.53c-0.66-0.42-1.35-0.86-2.07-1.31
				c-0.8-0.5-1.56-0.99-2.28-1.47c-0.54-0.36-0.98-0.67-1.35-0.96c-0.06-0.03-0.13-0.07-0.19-0.1c-0.38-0.2-0.73-0.4-1.06-0.64
				c-1.02-0.68-1.81-1.65-2.29-2.83l-0.1-0.24c-0.64-1.58-0.78-3.23-0.41-4.79c0.01-0.03,0.01-0.06,0.02-0.09
				c0.08-3.23,0.32-6.45,0.7-9.59c0.37-3.01,0.84-6.06,1.41-9.06c0.01-0.22,0.02-0.46,0.06-0.72c0.01-0.12,0.01-0.25,0.02-0.41
				c0.03-0.5,0.07-1.02,0.14-1.53c0.02-0.15,0.04-0.29,0.06-0.43l0.04-0.59c0.04-0.47,0.12-0.9,0.25-1.48
				c0.01-0.05,0.02-0.09,0.03-0.14c-0.35,0.13-0.71,0.27-1.06,0.4l0.02,0.05l-0.61,1.45c-0.02,0.14-0.05,0.27-0.08,0.4
				c-0.05,0.29-0.13,0.76-0.28,1.6c-0.17,0.96-0.36,1.98-0.56,3.04c-0.2,1.05-0.37,2.01-0.52,2.87c-0.04,0.25-0.08,0.47-0.12,0.67
				l0.33,0.8l-1.16,2.7c0,0,0,0.01-0.01,0.01l-0.23,0.88l-0.08,0.03c-0.07,0.19-0.14,0.37-0.22,0.55c-0.01,0.09-0.03,0.18-0.04,0.27
				c-0.02,0.11-0.03,0.19-0.03,0.27c-0.05,0.65-0.15,1.43-0.51,2.28l-0.18,0.42c-0.07,0.16-0.13,0.33-0.21,0.53
				c-0.14,0.38-0.27,0.7-0.39,1c-0.05,0.18-0.11,0.37-0.18,0.56c-0.05,0.15-0.1,0.3-0.15,0.47c-0.05,0.15-0.09,0.31-0.13,0.45
				l-0.09,1.28l-0.72,0.96c-0.02,0.06-0.04,0.12-0.06,0.18c-0.17,0.56-0.39,1.12-0.66,1.67c-0.62,1.31-1.58,2.39-2.78,3.12
				l-0.41,0.25l-0.41,0.17c0.26,0.02,0.51,0.06,0.75,0.11l0.04,0.01c0.52,0.11,1.04,0.27,1.55,0.49
				C52.36,95.68,52.75,95.88,53.16,96.11z M44.07,107.37C44.07,107.38,44.07,107.38,44.07,107.37L44.07,107.37z M44.01,107.2
				C44.01,107.2,44.01,107.2,44.01,107.2S44.01,107.2,44.01,107.2z M53.83,99.44c0.01,0.03,0.02,0.05,0.02,0.08
				C53.85,99.49,53.84,99.47,53.83,99.44z M69.84,92.33c0,0,0,0.01,0,0.01C69.84,92.34,69.84,92.34,69.84,92.33z M42.62,86.27
				C42.62,86.27,42.62,86.27,42.62,86.27C42.62,86.27,42.62,86.27,42.62,86.27z M60.54,71.37C60.54,71.38,60.54,71.38,60.54,71.37
				C60.54,71.38,60.54,71.38,60.54,71.37z"/>
		</g>
		<g>
			<path class="st3" d="M94.28,102.71l-2.8-0.65c-0.21,0.01-0.43,0.02-0.66,0.02c-0.21,0-0.43,0.01-0.63,0.02
				c-0.57,0.03-1.2,0.04-1.9-0.09c-0.03,0-0.07-0.01-0.11-0.01c-0.36-0.04-0.77-0.1-1.21-0.18c-0.19-0.03-0.38-0.06-0.57-0.09
				c-0.49-0.06-0.89-0.13-1.25-0.21l-3.44-0.81c-0.17-0.01-0.31-0.02-0.46-0.02l-0.04,0c-0.32-0.02-0.64-0.04-1-0.1l-0.02,0
				l-0.21-0.05c-0.03-0.01-0.05-0.01-0.08-0.02l-0.04-0.01c-0.01,0-0.03-0.01-0.05-0.01l-0.23-0.05c-0.46,0.02-1.01,0-1.65-0.15l0,0
				c-0.29-0.07-0.55-0.15-0.79-0.24c-0.25-0.02-0.51-0.06-0.79-0.13l-0.64-0.15c-0.38-0.09-0.76-0.21-1.12-0.35
				c-0.32-0.02-0.66-0.07-1.01-0.15c-0.3-0.07-0.65-0.17-1.2-0.35c-0.16-0.05-0.28-0.09-0.37-0.11l-7.08-1.66l2.93-6.14
				c0.02-0.17,0.06-0.35,0.1-0.54l2.72-11.69l4.24,0.98c0.13-0.57,0.25-1.17,0.38-1.81c0.19-0.97,0.39-1.91,0.6-2.79
				c0.18-0.75,0.33-1.43,0.45-2.02c0.13-0.65,0.23-1.1,0.29-1.34c0.48-2.21,0.99-4.48,1.49-6.72c0.18-0.79,0.34-1.59,0.49-2.39
				c-1.27-0.59-2.35-1.56-3.13-2.83l-0.49-0.8l-0.22-0.91c-0.22-0.91-0.19-1.72-0.15-2.25c0.03-0.34,0.07-0.71,0.13-1.08
				c0.03-0.18,0.06-0.36,0.08-0.52c0.05-0.34,0.1-0.62,0.16-0.87c0.03-0.11,0.1-0.38,0.22-0.83c0.1-0.34,0.22-0.73,0.35-1.14
				c0.12-0.38,0.24-0.73,0.35-1.05c0.02-0.07,0.05-0.14,0.06-0.19c0.05-0.21,0.12-0.43,0.2-0.68c0,0,0,0,0,0s0.02-0.07,0.05-0.19
				c0.03-0.13,0.04-0.19,0.04-0.2c0.05-0.34,0.1-0.62,0.16-0.87l0.55-2.38l4.51-2.81l8.71,2.36l9.57,2.01
				c0.22,0.05,0.48,0.12,0.88,0.24c0.35,0.1,0.71,0.21,1.11,0.34c0.38,0.12,0.7,0.24,1,0.34c0.06,0.02,0.1,0.03,0.14,0.05l1.61,0.38
				l1.22,1.3c1.49,1.6,2.13,3.72,1.76,5.84c-0.07,0.4-0.15,0.78-0.23,1.14l-0.26,1.11c-0.13,0.57-0.29,1.21-0.46,1.88
				c-0.15,0.58-0.29,1.15-0.42,1.72l-1.59,6.83l-4.74-0.87l-0.11,0.46c-0.67,2.87-1.43,5.73-2.28,8.52
				c-0.71,2.33-1.35,4.73-1.93,7.15c0.69,0.3,1.34,0.71,1.91,1.21l0.03,0.02c1.8,1.6,2.54,3.98,1.98,6.37l-1.3,5.59
				c-0.18,0.79-0.62,1.93-1.66,2.99L94.28,102.71z M88.04,101.96c0.05,0.01,0.11,0.03,0.19,0.04
				C88.17,101.99,88.11,101.97,88.04,101.96z M73.33,98.79c0.01,0.01,0.02,0.01,0.03,0.02C73.35,98.8,73.34,98.79,73.33,98.79z
				 M86.38,56.8C86.38,56.81,86.38,56.81,86.38,56.8C86.38,56.81,86.38,56.81,86.38,56.8z M76,50.26c-0.02,0.06-0.03,0.11-0.04,0.15
				C75.97,50.36,75.98,50.31,76,50.26z M102.8,48.39l0.02,0C102.82,48.4,102.81,48.4,102.8,48.39z"/>
		</g>
		<g>
			<path class="st3" d="M116.3,139.16c-1.14,0-2.27-0.05-3.4-0.15c-2.59-0.22-5.05-0.57-7.32-1.03c-2.14-0.43-4.11-0.88-5.85-1.34
				c-1.86-0.49-2.86-0.7-3.37-0.79l-0.18-0.04c-0.06-0.01-0.14-0.02-0.24-0.04c-0.46-0.07-0.81-0.14-1.11-0.21
				c-1.49-0.35-2.71-0.89-3.72-1.66c-1.11-0.84-2.96-2.81-2.76-6.51l0.02-0.33l0.06-0.33c0.7-4.15,1.44-8.29,2.2-12.32
				c0.77-4.07,1.65-8.25,2.62-12.42l1.98-8.52c0.04-0.17,0.11-0.48,0.36-1.4c0.18-0.69,0.39-1.42,0.61-2.19
				c0.2-0.67,0.38-1.31,0.53-1.88c0.13-0.5,0.22-0.84,0.26-0.99l0.07-0.28l0.09-0.27c0.11-0.32,0.14-0.44,0.14-0.45l0.17-0.71
				c0.09-0.39,0.2-0.79,0.33-1.19c0.12-0.39,0.29-0.78,0.49-1.19l2.76-11.87c0.09-0.4,0.24-0.89,0.64-2.02
				c0.38-1.05,0.55-1.48,0.69-1.79l1.01-2.21l2.27-0.85c0.64-0.24,1.29-0.42,1.93-0.52c0.42-0.07,0.83-0.12,1.23-0.16l0.96-0.09
				l4.56,1.07c3.03,0.71,6.05,1.52,8.98,2.42c3.11,0.95,6.21,2.2,9.22,3.72c0.35,0.17,0.72,0.37,1.17,0.63
				c0.39,0.23,0.76,0.46,1.14,0.7c0.4,0.26,0.74,0.49,1.04,0.7l0.11,0.07c2.48,1.53,4.65,3.39,6.46,5.54
				c1.76,2.09,3.21,4.4,4.33,6.88c1.08,2.4,1.89,4.98,2.42,7.68c0.51,2.63,0.77,5.31,0.76,7.97c-0.02,2.91-0.33,5.86-0.94,8.79
				c-0.6,2.88-1.42,5.66-2.45,8.26c-1.02,2.59-2.21,5-3.51,7.17c-1.4,2.32-2.93,4.28-4.53,5.83c-2.55,2.48-5.39,4.39-8.42,5.66
				c-2.84,1.19-5.78,1.98-8.73,2.35C119.69,139.05,117.99,139.16,116.3,139.16z M96.09,135.79c0.01,0,0.02,0,0.03,0.01L96.09,135.79
				z M100.7,124.73c0.6,0.14,1.26,0.31,1.99,0.5c0.01,0,0.02,0.01,0.04,0.01l0.85-3.66c1.26-5.4,2.5-10.68,3.68-15.68
				c1.21-5.1,2.3-10.3,3.24-15.44l0.01-0.03c0.01-0.09,0.03-0.22,0.05-0.39c0.05-0.42,0.11-0.89,0.18-1.39
				c0.07-0.52,0.15-1.04,0.24-1.52c0.12-0.67,0.16-0.87,0.19-1.01l0.08-0.33h0l0.09-0.38c0.45-1.93,2.05-4.18,5.2-4.66l0.05-0.01
				l4.51-0.66l2.02,1.69c0.01,0.01,0.02,0.01,0.03,0.02l0.98,0.23l0.07,0.11c0.1,0.03,0.2,0.06,0.29,0.09
				c0.08,0.03,0.14,0.05,0.19,0.06l0.77,0.18l0.81,0.5c1.7,1.05,3.09,2.14,4.24,3.33c0.86,0.89,1.79,1.92,2.77,3.06l0.14,0.17
				c0.04,0.04,0.08,0.08,0.13,0.12c0.19,0.18,0.32,0.32,0.41,0.4c0.77,0.67,1.26,1.44,1.63,2.11c0.1,0.18,0.17,0.3,0.22,0.39
				l0.15,0.25l0.14,0.28c0.86,1.76,1.48,3.54,1.85,5.27c0.11,0.51,0.2,1.02,0.28,1.53c-0.04-1.6-0.22-3.22-0.53-4.81
				c-0.35-1.8-0.89-3.51-1.59-5.09c-0.67-1.48-1.54-2.87-2.59-4.12c-0.95-1.13-2.12-2.14-3.46-2.99c-0.36-0.2-0.67-0.41-0.95-0.62
				c-0.08-0.06-0.26-0.18-0.55-0.37c-0.25-0.16-0.51-0.32-0.77-0.47c-0.13-0.08-0.21-0.12-0.24-0.13l-0.18-0.09
				c-2.44-1.23-4.93-2.24-7.42-3c-2.6-0.79-5.27-1.51-7.95-2.15l-2.63,11.29l-0.42,0.69l-0.16,0.7c-0.09,0.38-0.21,0.8-0.37,1.3
				c-0.05,0.21-0.14,0.53-0.28,1.06c-0.18,0.67-0.38,1.39-0.61,2.15c-0.2,0.68-0.38,1.32-0.54,1.91c-0.14,0.53-0.23,0.88-0.27,1.03
				l-1.98,8.52c-0.93,4.01-1.78,8.02-2.52,11.94C101.68,119.28,101.18,122,100.7,124.73z M97.44,124.06L97.44,124.06L97.44,124.06z
				 M121.76,94.23c-0.91,4.81-1.93,9.64-3.06,14.4c-0.64,2.7-1.3,5.48-1.96,8.32c1.28-0.26,2.5-0.66,3.69-1.2
				c1.61-0.74,3-1.92,4.26-3.62c0.1-0.15,0.21-0.32,0.36-0.54c0.02-0.04,0.08-0.13,0.16-0.27c0.1-0.19,0.19-0.36,0.28-0.53
				c0.02-0.05,0.03-0.11,0.05-0.17c0.05-0.16,0.09-0.29,0.11-0.39c0.32-1.36,0.58-2.68,0.79-3.92c0.17-1.04,0.26-2.04,0.27-2.97
				c0-0.82-0.09-1.67-0.27-2.52c-0.16-0.74-0.44-1.54-0.83-2.37c-0.03-0.05-0.06-0.1-0.09-0.15c-0.06-0.06-0.12-0.12-0.19-0.18
				c-0.46-0.44-0.82-0.82-1.13-1.22c-0.78-0.9-1.51-1.71-2.17-2.4C121.96,94.42,121.87,94.33,121.76,94.23z M110.56,90.17
				c0,0.02-0.01,0.04-0.01,0.06L110.56,90.17z M133.82,89.96l0.03,0.03c0.02,0.01,0.03,0.03,0.05,0.04
				C133.88,90,133.85,89.97,133.82,89.96z M133.79,89.93l0.03,0.03C133.81,89.94,133.8,89.94,133.79,89.93z M108.99,87.74
				C108.99,87.74,108.99,87.75,108.99,87.74C108.99,87.75,108.99,87.74,108.99,87.74z M124.51,82.25l0.05,0.01
				C124.54,82.26,124.53,82.25,124.51,82.25z"/>
		</g>
		<g>
			<path class="st3" d="M167.33,129.05c-1.09,0-2.16-0.03-3.22-0.08c-2.77-0.13-5.63-0.61-8.51-1.41c-0.47-0.1-0.97-0.25-1.55-0.46
				l-1.22-0.45c-0.56-0.2-1.1-0.42-1.6-0.65c-0.32-0.15-0.58-0.26-0.76-0.35c-0.66-0.3-1.21-0.68-1.7-1.05
				c-0.35-0.27-0.72-0.56-1.11-0.87c-0.28-0.23-0.57-0.45-0.86-0.67c-0.44-0.33-0.82-0.64-1.14-0.94c-0.6-0.52-1.01-1.05-1.25-1.36
				c-0.1-0.13-0.16-0.2-0.19-0.23l-0.12-0.12l-0.16-0.17c-0.39-0.44-0.74-0.95-1.14-1.64c-0.06-0.11-0.11-0.2-0.15-0.27
				c-0.2-0.3-0.41-0.66-0.68-1.14c-0.23-0.41-0.46-0.84-0.7-1.32c-0.22-0.42-0.42-0.84-0.62-1.23c-0.14-0.29-0.29-0.61-0.43-0.96
				c-0.25-0.55-0.43-1.15-0.51-1.77l-0.08-0.57c-0.13-0.94-0.04-1.89,0.26-2.77c0.27-0.89,0.75-1.75,1.43-2.59
				c0.51-0.63,0.88-1.03,1.25-1.36l0.29-0.26l8.44-5.71l1.9-0.26l0.3-0.01c1.39-0.05,3.52,0.31,5.7,2.33
				c0.73,0.68,1.48,1.47,2.24,2.34c0.6,0.7,1.2,1.39,1.8,2.06c0.22,0.25,0.36,0.38,0.42,0.43c1.06,0.62,2.15,1.04,3.35,1.29
				c1.34,0.28,2.63,0.38,3.85,0.31c0.22-0.01,0.41-0.03,0.6-0.05c0-0.06,0.01-0.13,0.01-0.21c0.01-0.35,0.03-0.69,0.05-1.01
				c0.01-0.09,0.02-0.22,0.04-0.38c-0.14-0.48-0.3-0.99-0.46-1.53c-0.02-0.07-0.06-0.17-0.1-0.24c-0.11-0.09-0.25-0.2-0.4-0.32
				c-0.31-0.26-0.67-0.53-1.04-0.82c-0.5-0.38-0.95-0.73-1.38-1.08c-0.09-0.07-0.16-0.13-0.2-0.16l-0.12-0.07
				c-0.08-0.04-0.18-0.09-0.3-0.14c-0.35-0.17-0.67-0.32-0.96-0.48c-0.64-0.16-1.39-0.4-2.34-0.76c-0.81-0.3-1.68-0.61-2.66-0.95
				c-1.03-0.35-2.04-0.71-2.99-1.06c-0.73-0.27-1.05-0.37-1.14-0.4c-0.55-0.13-1.12-0.33-1.84-0.66c-0.22-0.1-0.49-0.21-0.79-0.32
				c-0.51-0.18-1.01-0.38-1.49-0.58c-0.47-0.2-0.86-0.38-1.2-0.55c-0.57-0.28-1.06-0.62-1.49-0.97c-0.12-0.04-0.21-0.07-0.26-0.09
				l-0.37-0.13l-0.35-0.17c-1.34-0.67-2.43-1.38-3.35-2.18c-0.79-0.68-1.53-1.45-2.19-2.26c-0.63-0.77-1.23-1.65-1.77-2.59
				c-0.28-0.48-0.62-1.03-1.01-1.64c-0.37-0.46-0.69-0.98-0.95-1.56c-0.19-0.42-0.45-1.05-0.59-1.81c-0.02-0.11-0.07-0.32-0.13-0.61
				c-0.13-0.6-0.24-1.13-0.31-1.62c-0.48-2.76-0.49-5.31-0.02-7.59c0.44-2.18,1.33-4.46,2.64-6.77c1.25-2.23,2.96-4.19,5.07-5.79
				c1.84-1.39,3.88-2.58,6.08-3.53c2.13-0.92,4.37-1.62,6.66-2.09c2.13-0.44,4.23-0.73,6.26-0.87c0.47-0.04,0.95-0.03,1.75,0.01
				c0.73,0.03,1.3,0.08,1.78,0.16c0.36,0,0.73,0,1.09,0.01c0.41,0.01,0.81,0.03,1.17,0.05l0.07-0.01l0.58,0.04
				c2.33,0.15,4.37,1.55,5.45,3.75c0.01,0.03,0.02,0.05,0.04,0.07l0.31,0.45l0.27,0.8c0.29,0.86,0.5,1.62,0.66,2.32
				c0.11,0.5,0.22,0.99,0.33,1.46c0.13,0.59,0.25,1.17,0.35,1.74c0.1,0.56,0.2,1.18,0.29,1.85l0.6,3.41
				c0.46,3.37-1.77,6.38-5.1,6.91c-0.09,0.02-0.26,0.05-0.5,0.09c-0.49,0.09-1.03,0.18-1.63,0.27l-2.09,0.29
				c-1.07,0.19-2.2,0.42-3.36,0.7c-0.73,0.17-1.36,0.41-1.89,0.7c0.11,0.12,0.24,0.23,0.39,0.33c0.42,0.29,0.87,0.53,1.35,0.74
				c0.59,0.25,1.12,0.44,1.6,0.56l0.23,0.06l0.22,0.08c0.2,0.07,0.65,0.23,1.35,0.49c0.61,0.23,1.25,0.46,1.92,0.7
				c0.81,0.29,1.51,0.55,2.15,0.8c0.16,0.06,0.27,0.1,0.34,0.13l0.16,0.04c0.27,0.07,0.64,0.17,1.13,0.31
				c0.53,0.15,0.85,0.25,0.96,0.29l0.97,0.32l0.34,0.26c0.25,0.12,0.51,0.25,0.79,0.39c0.34,0.17,0.66,0.34,0.95,0.5
				c0.18,0.1,0.3,0.16,0.38,0.2l0.31,0.16c0.17,0.1,0.47,0.26,0.88,0.48c0.49,0.27,1.01,0.56,1.56,0.88
				c0.56,0.33,1.11,0.65,1.63,0.97c0.49,0.3,0.67,0.39,0.68,0.39l2.99,2.5c0.56,0.6,1.06,1.17,1.51,1.71c0.82,0.98,1.55,2,2.16,3.04
				c0.66,1.12,1.21,2.32,1.63,3.57c0.38,1.14,0.69,2.41,0.95,3.86c0.31,1.5,0.48,2.84,0.54,4.08c0.06,1.36-0.04,2.83-0.29,4.37
				l-0.08,0.4c-0.13,0.54-0.15,0.74-0.15,0.74c-0.1,0.81-0.34,1.59-0.71,2.36l0.03,0.21l-0.93,1.71c-0.81,1.49-1.65,2.82-2.5,3.97
				c-0.96,1.3-2.05,2.48-3.24,3.49c-1.18,1-2.51,1.9-3.96,2.66c-1.26,0.66-2.7,1.28-4.28,1.85c-0.41,0.17-0.88,0.31-1.5,0.46
				c-0.68,0.17-1.04,0.24-1.4,0.29l-0.41,0.04l-4.62,0.31C170.62,128.99,168.96,129.05,167.33,129.05z M157.98,115.99l0.04,0
				l0.44,0.13c-0.32-0.17-0.63-0.35-0.94-0.53l-0.05-0.03c-1.03-0.63-2.02-1.5-3.03-2.64c-0.4-0.45-0.79-0.9-1.19-1.36l-0.67,0.46
				c0.08,0.13,0.2,0.32,0.36,0.61c0.22,0.25,0.45,0.53,0.7,0.83c0.04,0.03,0.13,0.1,0.26,0.21c0.4,0.3,0.79,0.61,1.18,0.93
				c0.24,0.19,0.46,0.37,0.66,0.53c0.08,0.04,0.18,0.08,0.3,0.13c0.25,0.11,0.51,0.22,0.8,0.32L157.98,115.99z M158.2,116.07
				L158.2,116.07L158.2,116.07z M194.53,114.91C194.52,114.91,194.52,114.91,194.53,114.91
				C194.52,114.91,194.52,114.91,194.53,114.91z M183.17,108.18c0.03,1.38-0.1,2.58-0.39,3.67c-0.02,0.06-0.03,0.12-0.05,0.18
				c0.27-0.4,0.54-0.85,0.81-1.33c0.1-0.27,0.2-0.51,0.3-0.72c0.02-0.04,0.03-0.07,0.05-0.1l0.26-0.75l0.17-0.23
				c0.04-0.19,0.08-0.39,0.13-0.61c0.1-0.67,0.14-1.26,0.12-1.75c-0.03-0.62-0.14-1.41-0.33-2.32l-0.04-0.19
				c-0.15-0.89-0.33-1.63-0.53-2.21c-0.16-0.47-0.36-0.91-0.6-1.32c-0.28-0.48-0.63-0.97-1.04-1.45c-0.16-0.2-0.34-0.4-0.53-0.61
				c0.32,0.65,0.6,1.33,0.82,2.05c0.36,1.19,0.69,2.28,0.95,3.24l0.11,0.39l0.05,0.4c0.08,0.59,0.08,1.18-0.01,1.77l0.18,1.31
				L183.17,108.18z M183.85,110c0,0.01-0.01,0.02-0.01,0.03L183.85,110z M171.41,108.9C171.41,108.9,171.41,108.9,171.41,108.9
				C171.41,108.9,171.41,108.9,171.41,108.9z M183,107.86c0,0.01,0,0.01-0.01,0.02C183,107.87,183,107.87,183,107.86z
				 M183.23,106.82c0,0.01,0,0.01,0,0.02C183.23,106.83,183.23,106.82,183.23,106.82z M168.12,101.42c0.01,0.01,0.02,0.01,0.04,0.02
				L168.12,101.42z M167.91,101.29L167.91,101.29L167.91,101.29z M186.44,87.27c0.04,0.02,0.09,0.04,0.13,0.06
				C186.53,87.31,186.48,87.29,186.44,87.27z M154.62,83.3c0.07,0.02,0.15,0.05,0.24,0.08c0.31,0.11,0.63,0.22,0.96,0.37
				c-0.57-1.04-0.97-2.16-1.2-3.35c-0.57-2.97-0.2-5.63,1.12-7.89c1.1-1.88,2.64-3.41,4.58-4.52c1.52-0.88,3.24-1.54,5.11-1.99
				c0.95-0.22,1.89-0.43,2.8-0.61c-0.03-0.13-0.06-0.27-0.08-0.4c-0.14-0.02-0.29-0.04-0.44-0.08c-0.09-0.01-0.23-0.02-0.43-0.03
				c-0.2-0.01-0.37-0.02-0.49-0.02c-1.48,0.1-3.03,0.32-4.62,0.65c-1.51,0.31-2.99,0.77-4.39,1.38c-1.33,0.57-2.55,1.28-3.63,2.1
				c-0.82,0.62-1.45,1.33-1.92,2.17c-0.71,1.26-1.16,2.37-1.36,3.34c-0.12,0.58-0.2,1.61,0.1,3.25l0.04,0.24
				c0.01,0.1,0.05,0.34,0.15,0.78c0,0.02,0.01,0.04,0.01,0.06c0.51,0.79,0.97,1.54,1.36,2.21c0.24,0.42,0.49,0.78,0.74,1.09
				c0.23,0.28,0.48,0.54,0.75,0.77C154.05,82.94,154.21,83.08,154.62,83.3z M175.92,82.11L175.92,82.11L175.92,82.11z M139.78,81.67
				c0.01,0.04,0.02,0.13,0.04,0.27c-0.01-0.07-0.02-0.15-0.04-0.22L139.78,81.67z M175.68,76.14c-0.04,0.01-0.07,0.01-0.11,0.02
				C175.59,76.16,175.63,76.15,175.68,76.14z M178.08,57.32C178.08,57.32,178.08,57.32,178.08,57.32L178.08,57.32z"/>
		</g>
		<g>
			<path class="st4" d="M45.21,137.46l-3.53-0.59l-11.01-32.98c-0.1-0.24-0.29-0.75-0.88-2.44c-0.42-1.21-0.88-2.51-1.37-3.9
				c-0.5-1.4-0.96-2.71-1.38-3.94c-0.53-1.53-0.71-2.01-0.77-2.16c-0.24-0.61-0.66-1.65-1.19-3.03c-0.55-1.42-1.16-2.95-1.8-4.53
				c-0.64-1.59-1.26-3.1-1.85-4.48c-0.57-1.34-0.99-2.37-1.24-2.98l-0.14-0.35c0,0-1.16-3.1-0.63-3.95c0.43-0.7,3.1-0.99,3.1-0.99
				c0.48-0.04,1.04-0.16,1.66-0.36c0.8-0.26,1.52-0.47,2.13-0.63c0.35-0.14,0.87-0.34,1.58-0.61c0.82-0.31,1.72-0.64,2.7-0.99
				c0.94-0.34,1.82-0.66,2.6-0.96c1.01-0.38,1.46-0.56,1.64-0.63l1.13-0.46l1.59,0.67c0.92,0.41,1.37,1.15,1.7,1.69
				c0.22,0.37,0.48,0.8,0.75,1.28c0.25,0.46,0.51,0.92,0.78,1.4c0.32,0.58,0.56,1.07,0.73,1.5l1.33,3.28c0.14,0.34,0.42,1.03,1,2.38
				c0.49,1.15,1,2.37,1.56,3.68c0.33,0.78,0.65,1.53,0.96,2.25c0.03-0.1,0.06-0.2,0.09-0.3c0.09-0.3,0.17-0.57,0.26-0.81l0.02-0.25
				l0.36-0.85c0.08-0.19,0.16-0.41,0.26-0.66c0.13-0.35,0.25-0.65,0.36-0.91l0.02-0.06c0.02-0.27,0.06-0.55,0.1-0.84
				c0.03-0.21,0.06-0.41,0.08-0.6c0.05-0.43,0.12-0.81,0.28-1.19c0.04-0.1,0.13-0.29,0.28-0.59c0.03-0.07,0.08-0.18,0.14-0.35
				c0.11-0.35,0.22-0.67,0.35-0.98c0.02-0.4,0.09-0.75,0.2-1.05c0.04-0.18,0.11-0.55,0.23-1.28c0.16-0.92,0.33-1.9,0.54-3
				c0.2-1.04,0.38-2.04,0.55-2.98c0.18-0.98,0.25-1.42,0.28-1.62l0.02-0.26l-0.03-0.46l0.09-0.21c0.02-0.21,0.05-0.46,0.09-0.75
				c0.03-0.23,0.04-0.36,0.04-0.42l-0.02-0.37l0.12-0.46c0.09-0.35,0.18-0.74,0.27-1.14l0.06-0.24c0,0,0,0,0,0
				c0,0,0.01-0.04,0.01-0.11l0.04-1.94l2.45-1c2.24-0.91,4.51-1.78,6.75-2.57c2.14-0.76,4.31-1.58,6.44-2.45l2.72-1.11l1.48,3.66
				l-0.08,0.74c-0.14,1.22-0.25,2.19-0.35,2.97c-0.1,0.78-0.2,1.58-0.3,2.4c-0.1,0.8-0.18,1.46-0.24,1.98
				c-0.02,0.24-0.07,0.52-0.18,0.98c-0.06,0.27-0.11,0.56-0.16,0.87c-0.07,0.43-0.15,0.85-0.23,1.24c-0.02,0.07-0.03,0.14-0.04,0.19
				c-0.01,0.22-0.03,0.42-0.05,0.59c-0.03,0.28-0.07,0.61-0.12,0.97c-0.04,0.27-0.06,0.54-0.07,0.81c-0.02,0.39-0.04,0.69-0.05,0.9
				l-0.02,0.23c0,0.28-0.02,0.6-0.11,0.94c-0.55,2.89-1.02,5.83-1.37,8.73c-0.36,2.92-0.57,5.92-0.64,8.93l-0.01,0.16
				c-0.01,0.18-0.03,0.37-0.06,0.55l0.06,0.02l0.37,0.33c0.08,0.07,0.36,0.3,1.12,0.81c0.63,0.43,1.31,0.87,2.03,1.31
				c0.75,0.47,1.47,0.92,2.16,1.37c0.64,0.41,1.13,0.76,1.51,1.05c0.25,0.14,0.57,0.34,1.03,0.66c0.52,0.36,1.08,0.75,1.68,1.17
				c0.57,0.41,1.13,0.8,1.69,1.18c0.52,0.36,0.94,0.65,1.25,0.89c0.14,0.09,0.3,0.2,0.48,0.33c0.22,0.16,0.44,0.31,0.67,0.47
				l0.76,0.52c0.05,0.04,0.1,0.07,0.14,0.09l0.08,0.03l0.26,0.18c0.12,0.08,0.34,0.23,0.67,0.45l1.14,0.76
				c0.46,0.31,0.89,0.61,1.28,0.9c0.16,0.12,0.25,0.18,0.3,0.21l1.01,0.43l0.2,0.5c0.14,0.1,0.26,0.19,0.38,0.28l0.18,0.07l0.3,0.27
				c0.04,0.03,0.08,0.06,0.14,0.09c0.21,0.13,0.42,0.27,0.67,0.42l0.82,0.5c0.3,0.18,0.54,0.33,0.73,0.46l0.16,0.11l0.14,0.13
				c0.2,0.17,0.39,0.31,0.59,0.42c0.44,0.24,0.88,0.5,1.33,0.78c0.47,0.3,0.94,0.62,1.41,0.97c0.6,0.45,1.18,1.04,1.72,1.73
				l2.22,2.85l-11.32,5.64l-0.54,0.05c-0.42,0.04-0.79,0.17-1.17,0.42c-1.02,0.66-2.16,1.14-3.39,1.41l-4.42,3.06l-1.67-1.96
				c-0.05-0.05-0.11-0.1-0.19-0.16c-0.21-0.17-0.45-0.36-0.7-0.55c-0.21-0.16-0.42-0.3-0.6-0.41c-0.35-0.21-0.59-0.37-0.78-0.51
				c-2.13-1.5-4.18-2.98-6.1-4.41c-1.94-1.44-3.87-2.87-5.74-4.23c-1.85-1.34-3.75-2.66-5.66-3.93c-0.89-0.59-1.8-1.16-2.74-1.73
				c0.09,0.35,0.19,0.73,0.29,1.12c0.15,0.59,0.29,1.14,0.43,1.65c0.13,0.49,0.19,0.67,0.21,0.71l0.19,0.48
				c0.13,0.32,0.25,0.65,0.37,1.03l0.29,0.9c0.05,0.16,0.09,0.28,0.11,0.34l0.04,0.12c0.87,2.62,1.72,5.23,2.52,7.78
				c0.8,2.55,1.6,5.09,2.39,7.63l0.17,0.54l-0.04,0.57c-0.05,0.64-0.28,1.25-0.7,1.82l-0.23,0.56l-0.76,0.5
				c-0.19,0.12-0.49,0.32-0.91,0.58c-0.66,0.42-0.92,0.56-1.2,0.68L45.21,137.46z M26.48,76.22c0.11,0.27,0.24,0.56,0.37,0.89
				c0.59,1.41,1.22,2.94,1.88,4.56c0.65,1.61,1.27,3.16,1.83,4.61c0.66,1.71,1,2.55,1.16,2.96c0.1,0.25,0.29,0.75,0.88,2.44
				c0.42,1.21,0.88,2.51,1.37,3.9c0.5,1.4,0.96,2.71,1.38,3.94c0.53,1.52,0.71,2.01,0.78,2.16l0.18,0.47l9.56,28.69l7.63-3.11
				c-0.6-1.93-1.21-3.85-1.81-5.78c-0.78-2.5-1.61-5.06-2.47-7.63c-0.04-0.1-0.09-0.26-0.19-0.57l-0.29-0.88
				c-0.08-0.24-0.16-0.46-0.24-0.65l-0.21-0.51c-0.11-0.28-0.23-0.67-0.42-1.35c-0.15-0.54-0.3-1.12-0.46-1.75
				c-0.15-0.59-0.29-1.14-0.43-1.64c-0.13-0.49-0.19-0.67-0.21-0.71L46,104.3l-0.01-0.21c-0.01-0.02-0.02-0.05-0.03-0.07
				c-0.22-0.54-0.35-0.97-0.41-1.37c-0.08-0.42-0.13-0.59-0.14-0.64c-0.28-0.92-0.15-1.92,0.38-2.71c0.31-0.48,1.05-1.3,2.48-1.46
				l0.14-0.01c0.54-0.03,0.98-0.01,1.4,0.07c0.35,0.07,0.69,0.18,1.03,0.32c0.29,0.12,0.58,0.27,0.9,0.46
				c0.05,0.03,0.19,0.11,0.49,0.23l0.26,0.13c2.2,1.2,4.33,2.48,6.33,3.81c1.99,1.31,3.96,2.68,5.88,4.08
				c1.89,1.37,3.84,2.81,5.79,4.27c1.89,1.41,3.93,2.88,6.05,4.37l0.16,0.12c0.05,0.03,0.11,0.07,0.18,0.11
				c0.26,0.16,0.53,0.33,0.8,0.53l0.89-0.61l0.23-0.09c0.05-0.02,0.11-0.06,0.19-0.1c0.22-0.12,0.72-0.37,1.36-0.44
				c0.48-0.13,0.9-0.31,1.3-0.57c0.99-0.64,2.07-1.06,3.21-1.25l2.89-1.44c-0.29-0.19-0.58-0.41-0.86-0.64
				c-0.09-0.06-0.21-0.13-0.35-0.21l-0.82-0.5c-0.31-0.19-0.58-0.36-0.83-0.52c-0.19-0.12-0.35-0.23-0.49-0.33
				c-0.17-0.11-0.33-0.23-0.46-0.33c-0.09-0.07-0.22-0.17-0.36-0.27c-0.22-0.16-0.45-0.34-0.66-0.53c-0.04-0.03-0.08-0.07-0.12-0.11
				c-0.22-0.14-0.46-0.3-0.73-0.5c-0.31-0.23-0.66-0.47-1.03-0.72l-1.13-0.75c-0.26-0.17-0.47-0.31-0.61-0.41
				c-0.18-0.1-0.36-0.23-0.6-0.39l-0.76-0.52c-0.27-0.18-0.53-0.36-0.77-0.54c-0.03-0.02-0.06-0.05-0.09-0.07l-0.15-0.06l-0.29-0.23
				c-0.13-0.1-0.44-0.34-1.11-0.79c-0.59-0.4-1.18-0.81-1.77-1.23c-0.56-0.4-1.1-0.77-1.6-1.11c-0.35-0.24-0.52-0.35-0.59-0.39
				l-0.35-0.15l-0.36-0.31c-0.04-0.04-0.3-0.26-1.1-0.77c-0.67-0.43-1.37-0.87-2.11-1.33c-0.77-0.48-1.5-0.96-2.19-1.42
				c-0.58-0.39-1.04-0.72-1.39-1c-0.11-0.06-0.24-0.13-0.4-0.21c-0.35-0.19-0.61-0.34-0.82-0.49c-0.53-0.35-0.95-0.87-1.2-1.49
				l-0.1-0.24c-0.41-1.02-0.5-2.02-0.27-2.99c0.04-0.18,0.08-0.38,0.09-0.58c0.08-3.18,0.31-6.35,0.68-9.43
				c0.37-3.03,0.85-6.1,1.43-9.11c0-0.21,0.01-0.45,0.05-0.7c0.01-0.15,0.02-0.34,0.03-0.57c0.02-0.43,0.06-0.86,0.12-1.29
				c0.02-0.19,0.05-0.36,0.07-0.53l0.05-0.67c0.02-0.26,0.07-0.54,0.18-1.06c0.06-0.27,0.12-0.56,0.16-0.87
				c0.07-0.43,0.14-0.84,0.23-1.24c0.03-0.15,0.06-0.26,0.07-0.34c0.06-0.54,0.14-1.23,0.25-2.07c0.03-0.24,0.06-0.49,0.09-0.73
				c-0.74,0.27-1.48,0.54-2.21,0.8c-1.87,0.66-3.77,1.38-5.65,2.13c-0.04,0.16-0.08,0.32-0.11,0.48c-0.01,0.22-0.04,0.48-0.08,0.81
				c-0.01,0.06-0.01,0.11-0.02,0.16l0.21,0.51l-0.29,0.69c-0.02,0.19-0.05,0.39-0.1,0.6c-0.05,0.33-0.15,0.88-0.29,1.66
				c-0.17,0.95-0.36,1.96-0.55,3.02s-0.38,2.04-0.53,2.91c-0.13,0.73-0.21,1.18-0.27,1.48l0.19,0.46L54.4,78.4
				c-0.06,0.15-0.13,0.34-0.19,0.54c-0.14,0.44-0.3,0.85-0.48,1.22c0,0.01-0.01,0.02-0.01,0.03c-0.03,0.21-0.06,0.43-0.09,0.66
				c-0.03,0.18-0.05,0.35-0.06,0.5c-0.04,0.5-0.1,0.93-0.28,1.36l-0.18,0.42c-0.08,0.19-0.16,0.41-0.26,0.66
				c-0.13,0.35-0.24,0.65-0.36,0.91l-0.06,0.15c-0.04,0.17-0.1,0.35-0.17,0.56c-0.06,0.18-0.13,0.38-0.19,0.59
				c-0.07,0.25-0.14,0.48-0.2,0.71c-0.01,0.03-0.01,0.05-0.02,0.07l-0.05,0.71l-0.48,0.64c-0.09,0.24-0.16,0.47-0.24,0.71
				c-0.13,0.42-0.3,0.85-0.5,1.27c-0.38,0.81-0.94,1.44-1.66,1.88l-0.2,0.12l-0.22,0.09c-0.43,0.17-0.88,0.33-1.33,0.45
				c-1.12,0.31-2.32,0.13-3.37-0.51l-0.84-0.51l-0.37-0.91c-0.17-0.43-0.5-1.19-1.01-2.33c-0.51-1.14-1.05-2.39-1.61-3.71
				c-0.55-1.3-1.07-2.52-1.55-3.67c-0.47-1.1-0.83-1.96-1.04-2.48l-1.33-3.28c-0.05-0.12-0.17-0.38-0.43-0.87
				c-0.22-0.4-0.44-0.79-0.65-1.18c-0.74,0.28-1.55,0.57-2.41,0.88c-0.94,0.34-1.82,0.66-2.6,0.96c-0.8,0.3-1.35,0.51-1.64,0.63
				l-0.19,0.08l-0.2,0.05C27.52,75.91,27.03,76.05,26.48,76.22z M75.3,121.94C75.3,121.94,75.3,121.94,75.3,121.94L75.3,121.94z
				 M76.78,115.77l0.03,0.02C76.79,115.79,76.78,115.78,76.78,115.77z M78.87,115.6c-0.01,0-0.02,0.01-0.02,0.01L78.87,115.6z
				 M54.71,112.22l0.01,0.02C54.72,112.24,54.72,112.23,54.71,112.22z M87.99,104.98l0.02,0.02C88,104.99,88,104.98,87.99,104.98z
				 M48.53,103.66C48.53,103.66,48.53,103.66,48.53,103.66C48.53,103.66,48.53,103.66,48.53,103.66z M85.75,103.32l0.02,0.01
				C85.77,103.32,85.76,103.32,85.75,103.32z M71.62,100.71c0.01,0,0.01,0,0.02,0.01L71.62,100.71z M51.02,100.3
				c0,0.01,0,0.02,0.01,0.03C51.03,100.32,51.03,100.31,51.02,100.3z M66.98,91.65C66.98,91.65,66.98,91.66,66.98,91.65
				C66.98,91.66,66.98,91.65,66.98,91.65z M45.27,87.54C45.27,87.54,45.27,87.55,45.27,87.54C45.27,87.55,45.27,87.54,45.27,87.54z
				 M51.85,86.61l0,0.04C51.85,86.63,51.85,86.62,51.85,86.61z M50.95,64.26c0,0.01,0,0.01,0,0.02L50.95,64.26z M50.95,64.14
				L50.95,64.14L50.95,64.14z M64.44,63.99c0,0.01,0,0.02,0,0.02L64.44,63.99z"/>
		</g>
		<g>
			<path class="st4" d="M93.16,99.43l-1.43-0.33c-0.3,0.02-0.62,0.03-0.96,0.04c-0.26,0-0.52,0.01-0.75,0.03
				c-0.49,0.03-0.86,0.03-1.25-0.06c-0.06-0.01-0.15-0.02-0.25-0.03c-0.31-0.03-0.65-0.08-1.02-0.15c-0.24-0.04-0.49-0.08-0.72-0.11
				c-0.39-0.05-0.7-0.1-0.95-0.16l-3.61-0.85c-0.02,0-0.05-0.01-0.08-0.01c-0.07-0.01-0.16-0.02-0.25-0.02
				c-0.17-0.01-0.33-0.02-0.49-0.02c-0.32-0.02-0.56-0.03-0.83-0.1c-0.06-0.01-0.18-0.05-0.36-0.1l-0.02,0.01l-0.33-0.08
				c-0.43,0.03-0.8,0.05-1.26-0.06c-0.26-0.06-0.5-0.15-0.76-0.28c-0.25,0.01-0.52-0.02-0.8-0.08l-0.63-0.15
				c-0.4-0.09-0.78-0.23-1.15-0.42c-0.3,0.02-0.63,0-0.98-0.08c-0.22-0.05-0.52-0.14-0.98-0.29c-0.41-0.13-0.54-0.16-0.54-0.16
				l-3.52-0.86l1.53-3.25c0-0.02,0.01-0.04,0.01-0.07c0.01-0.19,0.03-0.39,0.08-0.61l2.06-8.84l2.75,0.64
				c0.04,0,0.09,0.01,0.16,0.02c0.21,0.02,0.47,0.06,0.76,0.13c0.23,0.02,0.44,0.03,0.64,0.05c0.12-0.6,0.28-1.29,0.47-2.1
				c0.18-0.77,0.36-1.62,0.54-2.51c0.19-0.94,0.38-1.85,0.58-2.7c0.18-0.77,0.34-1.48,0.46-2.09c0.13-0.64,0.23-1.07,0.28-1.29
				c0.48-2.21,0.99-4.47,1.49-6.72c0.38-1.7,0.7-3.43,0.95-5.14l-1.31-0.31c-0.76-0.18-1.84-0.67-2.65-1.98l-0.25-0.4l-0.11-0.46
				c-0.12-0.49-0.1-0.95-0.07-1.33c0.02-0.27,0.05-0.56,0.1-0.85c0.03-0.2,0.06-0.38,0.09-0.56c0.04-0.26,0.07-0.46,0.12-0.64
				c0.02-0.08,0.08-0.31,0.19-0.68c0.09-0.32,0.2-0.67,0.32-1.05c0.12-0.36,0.23-0.7,0.33-1c0.05-0.15,0.09-0.26,0.11-0.33
				c0.04-0.17,0.1-0.36,0.17-0.59c0.03-0.11,0.07-0.25,0.11-0.41c0.04-0.16,0.07-0.31,0.08-0.43c0.04-0.27,0.08-0.47,0.12-0.65
				l0.28-1.19l2.39-1.49l7.55,2.05l9.59,2.01c0.15,0.03,0.39,0.1,0.74,0.2c0.31,0.09,0.65,0.2,1.01,0.31
				c0.35,0.12,0.67,0.22,0.96,0.32c0.15,0.05,0.25,0.09,0.33,0.11l0.87,0.2l0.58,0.64c0.85,0.91,1.22,2.12,1.01,3.31
				c-0.06,0.34-0.13,0.67-0.2,0.98l-0.26,1.11c-0.13,0.55-0.28,1.16-0.45,1.81c-0.15,0.6-0.3,1.2-0.44,1.79l-0.95,4.09l-4.77-0.88
				c-0.03,0.15-0.07,0.31-0.1,0.47c-0.13,0.61-0.25,1.16-0.37,1.68l-0.25,1.06c-0.65,2.8-1.4,5.61-2.23,8.33
				c-0.79,2.61-1.51,5.3-2.14,8c-0.18,0.75-0.37,1.49-0.57,2.2c0.23,0.03,0.46,0.06,0.68,0.09c0.47,0.07,0.79,0.13,1.05,0.19
				c0.68,0.16,1.29,0.48,1.83,0.95c0.99,0.88,1.39,2.19,1.08,3.51l-1.3,5.59c-0.15,0.63-0.47,1.19-0.97,1.66L93.16,99.43z
				 M88.71,99.09c0.01,0,0.03,0.01,0.04,0.01C88.74,99.09,88.72,99.09,88.71,99.09z M94.32,98.01l-0.03,0.03
				C94.3,98.03,94.31,98.02,94.32,98.01z M74.87,96.27C74.87,96.27,74.87,96.27,74.87,96.27C74.87,96.27,74.87,96.27,74.87,96.27z
				 M81.73,91.85c0.14,0.01,0.3,0.01,0.46,0.02c0.23,0.01,0.47,0.03,0.69,0.06c0.28,0.04,0.41,0.06,0.55,0.09l3.73,0.87
				c0,0,0.1,0.02,0.35,0.05c0.34,0.04,0.69,0.1,1.03,0.16c0.24,0.04,0.45,0.08,0.64,0.1c0.19,0.02,0.35,0.04,0.48,0.06
				c0.01,0,0.03,0,0.04,0c0.08,0,0.16-0.01,0.24-0.01l0.33-1.42c-0.1-0.01-0.2-0.02-0.3-0.03l-0.64,0.4l-2.45-0.58l-1.52-2.02
				l0.08-1.11c0.09-1.19,0.3-2.35,0.63-3.43c0.24-0.81,0.47-1.66,0.68-2.54c0.66-2.83,1.41-5.65,2.24-8.37
				c0.79-2.6,1.5-5.28,2.13-7.96l0.25-1.07c0.11-0.47,0.22-0.97,0.33-1.53c0.12-0.57,0.24-1.13,0.37-1.68l0.3-1.27l1.19-3.07
				l4.34,0.8c0.05-0.18,0.09-0.36,0.14-0.54c0.15-0.58,0.28-1.13,0.4-1.62c-0.06-0.02-0.13-0.04-0.19-0.06
				c-0.18-0.05-0.32-0.09-0.41-0.11l-9.72-2.05l-3.72-1.01c-0.02,0.07-0.05,0.15-0.08,0.24c-0.1,0.28-0.2,0.58-0.3,0.91
				c-0.09,0.28-0.17,0.54-0.24,0.78l0.22,0.05c0.49-0.03,0.87-0.03,1.28,0.07c0.57,0.13,1.36,0.48,2,1.36c0.7,0.84,1,1.89,0.83,2.94
				c-0.03,0.18-0.05,0.36-0.07,0.53l-0.01,0.06c-0.29,2.35-0.71,4.73-1.23,7.08c-0.51,2.24-1.01,4.49-1.49,6.7l-0.01,0.04
				c-0.05,0.2-0.13,0.59-0.25,1.18c-0.14,0.66-0.3,1.41-0.49,2.23c-0.18,0.79-0.36,1.63-0.54,2.51c-0.19,0.96-0.39,1.87-0.58,2.7
				c-0.19,0.81-0.34,1.48-0.46,2.06c-0.14,0.65-0.23,1.08-0.28,1.3l-0.11,0.47c0,0.01,0,0.02,0,0.03c-0.06,0.88-0.44,1.67-1.07,2.23
				c-0.6,0.53-1.37,0.81-2.19,0.79c0,0,0,0,0,0c-0.4,0-0.87-0.04-1.51-0.13c-0.12-0.02-0.25-0.03-0.41-0.05l-0.39,1.69
				c0.3,0.11,0.59,0.24,0.87,0.41l0.04,0.01c0.36-0.04,0.78-0.05,1.24,0.06c0.3,0.07,0.54,0.17,0.81,0.32c0.1,0,0.21,0,0.31,0
				c0.47,0,0.9,0.11,1.28,0.22C81.6,91.82,81.67,91.84,81.73,91.85z M75.73,82.97l0.03,0.01C75.75,82.98,75.74,82.97,75.73,82.97z
				 M84.47,60.88L84.47,60.88L84.47,60.88z M78.83,51.04c0,0.02-0.01,0.03-0.01,0.04C78.83,51.06,78.83,51.05,78.83,51.04z"/>
		</g>
		<g>
			<path class="st4" d="M116.3,136.21c-1.05,0-2.1-0.05-3.14-0.14c-2.48-0.21-4.83-0.54-6.99-0.98c-2.08-0.42-4-0.86-5.69-1.3
				c-1.56-0.41-2.76-0.69-3.57-0.84l-0.12-0.02c-0.08-0.02-0.2-0.04-0.38-0.06c-0.39-0.06-0.67-0.12-0.9-0.17
				c-1.08-0.25-1.94-0.63-2.61-1.14c-0.79-0.6-1.72-1.79-1.6-4l0.01-0.17l0.03-0.16c0.7-4.13,1.43-8.25,2.19-12.26
				c0.76-4.03,1.64-8.17,2.6-12.3l1.98-8.52c0.02-0.08,0.07-0.31,0.34-1.31c0.18-0.66,0.38-1.38,0.6-2.12
				c0.2-0.7,0.39-1.35,0.55-1.95c0.15-0.57,0.25-0.93,0.28-1.09l0.08-0.28c0.14-0.42,0.2-0.63,0.22-0.71l0.17-0.72
				c0.07-0.31,0.16-0.63,0.27-0.95c0.11-0.34,0.26-0.69,0.47-1.07l2.85-12.23c0.06-0.24,0.17-0.63,0.54-1.68
				c0.37-1.02,0.5-1.35,0.6-1.56l0.51-1.11l1.14-0.43c0.46-0.17,0.93-0.3,1.39-0.38c0.35-0.06,0.69-0.1,1.02-0.13l0.48-0.05
				l4.09,0.96c2.96,0.69,5.92,1.49,8.8,2.37c2.96,0.9,5.92,2.09,8.79,3.55c0.28,0.13,0.59,0.3,0.97,0.52
				c0.35,0.2,0.69,0.42,1.04,0.64c0.37,0.24,0.69,0.46,0.96,0.65c0.01,0.01,0.02,0.02,0.03,0.02l0.2,0.12
				c2.21,1.37,4.15,3.02,5.76,4.93c1.58,1.88,2.89,3.96,3.89,6.19c0.99,2.19,1.73,4.56,2.21,7.03c0.47,2.44,0.71,4.93,0.7,7.4
				c-0.02,2.7-0.31,5.46-0.88,8.2c-0.56,2.71-1.34,5.33-2.3,7.78c-0.96,2.44-2.07,4.7-3.3,6.72c-1.27,2.1-2.63,3.86-4.06,5.24
				c-2.29,2.23-4.82,3.94-7.51,5.06c-2.59,1.09-5.27,1.81-7.97,2.15C119.45,136.11,117.87,136.21,116.3,136.21z M98.02,127.17
				c0.95,0.18,2.24,0.48,3.93,0.92c1.59,0.41,3.4,0.83,5.37,1.23c1.94,0.39,4.07,0.69,6.34,0.89c2.17,0.19,4.4,0.14,6.63-0.14
				c2.17-0.27,4.33-0.86,6.44-1.74c2.01-0.84,3.92-2.14,5.69-3.86c1.06-1.03,2.11-2.39,3.12-4.06c1.05-1.74,2.01-3.71,2.86-5.84
				c0.84-2.13,1.52-4.42,2.01-6.8c0.49-2.36,0.74-4.72,0.75-7.02c0.01-2.08-0.2-4.18-0.6-6.25c-0.39-2.03-1-3.96-1.8-5.73
				c-0.78-1.73-1.8-3.35-3.03-4.81c-1.17-1.39-2.59-2.61-4.22-3.64c-0.25-0.13-0.47-0.29-0.71-0.46c-0.17-0.13-0.41-0.28-0.69-0.46
				c-0.29-0.18-0.58-0.36-0.86-0.53c-0.31-0.18-0.45-0.25-0.48-0.26l-0.11-0.05c-2.59-1.31-5.24-2.38-7.89-3.19
				c-2.75-0.84-5.59-1.6-8.43-2.27l-2.52-0.59c-0.15,0.43-0.19,0.57-0.19,0.58l-3.05,13.1l-0.25,0.41c-0.1,0.16-0.14,0.25-0.15,0.27
				c-0.05,0.16-0.09,0.31-0.12,0.45l-0.17,0.72c-0.07,0.32-0.18,0.68-0.33,1.14c-0.05,0.22-0.15,0.57-0.3,1.13
				c-0.17,0.64-0.37,1.34-0.59,2.08c-0.2,0.7-0.39,1.36-0.56,1.98c-0.16,0.59-0.26,0.97-0.29,1.12l-1.98,8.52
				c-0.94,4.05-1.8,8.1-2.55,12.06c-0.68,3.59-1.34,7.28-1.98,10.98c0,0,0.01,0,0.01,0C97.7,127.1,97.9,127.14,98.02,127.17z
				 M96.36,126.8L96.36,126.8L96.36,126.8z M114.28,126.12c-0.73,0-1.55-0.06-2.47-0.19c-0.74-0.1-1.21-0.1-1.49-0.08
				c-0.55,0.1-1.12,0.08-1.69-0.06l-2.86-0.67l0.67-2.87c1.26-5.4,2.5-10.67,3.68-15.67c1.22-5.15,2.32-10.4,3.27-15.59l0.01-0.08
				c0.02-0.1,0.04-0.27,0.07-0.5c0.05-0.41,0.11-0.87,0.18-1.35c0.07-0.49,0.14-0.97,0.22-1.41c0.12-0.66,0.15-0.81,0.17-0.87
				l0.16-0.7c0.11-0.48,0.65-2.09,2.78-2.42l3.23-0.47l1.01,0.85c0.07,0.06,0.25,0.21,0.51,0.46l0.51,0.12l0.05,0.07l0.18,0.04
				c0.4,0.09,0.77,0.19,1.11,0.3c0.14,0.05,0.25,0.08,0.31,0.1l0.4,0.1l0.4,0.25c1.47,0.91,2.7,1.87,3.67,2.87
				c0.82,0.85,1.71,1.84,2.65,2.93l0.17,0.2c0.05,0.06,0.14,0.15,0.28,0.28c0.25,0.24,0.41,0.4,0.5,0.48
				c0.43,0.36,0.72,0.8,1.03,1.35c0.13,0.24,0.23,0.4,0.28,0.49l0.15,0.28c0.75,1.55,1.3,3.1,1.62,4.6
				c0.32,1.48,0.47,2.97,0.47,4.43c-0.01,1.41-0.14,2.88-0.39,4.39c-0.24,1.42-0.54,2.92-0.9,4.47c-0.05,0.22-0.13,0.51-0.25,0.92
				c-0.07,0.22-0.11,0.36-0.13,0.43c-0.08,0.33-0.22,0.67-0.47,1.13c-0.11,0.21-0.25,0.46-0.4,0.74c-0.21,0.39-0.42,0.75-0.64,1.08
				c-0.13,0.2-0.23,0.34-0.28,0.42l-0.13,0.2c-2.17,3-4.81,5.23-7.85,6.62c-2.89,1.32-6.03,2.1-9.31,2.32l-0.1,0
				C114.54,126.12,114.41,126.12,114.28,126.12z M112.97,120.14c0.57,0.07,1.07,0.1,1.47,0.09c2.55-0.17,4.97-0.77,7.2-1.79
				c2.1-0.96,3.89-2.48,5.47-4.64c0.09-0.14,0.21-0.32,0.36-0.55c0.1-0.15,0.21-0.34,0.32-0.54c0.16-0.3,0.3-0.56,0.42-0.78
				c0,0,0-0.01,0-0.01c0.03-0.1,0.07-0.24,0.13-0.44c0.11-0.37,0.15-0.51,0.16-0.56c0.33-1.43,0.61-2.82,0.83-4.11
				c0.2-1.19,0.3-2.35,0.31-3.44c0-1.03-0.11-2.09-0.34-3.16c-0.21-1-0.59-2.05-1.1-3.14c-0.08-0.14-0.19-0.32-0.33-0.58
				c0-0.01-0.01-0.02-0.01-0.02c-0.12-0.11-0.27-0.26-0.48-0.47c-0.44-0.43-0.7-0.71-0.9-0.97c-0.83-0.97-1.62-1.84-2.34-2.58
				c-0.56-0.58-1.3-1.17-2.21-1.75c-0.04-0.01-0.08-0.03-0.12-0.04c-0.19-0.06-0.42-0.12-0.68-0.18l-0.94-0.22
				c-0.18-0.04-0.45-0.11-0.75-0.22c-0.06,0.4-0.11,0.78-0.15,1.13c-0.07,0.52-0.1,0.76-0.14,0.95c-0.97,5.28-2.09,10.61-3.33,15.85
				C114.91,111.87,113.95,115.96,112.97,120.14z M128.15,112.16c0,0.02-0.01,0.04-0.01,0.06
				C128.14,112.2,128.14,112.18,128.15,112.16z M128.26,111.83L128.26,111.83L128.26,111.83z M131.12,91.41L131.12,91.41
				L131.12,91.41z M113.42,90.85c0,0.01,0,0.01,0,0.02L113.42,90.85z M123.84,85.12l0.02,0C123.85,85.12,123.84,85.12,123.84,85.12z
				"/>
		</g>
		<g>
			<path class="st4" d="M167.32,126.1c-1.04,0-2.06-0.02-3.08-0.07c-2.59-0.13-5.27-0.57-7.97-1.33c-0.35-0.06-0.73-0.18-1.22-0.36
				l-1.22-0.45c-0.49-0.18-0.97-0.37-1.4-0.57c-0.33-0.15-0.58-0.26-0.75-0.34c-0.38-0.17-0.74-0.41-1.15-0.72
				c-0.32-0.25-0.67-0.52-1.02-0.81c-0.31-0.25-0.62-0.5-0.94-0.74c-0.35-0.27-0.65-0.51-0.9-0.74c-0.41-0.34-0.72-0.73-0.94-1.02
				c-0.28-0.36-0.41-0.49-0.44-0.52l-0.16-0.17c-0.25-0.28-0.49-0.63-0.77-1.13c-0.11-0.19-0.18-0.32-0.23-0.39
				c-0.16-0.24-0.34-0.54-0.59-0.98c-0.21-0.38-0.43-0.79-0.66-1.24c-0.21-0.41-0.41-0.81-0.6-1.19c-0.16-0.32-0.28-0.59-0.36-0.83
				c-0.15-0.31-0.25-0.64-0.3-0.99l-0.08-0.57c-0.07-0.48-0.02-0.96,0.13-1.41c0.22-0.81,0.71-1.41,0.93-1.69
				c0.41-0.5,0.67-0.79,0.92-1.01l0.14-0.13l7.72-5.22l1.23-0.15c1.23-0.04,2.44,0.48,3.6,1.55c0.65,0.61,1.33,1.31,2.01,2.1
				c0.61,0.71,1.21,1.4,1.82,2.09c0.57,0.64,0.91,0.88,1.03,0.96c1.33,0.8,2.8,1.37,4.34,1.7c1.6,0.34,3.16,0.46,4.64,0.36
				c1.08-0.07,1.97-0.18,2.65-0.33c0.34-0.07,0.51-0.15,0.58-0.19c0.04-0.17,0.11-0.55,0.08-1.29c-0.02-0.24,0-0.48,0.02-0.77
				c0.01-0.14,0.02-0.33,0.03-0.53c0.01-0.28,0.02-0.57,0.04-0.84c0.02-0.22-0.3-2.22-0.54-3.02c-0.19-0.61-0.47-1.1-0.85-1.49
				c-0.14-0.11-0.34-0.27-0.6-0.49c-0.34-0.28-0.72-0.57-1.12-0.88c-0.47-0.36-0.91-0.7-1.31-1.02c-0.3-0.24-0.43-0.34-0.47-0.36
				l-0.19-0.11c-0.08-0.04-0.25-0.13-0.56-0.27c-0.43-0.2-0.8-0.39-1.11-0.56c-0.05-0.02-0.09-0.03-0.13-0.05
				c-0.56-0.12-1.29-0.35-2.29-0.72c-0.83-0.31-1.73-0.63-2.74-0.98c-1.01-0.34-1.98-0.69-2.9-1.04c-1-0.38-1.38-0.48-1.47-0.5
				c-0.37-0.08-0.76-0.22-1.33-0.48c-0.29-0.13-0.63-0.27-0.99-0.4c-0.47-0.17-0.93-0.35-1.36-0.53c-0.42-0.18-0.75-0.33-1.02-0.47
				c-0.39-0.19-0.74-0.45-1.15-0.78c-0.08-0.07-0.15-0.12-0.21-0.17c-0.02-0.01-0.04-0.02-0.07-0.02c-0.36-0.12-0.59-0.2-0.69-0.23
				l-0.18-0.06L151,91.38c-1.11-0.56-2.01-1.14-2.74-1.77c-0.66-0.57-1.28-1.21-1.83-1.89c-0.53-0.66-1.05-1.41-1.51-2.22
				c-0.33-0.56-0.72-1.2-1.17-1.9c-0.25-0.29-0.47-0.64-0.65-1.04c-0.2-0.45-0.32-0.8-0.38-1.15c-0.02-0.11-0.07-0.34-0.15-0.68
				c-0.12-0.55-0.21-1.03-0.27-1.44c-0.43-2.41-0.44-4.61-0.05-6.53c0.38-1.88,1.16-3.86,2.32-5.91c1.06-1.89,2.5-3.54,4.28-4.89
				c1.65-1.25,3.49-2.32,5.47-3.17c1.95-0.84,4-1.48,6.09-1.91c2.01-0.41,3.99-0.69,5.9-0.82c0.27-0.02,0.6-0.02,1.39,0.02
				c0.74,0.03,1.27,0.09,1.68,0.16c0,0,0.01,0,0.01,0c0.4,0,0.81,0,1.23,0.01c0.42,0.01,0.81,0.03,1.17,0.05
				c0.08,0,0.15,0.01,0.2,0.01l0.06-0.01l0.29,0.02c1.29,0.08,2.38,0.85,3,2.11c0.06,0.12,0.11,0.21,0.14,0.28l0.19,0.27l0.13,0.4
				c0.25,0.77,0.44,1.43,0.58,2.04c0.11,0.5,0.22,0.99,0.33,1.47c0.12,0.54,0.23,1.08,0.33,1.61c0.1,0.54,0.19,1.13,0.28,1.78
				l0.59,3.35c0.24,1.76-0.93,3.34-2.68,3.6c-0.08,0.01-0.27,0.05-0.56,0.11c-0.44,0.09-0.93,0.16-1.48,0.24l-2.14,0.3
				c-1.14,0.2-2.35,0.45-3.59,0.74c-1.03,0.24-1.96,0.6-2.75,1.05c-0.59,0.34-1.03,0.77-1.35,1.31c-0.2,0.34-0.22,0.97-0.07,1.77
				c0.08,0.41,0.22,0.74,0.47,1.05c0.34,0.44,0.74,0.82,1.22,1.15c0.58,0.39,1.2,0.74,1.87,1.02c0.72,0.3,1.39,0.54,2.01,0.7
				l0.22,0.07c0.19,0.07,0.62,0.22,1.29,0.47c0.62,0.23,1.28,0.47,1.96,0.71c0.77,0.28,1.45,0.53,2.06,0.77
				c0.33,0.13,0.52,0.19,0.61,0.22l0.03,0l0.2,0.05c0.24,0.06,0.59,0.16,1.03,0.28c0.47,0.14,0.75,0.22,0.85,0.26l0.48,0.16
				l0.2,0.16c0.02,0.01,0.05,0.02,0.07,0.03c0.29,0.13,0.6,0.28,0.94,0.45c0.32,0.16,0.62,0.32,0.89,0.47
				c0.22,0.12,0.38,0.2,0.49,0.25l0.15,0.08c0.18,0.1,0.48,0.27,0.91,0.5c0.47,0.26,0.96,0.54,1.5,0.84
				c0.54,0.31,1.06,0.62,1.57,0.93c0.54,0.33,0.81,0.47,0.92,0.52l1.49,1.18c0.78,0.81,1.47,1.57,2.05,2.27
				c0.72,0.85,1.35,1.74,1.88,2.64c0.55,0.94,1.01,1.95,1.37,3.01c0.33,1,0.62,2.16,0.85,3.47c0.28,1.35,0.44,2.58,0.49,3.67
				c0.05,1.15-0.03,2.42-0.25,3.76l-0.04,0.2c-0.15,0.62-0.19,0.93-0.21,1.05c-0.09,0.73-0.37,1.44-0.84,2.15l0.03,0.22l-0.47,0.85
				c-0.75,1.37-1.52,2.6-2.28,3.64c-0.82,1.12-1.76,2.13-2.78,2.99c-1.01,0.86-2.16,1.63-3.42,2.29c-1.16,0.61-2.49,1.18-3.98,1.71
				c-0.29,0.12-0.64,0.23-1.15,0.35c-0.56,0.14-0.85,0.2-1.09,0.23l-0.2,0.02l-4.62,0.31C170.49,126.05,168.89,126.1,167.32,126.1z
				 M157.33,118.89l0.13,0.01l0.25,0.07c2.33,0.66,4.63,1.06,6.83,1.16c2.31,0.11,4.71,0.08,7.15-0.09l4.46-0.3
				c0.08-0.02,0.21-0.05,0.46-0.11c0.16-0.04,0.25-0.07,0.31-0.08l0.03-0.02l0.16-0.06c1.26-0.45,2.38-0.92,3.32-1.41
				c0.87-0.46,1.66-0.98,2.34-1.56c0.67-0.57,1.3-1.25,1.85-2c0.54-0.74,1.1-1.61,1.65-2.6c0.08-0.26,0.18-0.49,0.27-0.7
				c0.05-0.11,0.09-0.21,0.12-0.27l0.14-0.42l0.29-0.38c0.01-0.01,0.01-0.02,0.02-0.03c0.06-0.35,0.14-0.78,0.25-1.27
				c0.14-0.9,0.2-1.73,0.17-2.44c-0.04-0.78-0.17-1.72-0.39-2.78l-0.02-0.09c-0.18-1.03-0.39-1.92-0.64-2.65
				c-0.22-0.67-0.51-1.3-0.85-1.88c-0.37-0.62-0.81-1.24-1.32-1.85c-0.52-0.61-1.14-1.3-1.85-2.04c-0.06-0.04-0.12-0.08-0.18-0.12
				c-0.28-0.15-0.61-0.34-0.98-0.57c-0.47-0.29-0.96-0.57-1.46-0.86c-0.49-0.28-0.95-0.54-1.38-0.78c-0.4-0.22-0.7-0.38-0.9-0.49
				c-0.16-0.08-0.37-0.19-0.63-0.33c-0.23-0.12-0.49-0.26-0.77-0.4c-0.27-0.14-0.51-0.25-0.74-0.36c-0.14-0.06-0.26-0.12-0.37-0.18
				c-0.11-0.03-0.24-0.07-0.41-0.12c-0.29-0.08-0.54-0.15-0.73-0.2c-0.41-0.08-0.88-0.23-1.65-0.53c-0.56-0.22-1.18-0.45-1.9-0.7
				c-0.71-0.25-1.4-0.5-2.05-0.74c-0.51-0.19-0.86-0.32-1.07-0.39c-0.86-0.23-1.77-0.55-2.7-0.94c-1.02-0.43-1.99-0.96-2.89-1.57
				c-0.99-0.68-1.86-1.49-2.57-2.42c-0.81-1.05-1.34-2.24-1.58-3.54c-0.44-2.26-0.18-4.24,0.77-5.86c0.84-1.43,2.01-2.6,3.5-3.45
				c1.28-0.74,2.73-1.3,4.32-1.68c1.37-0.32,2.71-0.6,3.98-0.82l0.1-0.02l1.44-0.2l-0.12-0.71c-0.08-0.59-0.16-1.13-0.25-1.6
				c-0.08-0.45-0.17-0.91-0.28-1.36c-0.11-0.48-0.22-0.98-0.33-1.49c-0.04-0.17-0.09-0.36-0.14-0.56c-0.02,0-0.04,0-0.05,0
				c-0.34-0.01-0.67-0.01-0.99-0.01c-0.33,0-0.78,0.01-1.28-0.11c-0.13-0.01-0.36-0.03-0.76-0.05c-0.44-0.02-0.63-0.02-0.7-0.03
				c-1.65,0.11-3.38,0.35-5.14,0.71c-1.71,0.35-3.37,0.87-4.95,1.56c-1.55,0.67-2.98,1.49-4.25,2.46c-1.15,0.87-2.04,1.88-2.71,3.08
				c-0.86,1.52-1.42,2.92-1.68,4.2c-0.25,1.21-0.22,2.68,0.08,4.37l0.02,0.12c0.02,0.18,0.08,0.51,0.19,1.02
				c0.06,0.25,0.1,0.43,0.13,0.57l0.08,0.12c0.57,0.88,1.08,1.69,1.49,2.41c0.32,0.55,0.65,1.04,1,1.46
				c0.33,0.41,0.7,0.79,1.11,1.15c0.23,0.2,0.64,0.5,1.35,0.87c0.11,0.04,0.27,0.09,0.47,0.16c0.71,0.24,1.14,0.45,1.51,0.73
				l0.05,0.04c0.05,0.04,0.24,0.2,0.57,0.47c0.05,0.04,0.09,0.07,0.13,0.1l0.01,0.01c0.01,0,0.14,0.08,0.56,0.25
				c0.35,0.14,0.71,0.29,1.1,0.43c0.51,0.19,0.98,0.37,1.4,0.57c0.14,0.06,0.23,0.1,0.28,0.12c0.5,0.12,1.17,0.34,2.17,0.72
				c0.86,0.32,1.79,0.65,2.74,0.98c1.07,0.37,2.02,0.7,2.91,1.04c0.8,0.3,1.2,0.42,1.36,0.46c0.14,0.02,0.27,0.05,0.4,0.08
				l0.41-0.06l0.9,0.57c0.1,0.06,0.36,0.21,0.91,0.47c0.64,0.3,0.99,0.49,1.25,0.66c0.31,0.19,0.67,0.45,1.14,0.83
				c0.36,0.29,0.75,0.6,1.17,0.92c0.45,0.34,0.88,0.68,1.27,1c0.32,0.26,0.52,0.42,0.61,0.49l0.13,0.1l0.13,0.12
				c1.16,1.11,2,2.49,2.5,4.12c0.36,1.16,0.67,2.23,0.93,3.17l0.05,0.19l0.03,0.2c0.06,0.43,0.03,0.86-0.08,1.3l-0.18,0.92
				c-0.01,0.32-0.02,0.59-0.04,0.83c0,0.03,0,0.06-0.01,0.08c0.04,1.18-0.05,2.18-0.28,3.05c-0.31,1.16-0.92,2.14-1.81,2.91
				c-0.82,0.71-1.9,1.22-3.2,1.5c-0.97,0.21-2.12,0.36-3.51,0.45c-2.02,0.13-4.11-0.03-6.23-0.48c-2.18-0.46-4.25-1.27-6.17-2.42
				c-0.8-0.49-1.57-1.17-2.39-2.1c-0.62-0.7-1.24-1.42-1.87-2.14c-0.36-0.42-0.71-0.8-1.05-1.14l-5,3.38
				c0.12,0.25,0.25,0.5,0.39,0.77c0.2,0.39,0.38,0.74,0.57,1.06c0.23,0.41,0.31,0.53,0.32,0.54l0.02,0.03
				c0.07,0.1,0.18,0.28,0.45,0.76c0.04,0.07,0.07,0.12,0.09,0.16c0.25,0.26,0.51,0.57,0.81,0.95c0.03,0.04,0.07,0.08,0.09,0.12
				l0.11,0.11c0.07,0.06,0.22,0.2,0.55,0.45c0.37,0.28,0.74,0.57,1.1,0.86c0.31,0.25,0.6,0.48,0.86,0.68
				c0.05,0.04,0.1,0.07,0.14,0.1c0.13,0.06,0.33,0.15,0.62,0.28c0.31,0.14,0.64,0.27,1,0.4l1.24,0.45
				C157.2,118.85,157.29,118.88,157.33,118.89z M176.81,119.6c-0.01,0-0.02,0.01-0.03,0.01L176.81,119.6z M157.21,118.88l0.02,0
				C157.22,118.88,157.21,118.88,157.21,118.88z M154.29,117.71C154.29,117.71,154.29,117.71,154.29,117.71
				S154.29,117.71,154.29,117.71z M153.05,107.05L153.05,107.05L153.05,107.05z M169.25,98.65c0.01,0.01,0.02,0.02,0.03,0.03
				L169.25,98.65z M185.29,89.98c0.01,0,0.02,0.01,0.03,0.01C185.31,89.99,185.3,89.99,185.29,89.98z M159.57,88.9
				C159.57,88.9,159.57,88.9,159.57,88.9C159.57,88.9,159.57,88.9,159.57,88.9z M159.4,88.85l0.05,0.01c0.01,0,0.02,0,0.03,0.01
				C159.45,88.87,159.42,88.86,159.4,88.85z M159.33,88.84l0.04,0.01C159.36,88.85,159.35,88.84,159.33,88.84z M175.08,84.94
				L175.08,84.94L175.08,84.94z M175.08,84.94L175.08,84.94L175.08,84.94z M174.82,84.89l0.04,0
				C174.85,84.89,174.84,84.89,174.82,84.89z M142.69,81.31c0,0,0,0.03,0.01,0.07C142.7,81.36,142.7,81.33,142.69,81.31z
				 M166.81,61.92l-0.06,0C166.77,61.92,166.79,61.92,166.81,61.92z M166.95,61.91l-0.05,0.01
				C166.91,61.91,166.93,61.91,166.95,61.91z M175.42,58.62l0.01,0.02C175.43,58.63,175.43,58.63,175.42,58.62z"/>
		</g>
		<g>
			<g>
				<path class="st5" d="M43.91,134.26l-10.39-31.18l-0.12-0.3c-0.13-0.32-0.4-1.08-0.83-2.3c-0.42-1.22-0.88-2.52-1.38-3.92
					c-0.49-1.4-0.95-2.7-1.38-3.92c-0.42-1.22-0.7-1.98-0.83-2.3c-0.22-0.56-0.62-1.55-1.18-2.99c-0.56-1.44-1.16-2.96-1.81-4.57
					c-0.65-1.61-1.27-3.12-1.86-4.52c-0.59-1.4-1.65-2.85-1.03-3.76c0.41-0.59,1.13-0.66,1.97-0.93c0.84-0.27,1.55-0.48,2.13-0.63
					c0.32-0.13,0.88-0.35,1.71-0.66c0.82-0.31,1.7-0.63,2.65-0.97c0.95-0.34,1.83-0.66,2.65-0.97c0.82-0.31,1.39-0.53,1.71-0.66
					l0.42,0.18c0.06,0.02,0.19,0.2,0.39,0.54c0.2,0.33,0.43,0.73,0.68,1.18c0.25,0.45,0.51,0.92,0.77,1.39
					c0.26,0.47,0.45,0.87,0.58,1.19l1.33,3.28c0.19,0.48,0.53,1.29,1.02,2.43c0.49,1.15,1,2.37,1.55,3.67
					c0.55,1.3,1.08,2.52,1.58,3.66c0.51,1.14,0.86,1.94,1.05,2.42c0.37,0.22,0.73,0.28,1.08,0.19c0.35-0.1,0.69-0.21,1-0.34
					c0.22-0.14,0.4-0.35,0.54-0.64c0.14-0.29,0.25-0.58,0.34-0.87c0.09-0.29,0.18-0.57,0.28-0.84c0.1-0.27,0.22-0.51,0.37-0.71
					c0.01-0.1,0.04-0.26,0.11-0.5c0.07-0.24,0.14-0.48,0.22-0.75c0.08-0.26,0.15-0.5,0.23-0.72c0.07-0.21,0.12-0.37,0.12-0.47
					c0.02-0.05,0.08-0.2,0.18-0.42c0.09-0.22,0.2-0.48,0.31-0.78c0.11-0.3,0.21-0.56,0.31-0.78c0.09-0.22,0.15-0.36,0.18-0.42
					c0.02-0.05,0.04-0.2,0.06-0.44c0.02-0.24,0.05-0.48,0.09-0.73c0.04-0.25,0.07-0.48,0.1-0.7c0.03-0.22,0.05-0.36,0.08-0.41
					c0.02-0.05,0.09-0.2,0.21-0.43c0.11-0.23,0.22-0.49,0.31-0.78c0.09-0.29,0.19-0.56,0.29-0.81c0.11-0.25,0.17-0.4,0.19-0.46
					c-0.02-0.04-0.02-0.16-0.01-0.38c0.01-0.21,0.03-0.32,0.07-0.34c0.05-0.21,0.16-0.77,0.32-1.69c0.16-0.92,0.34-1.91,0.53-2.96
					c0.2-1.05,0.38-2.05,0.55-3c0.17-0.95,0.27-1.55,0.31-1.79c0.05-0.11,0.06-0.3,0.05-0.57l0.04-0.08l-0.02-0.06
					c0.02-0.19,0.05-0.51,0.1-0.94c0.05-0.44,0.08-0.73,0.07-0.86c0.11-0.41,0.21-0.85,0.3-1.3c0.08-0.26,0.12-0.56,0.13-0.88
					l0.65-0.27c2.22-0.9,4.43-1.74,6.63-2.52c2.2-0.78,4.39-1.61,6.57-2.5l0.1,0.24c-0.13,1.16-0.24,2.14-0.34,2.92
					c-0.1,0.78-0.2,1.59-0.3,2.41c-0.1,0.83-0.19,1.51-0.25,2.04c-0.01,0.1-0.05,0.31-0.12,0.64c-0.07,0.33-0.14,0.68-0.2,1.05
					c-0.06,0.37-0.12,0.72-0.2,1.05c-0.07,0.33-0.11,0.54-0.12,0.64c0.02,0.04,0.01,0.19-0.02,0.46c-0.03,0.27-0.07,0.57-0.11,0.91
					c-0.05,0.34-0.08,0.69-0.1,1.05c-0.02,0.35-0.03,0.63-0.05,0.82c-0.02,0.06-0.03,0.18-0.03,0.36c0,0.18,0,0.3-0.03,0.36
					c-0.58,3.01-1.06,6.03-1.43,9.05c-0.37,3.02-0.59,6.1-0.66,9.23c-0.03,0.38-0.09,0.75-0.17,1.11c-0.09,0.36-0.04,0.76,0.14,1.19
					l0.1,0.24c0.03,0.08,0.08,0.13,0.13,0.15c0.07,0.06,0.25,0.17,0.55,0.33c0.29,0.16,0.5,0.26,0.61,0.31
					c0.29,0.25,0.76,0.6,1.43,1.05c0.67,0.45,1.37,0.9,2.11,1.36c0.74,0.46,1.45,0.91,2.14,1.35c0.68,0.44,1.17,0.79,1.46,1.04
					c0.17,0.07,0.51,0.28,1.02,0.63c0.51,0.35,1.06,0.73,1.64,1.14c0.58,0.41,1.16,0.81,1.73,1.2c0.57,0.39,1,0.7,1.27,0.91
					c0.06,0.02,0.2,0.12,0.42,0.28c0.23,0.16,0.47,0.33,0.72,0.5c0.25,0.17,0.51,0.35,0.76,0.52c0.25,0.17,0.41,0.27,0.47,0.3
					c0.13,0.09,0.36,0.25,0.71,0.47c0.35,0.23,0.72,0.48,1.14,0.75c0.41,0.27,0.8,0.54,1.16,0.81c0.36,0.27,0.63,0.44,0.79,0.51
					c0.02,0.04,0.1,0.12,0.24,0.25c0.14,0.13,0.3,0.25,0.46,0.37c0.16,0.12,0.31,0.23,0.45,0.34c0.14,0.11,0.23,0.17,0.29,0.2
					c0.07,0.06,0.22,0.17,0.44,0.31c0.22,0.14,0.47,0.3,0.74,0.46c0.27,0.17,0.55,0.33,0.82,0.5c0.27,0.17,0.48,0.29,0.6,0.38
					c0.36,0.32,0.73,0.58,1.12,0.79c0.39,0.21,0.78,0.45,1.18,0.7c0.4,0.25,0.8,0.53,1.2,0.83c0.4,0.3,0.79,0.7,1.17,1.19l-7.6,3.79
					c-0.89,0.08-1.72,0.38-2.48,0.87c-0.77,0.5-1.62,0.84-2.56,1.04c-0.02-0.04-0.13,0-0.34,0.1c-0.21,0.11-0.34,0.17-0.37,0.19
					l-2.43,1.68c-0.09-0.1-0.25-0.25-0.5-0.46c-0.24-0.2-0.51-0.42-0.81-0.64c-0.3-0.23-0.59-0.42-0.86-0.59
					c-0.27-0.17-0.45-0.28-0.52-0.34c-2.13-1.49-4.16-2.97-6.11-4.42c-1.95-1.45-3.87-2.87-5.77-4.25c-1.9-1.38-3.82-2.71-5.77-4
					c-1.95-1.29-3.99-2.52-6.13-3.69c-0.33-0.14-0.61-0.27-0.82-0.4c-0.21-0.12-0.4-0.22-0.57-0.29c-0.17-0.07-0.33-0.12-0.48-0.15
					c-0.15-0.03-0.36-0.04-0.63-0.02c-0.31,0.03-0.43,0.16-0.36,0.39c0.07,0.23,0.14,0.56,0.23,0.98c0.02,0.18,0.11,0.43,0.24,0.77
					c0.14,0.34,0.21,0.57,0.22,0.71l0.63,1.55c0.06,0.16,0.17,0.5,0.31,1.02c0.14,0.52,0.29,1.09,0.44,1.69
					c0.15,0.61,0.3,1.17,0.44,1.69c0.14,0.52,0.24,0.86,0.31,1.02c0.03,0.08,0.1,0.25,0.2,0.51c0.1,0.26,0.21,0.54,0.31,0.85
					c0.1,0.31,0.2,0.6,0.29,0.89c0.09,0.29,0.15,0.45,0.16,0.49c0.87,2.61,1.7,5.18,2.5,7.73c0.8,2.55,1.6,5.09,2.39,7.63
					c-0.01,0.1-0.06,0.21-0.17,0.35c-0.11,0.14-0.17,0.23-0.2,0.29c-0.18,0.12-0.48,0.31-0.88,0.57c-0.4,0.26-0.65,0.4-0.72,0.43
					l-10.04,4.09L43.91,134.26z"/>
			</g>
			<g>
				<path class="st2" d="M95.16,61.55c-0.05,0.21-0.13,0.56-0.25,1.06c-0.12,0.5-0.23,1.04-0.35,1.6c-0.12,0.57-0.23,1.1-0.35,1.6
					c-0.12,0.5-0.2,0.86-0.25,1.06c-0.64,2.75-1.37,5.47-2.18,8.15c-0.81,2.68-1.54,5.41-2.19,8.19c-0.22,0.95-0.46,1.86-0.73,2.73
					c-0.27,0.87-0.44,1.8-0.51,2.78l0.21,0.28l0.22,0.05c0.04-0.02,0.09-0.05,0.16-0.08c0.07-0.03,0.11-0.06,0.11-0.09
					c0.2-0.05,0.47-0.06,0.83-0.04c0.35,0.02,0.73,0.05,1.12,0.1c0.39,0.05,0.77,0.1,1.13,0.15c0.36,0.05,0.63,0.1,0.81,0.14
					c0.21,0.05,0.39,0.15,0.56,0.3c0.17,0.15,0.22,0.36,0.16,0.62l-1.3,5.59c-0.01,0.06-0.06,0.13-0.14,0.2
					c-0.08,0.07-0.14,0.14-0.18,0.19c-0.06-0.01-0.22-0.01-0.47,0.01c-0.25,0.02-0.54,0.03-0.85,0.04c-0.31,0.01-0.6,0.02-0.87,0.03
					c-0.27,0.02-0.43,0.02-0.49,0c-0.09-0.02-0.26-0.05-0.52-0.08c-0.26-0.03-0.54-0.07-0.83-0.12c-0.3-0.05-0.59-0.1-0.88-0.14
					c-0.29-0.04-0.5-0.07-0.65-0.11c-0.09-0.02-0.31-0.07-0.66-0.16c-0.35-0.08-0.74-0.17-1.17-0.27c-0.43-0.1-0.83-0.19-1.19-0.28
					c-0.37-0.09-0.6-0.14-0.69-0.16c-0.03-0.01-0.12-0.02-0.27-0.04c-0.15-0.02-0.31-0.03-0.48-0.04c-0.17-0.01-0.34-0.02-0.51-0.03
					c-0.17-0.01-0.27-0.02-0.3-0.02c-0.06-0.01-0.23-0.06-0.53-0.15c-0.29-0.08-0.47-0.12-0.54-0.1c-0.06-0.01-0.22-0.01-0.47,0.01
					c-0.25,0.02-0.39,0.02-0.42,0.02c-0.06-0.01-0.21-0.09-0.44-0.22c-0.23-0.13-0.37-0.2-0.39-0.21c-0.06-0.01-0.19,0-0.38,0.03
					c-0.19,0.03-0.32,0.04-0.38,0.03l-0.62-0.15c-0.24-0.06-0.46-0.15-0.66-0.27c-0.2-0.13-0.42-0.22-0.66-0.27l-0.13-0.03
					c-0.04,0.02-0.14,0.04-0.32,0.07c-0.18,0.02-0.29,0.02-0.35,0.01c-0.15-0.03-0.4-0.11-0.76-0.23c-0.36-0.12-0.62-0.19-0.76-0.23
					c0.12-0.25,0.19-0.46,0.22-0.63c0.02-0.17,0.05-0.29,0.07-0.38c0-0.12,0-0.2,0.01-0.23l1.39-5.99c0.06,0.01,0.2,0.03,0.43,0.05
					c0.23,0.02,0.38,0.06,0.46,0.11c0.95,0.07,1.68,0.14,2.19,0.21c0.51,0.07,0.89,0.11,1.14,0.1c0.18,0.01,0.28-0.07,0.29-0.26
					c0.01-0.18,0.02-0.31,0.04-0.37l0.14-0.62c0.05-0.21,0.14-0.62,0.26-1.23c0.13-0.61,0.28-1.32,0.47-2.13
					c0.19-0.81,0.38-1.68,0.56-2.61c0.18-0.92,0.37-1.79,0.56-2.61c0.19-0.81,0.35-1.53,0.48-2.16c0.13-0.62,0.22-1.04,0.27-1.25
					c0.49-2.23,0.98-4.46,1.49-6.71c0.51-2.25,0.9-4.51,1.18-6.79c0.03-0.24,0.06-0.48,0.09-0.7c0.04-0.23-0.05-0.44-0.25-0.64
					c-0.11-0.18-0.23-0.29-0.35-0.32c-0.06-0.01-0.22-0.01-0.47,0.01c-0.25,0.02-0.39,0.02-0.42,0.02l-1.33-0.31
					c-0.35-0.08-0.69-0.16-1.02-0.24c-0.32-0.08-0.6-0.3-0.83-0.66c-0.02-0.07-0.02-0.2,0-0.4c0.02-0.2,0.04-0.4,0.07-0.61
					c0.03-0.21,0.06-0.41,0.09-0.59c0.03-0.18,0.05-0.32,0.07-0.4c0.01-0.06,0.06-0.23,0.15-0.53c0.08-0.29,0.18-0.61,0.29-0.96
					c0.11-0.35,0.22-0.67,0.32-0.96c0.1-0.29,0.16-0.48,0.18-0.57c0.02-0.09,0.06-0.23,0.12-0.42c0.06-0.19,0.12-0.4,0.17-0.64
					c0.06-0.24,0.1-0.45,0.13-0.65c0.03-0.2,0.06-0.34,0.08-0.43l0.27-0.17l6.4,1.73l9.6,2.02c0.12,0.03,0.31,0.08,0.59,0.16
					c0.28,0.08,0.58,0.18,0.91,0.28c0.33,0.11,0.63,0.21,0.91,0.31c0.27,0.1,0.47,0.16,0.59,0.18c0.22,0.24,0.31,0.5,0.26,0.79
					c-0.05,0.28-0.11,0.56-0.17,0.83c-0.05,0.21-0.13,0.58-0.26,1.11s-0.27,1.12-0.43,1.75c-0.16,0.63-0.32,1.25-0.46,1.86
					c-0.14,0.61-0.25,1.06-0.32,1.35l-4.69-0.87L95.16,61.55z"/>
			</g>
			<g>
				<path class="st6" d="M94.23,127.72c0.69-4.11,1.42-8.18,2.18-12.21c0.76-4.03,1.62-8.09,2.57-12.18l1.98-8.52
					c0.04-0.17,0.14-0.57,0.32-1.21c0.17-0.64,0.36-1.32,0.57-2.05c0.21-0.72,0.4-1.39,0.57-2.01c0.17-0.62,0.27-1.02,0.31-1.18
					c0.14-0.41,0.24-0.74,0.3-0.99c0.06-0.25,0.11-0.49,0.17-0.72c0.05-0.23,0.12-0.47,0.2-0.71c0.08-0.25,0.22-0.54,0.44-0.89
					l2.95-12.65c0.05-0.21,0.2-0.66,0.45-1.35c0.25-0.69,0.42-1.14,0.51-1.33c0.29-0.11,0.57-0.19,0.84-0.23
					c0.27-0.05,0.55-0.08,0.81-0.11l3.62,0.85c2.91,0.68,5.79,1.45,8.61,2.32c2.83,0.86,5.62,1.99,8.37,3.38
					c0.2,0.09,0.45,0.23,0.76,0.41c0.31,0.18,0.63,0.38,0.95,0.59c0.32,0.21,0.6,0.39,0.83,0.56c0.23,0.16,0.36,0.25,0.4,0.26
					c1.96,1.21,3.64,2.65,5.05,4.32c1.41,1.67,2.56,3.51,3.46,5.5c0.9,1.99,1.56,4.12,2,6.38c0.44,2.26,0.66,4.54,0.65,6.82
					c-0.01,2.51-0.29,5.04-0.82,7.6c-0.53,2.56-1.25,4.99-2.16,7.29c-0.91,2.3-1.93,4.39-3.08,6.28c-1.14,1.89-2.34,3.44-3.58,4.64
					c-2.04,1.99-4.24,3.48-6.6,4.46c-2.36,0.99-4.76,1.64-7.2,1.95c-2.44,0.31-4.86,0.36-7.25,0.15c-2.39-0.21-4.61-0.52-6.66-0.93
					c-2.05-0.42-3.9-0.84-5.53-1.26c-1.64-0.43-2.89-0.72-3.78-0.89c-0.08-0.02-0.27-0.05-0.57-0.1c-0.3-0.05-0.53-0.09-0.69-0.13
					c-0.67-0.16-1.17-0.36-1.5-0.62C94.33,128.95,94.19,128.46,94.23,127.72z M116.98,87.13l-0.07,0.31
					c-0.02,0.08-0.07,0.33-0.14,0.73c-0.07,0.4-0.14,0.84-0.21,1.31c-0.07,0.47-0.12,0.91-0.17,1.31c-0.05,0.41-0.09,0.65-0.11,0.74
					c-0.97,5.28-2.07,10.53-3.3,15.74c-1.24,5.22-2.46,10.43-3.68,15.65c0.21,0.05,0.4,0.05,0.59,0.01c0.63-0.07,1.4-0.04,2.32,0.08
					c0.91,0.13,1.7,0.18,2.37,0.16c2.94-0.19,5.7-0.88,8.28-2.06c2.58-1.18,4.81-3.07,6.69-5.67c0.07-0.12,0.19-0.3,0.36-0.54
					c0.17-0.25,0.33-0.52,0.49-0.81c0.16-0.29,0.29-0.55,0.41-0.76c0.12-0.21,0.18-0.36,0.2-0.45c0.01-0.04,0.06-0.23,0.16-0.56
					c0.1-0.33,0.17-0.58,0.21-0.74c0.35-1.5,0.64-2.93,0.87-4.29c0.23-1.36,0.34-2.66,0.35-3.91c0.01-1.25-0.13-2.52-0.4-3.79
					c-0.27-1.28-0.74-2.58-1.39-3.93c-0.06-0.1-0.18-0.31-0.35-0.61c-0.17-0.3-0.29-0.49-0.37-0.55c-0.07-0.06-0.29-0.27-0.65-0.61
					c-0.36-0.35-0.57-0.57-0.63-0.68c-0.9-1.05-1.74-1.98-2.54-2.81c-0.8-0.82-3.29-2.47-3.55-2.55c-0.27-0.08-0.57-0.17-0.9-0.24
					c-0.33-0.08-0.65-0.15-0.94-0.22c-0.29-0.07-3.43-0.8-3.43-0.8c-0.23,0.04-0.35,0.09-0.37,0.18
					C117.04,86.84,117.02,86.97,116.98,87.13z"/>
			</g>
			<g>
				<path class="st7" d="M145.49,110.79l-0.03-0.25c-0.01-0.04,0.01-0.09,0.05-0.14c-0.02-0.13,0.11-0.36,0.39-0.7
					c0.28-0.34,0.47-0.56,0.59-0.67l6.99-4.73l0.25-0.04c0.43-0.02,0.93,0.24,1.5,0.77c0.57,0.53,1.16,1.15,1.78,1.87
					c0.62,0.72,1.23,1.42,1.84,2.12c0.61,0.7,1.18,1.2,1.7,1.52c1.65,0.99,3.4,1.67,5.27,2.07s3.68,0.53,5.43,0.42
					c1.24-0.08,2.27-0.22,3.09-0.39c0.82-0.18,1.45-0.46,1.89-0.85c0.44-0.39,0.74-0.87,0.9-1.46c0.16-0.58,0.22-1.33,0.18-2.23
					c-0.01-0.04,0-0.16,0.02-0.36c0.02-0.2,0.03-0.43,0.04-0.69c0.01-0.26,0.02-0.49,0.04-0.69c0.02-0.2,0.04-0.32,0.08-0.37
					c-0.01-0.04-0.39-2.62-0.74-3.76c-0.35-1.14-0.92-2.09-1.72-2.85c-0.1-0.07-0.33-0.26-0.69-0.55c-0.36-0.3-0.76-0.61-1.2-0.94
					c-0.43-0.33-0.84-0.65-1.23-0.97c-0.39-0.31-0.68-0.52-0.86-0.63c-0.1-0.07-0.41-0.24-0.94-0.49c-0.53-0.25-0.94-0.46-1.22-0.64
					c-0.04,0.01-0.14-0.02-0.3-0.09c-0.16-0.06-0.26-0.09-0.3-0.09c-0.4-0.08-1.04-0.28-1.93-0.61c-0.89-0.33-1.83-0.67-2.82-1.01
					c-1-0.34-1.94-0.67-2.82-1.01c-0.89-0.33-1.51-0.54-1.86-0.62c-0.13-0.02-0.38-0.12-0.75-0.29c-0.37-0.17-0.77-0.33-1.2-0.48
					c-0.43-0.16-0.84-0.32-1.23-0.48c-0.39-0.16-0.68-0.3-0.86-0.4c-0.09-0.03-0.28-0.17-0.57-0.41c-0.29-0.24-0.46-0.38-0.51-0.42
					c-0.1-0.07-0.33-0.17-0.69-0.29c-0.36-0.12-0.59-0.2-0.68-0.23c-0.88-0.44-1.59-0.89-2.13-1.36c-0.54-0.47-1.03-0.97-1.47-1.52
					c-0.44-0.54-0.86-1.16-1.26-1.84c-0.4-0.68-0.87-1.44-1.41-2.27c-0.1-0.07-0.19-0.21-0.28-0.42c-0.09-0.2-0.14-0.35-0.16-0.43
					c-0.01-0.04-0.07-0.32-0.18-0.82c-0.11-0.5-0.19-0.93-0.24-1.27c-0.37-2.07-0.39-3.9-0.07-5.48c0.32-1.58,0.99-3.26,1.99-5.05
					c0.87-1.55,2.03-2.88,3.5-3.99c1.47-1.11,3.09-2.05,4.86-2.81c1.77-0.76,3.61-1.34,5.52-1.74c1.91-0.39,3.76-0.65,5.56-0.77
					c0.08-0.01,0.42,0,1.01,0.02c0.59,0.03,1.01,0.07,1.28,0.12c0.05,0.04,0.24,0.05,0.59,0.05c0.34,0,0.71,0,1.1,0.01
					c0.39,0.01,0.75,0.03,1.07,0.05c0.33,0.02,0.51,0.03,0.55,0.02c0.22,0.01,0.4,0.17,0.55,0.48c0.15,0.3,0.25,0.5,0.31,0.57
					c0.22,0.66,0.39,1.25,0.5,1.75c0.11,0.5,0.22,1,0.33,1.48c0.11,0.48,0.21,0.98,0.3,1.48c0.09,0.51,0.18,1.08,0.27,1.72l0.58,3.3
					c0.02,0.17-0.05,0.27-0.22,0.29c-0.04,0.01-0.26,0.05-0.66,0.12c-0.4,0.08-0.84,0.15-1.33,0.22c-0.49,0.07-0.94,0.13-1.37,0.19
					c-0.42,0.06-0.7,0.1-0.83,0.11c-1.22,0.21-2.49,0.47-3.81,0.78c-1.32,0.31-2.5,0.77-3.53,1.36c-1.04,0.6-1.85,1.39-2.42,2.38
					c-0.58,0.99-0.72,2.26-0.41,3.82c0.16,0.84,0.5,1.61,1.03,2.29c0.52,0.69,1.16,1.28,1.89,1.78c0.74,0.5,1.53,0.94,2.38,1.3
					c0.85,0.36,1.65,0.64,2.41,0.84c0.18,0.06,0.59,0.21,1.23,0.45c0.64,0.24,1.31,0.48,2.01,0.73c0.7,0.25,1.36,0.49,1.98,0.73
					c0.62,0.24,1.01,0.37,1.19,0.39c0.22,0.06,0.54,0.14,0.94,0.26c0.4,0.12,0.65,0.19,0.74,0.22c0.05,0.04,0.2,0.11,0.45,0.23
					c0.25,0.12,0.53,0.25,0.83,0.4c0.3,0.15,0.58,0.3,0.84,0.44c0.26,0.14,0.45,0.24,0.59,0.31c0.19,0.1,0.5,0.28,0.94,0.52
					c0.44,0.24,0.92,0.51,1.44,0.81c0.52,0.3,1.02,0.6,1.51,0.9c0.49,0.3,0.88,0.52,1.16,0.65c0.01,0.04,0.07,0.09,0.18,0.14
					c0.11,0.05,0.17,0.1,0.18,0.14c0.85,0.88,1.59,1.69,2.21,2.42c0.62,0.74,1.15,1.49,1.6,2.25c0.45,0.76,0.82,1.58,1.11,2.44
					c0.29,0.87,0.54,1.9,0.75,3.08c0.25,1.22,0.4,2.3,0.45,3.25c0.04,0.95-0.03,2-0.22,3.15c-0.14,0.58-0.22,1.04-0.27,1.37
					c-0.04,0.33-0.23,0.71-0.55,1.15c-0.03,0.09-0.1,0.26-0.22,0.52c-0.12,0.25-0.17,0.42-0.16,0.51c-0.69,1.26-1.38,2.37-2.07,3.31
					c-0.69,0.94-1.46,1.77-2.31,2.49c-0.85,0.72-1.81,1.36-2.88,1.92c-1.07,0.56-2.3,1.09-3.7,1.58c-0.12,0.06-0.38,0.14-0.78,0.24
					c-0.4,0.1-0.66,0.16-0.79,0.17l-4.62,0.31c-2.56,0.18-5.06,0.21-7.5,0.09c-2.43-0.12-4.93-0.54-7.49-1.27
					c-0.18-0.02-0.46-0.1-0.84-0.24c-0.39-0.14-0.8-0.29-1.23-0.45c-0.43-0.16-0.83-0.32-1.2-0.48c-0.37-0.17-0.62-0.28-0.76-0.35
					c-0.09-0.03-0.28-0.16-0.57-0.38c-0.29-0.22-0.6-0.47-0.94-0.75c-0.34-0.28-0.68-0.54-1.02-0.8c-0.34-0.26-0.61-0.48-0.8-0.67
					c-0.04,0.01-0.21-0.18-0.5-0.55c-0.29-0.37-0.53-0.65-0.73-0.84c-0.1-0.12-0.24-0.32-0.41-0.63s-0.28-0.49-0.34-0.57
					c-0.11-0.16-0.26-0.42-0.46-0.78c-0.2-0.36-0.4-0.74-0.61-1.15c-0.21-0.4-0.4-0.79-0.58-1.15c-0.18-0.37-0.28-0.61-0.3-0.74
					c-0.05-0.04-0.08-0.1-0.09-0.18L145.49,110.79z"/>
			</g>
		</g>
	</g>
	<g>
		<path class="st8" d="M88.47,41.69c-2.33,0.16-4.19-0.26-5.57-1.28c-1.38-1.02-2.16-2.84-2.35-5.47L79.92,26l-2.59,0.18l-0.44-6.22
			l2.59-0.18l-0.39-5.57l7.74-0.55l0.39,5.57l5.1-0.36l0.44,6.22l-5.1,0.36l0.52,7.44c0.06,0.79,0.27,1.34,0.64,1.65
			c0.37,0.31,0.91,0.45,1.62,0.4c0.51-0.04,1.01-0.14,1.48-0.31c0.48-0.17,0.94-0.38,1.38-0.63l0.42,6.05
			c-0.68,0.43-1.45,0.79-2.33,1.08C90.53,41.43,89.55,41.62,88.47,41.69z"/>
		<path class="st4" d="M87.53,42.3c-2.02,0-3.69-0.48-4.98-1.43c-1.52-1.12-2.38-3.1-2.58-5.89l-0.59-8.37L76.8,26.8l-0.52-7.36
			l2.59-0.18l-0.39-5.57l8.88-0.63l0.39,5.57l5.1-0.36l0.52,7.36l-5.1,0.36l0.48,6.86c0.04,0.61,0.2,1.04,0.44,1.25
			c0.26,0.21,0.66,0.3,1.21,0.26c0.46-0.03,0.91-0.13,1.33-0.28c0.44-0.16,0.88-0.36,1.29-0.59l0.79-0.44l0.51,7.3l-0.29,0.18
			c-0.71,0.45-1.54,0.84-2.45,1.14c-0.92,0.31-1.95,0.5-3.08,0.58h0C88.17,42.29,87.85,42.3,87.53,42.3z M80.45,25.39l0.67,9.51
			c0.17,2.44,0.88,4.14,2.12,5.05c1.26,0.93,3.01,1.32,5.19,1.17c1.03-0.07,1.97-0.25,2.79-0.53c0.7-0.24,1.34-0.52,1.91-0.85
			l-0.34-4.85c-0.22,0.1-0.45,0.19-0.68,0.27c-0.52,0.19-1.07,0.3-1.64,0.34c-0.85,0.06-1.53-0.12-2.02-0.53
			c-0.5-0.42-0.78-1.11-0.85-2.05l-0.56-8.01l5.1-0.36l-0.36-5.07l-5.1,0.36l-0.39-5.57l-6.59,0.46l0.39,5.57l-2.59,0.18l0.35,5.07
			L80.45,25.39z"/>
	</g>
	<g>
		<path class="st8" d="M150.01,14.45l7.75,0.29l-0.4,10.71c0.73-0.9,1.63-1.68,2.7-2.34c1.07-0.67,2.38-0.97,3.93-0.91
			c2.37,0.09,4.18,0.88,5.45,2.37c1.26,1.49,1.85,3.49,1.75,6.02l-0.54,14.41l-7.75-0.29l0.45-11.93c0.05-1.22-0.2-2.15-0.74-2.8
			c-0.54-0.65-1.26-0.99-2.17-1.02c-0.93-0.04-1.71,0.25-2.34,0.85c-0.62,0.6-0.96,1.51-1.01,2.73l-0.45,11.93l-7.75-0.29
			L150.01,14.45z"/>
		<path class="st4" d="M171.19,45.59l-8.89-0.34l0.47-12.5c0.04-1.07-0.16-1.88-0.6-2.41c-0.43-0.52-1-0.79-1.75-0.81
			c-0.78-0.03-1.41,0.2-1.92,0.69c-0.51,0.49-0.79,1.28-0.83,2.34l-0.47,12.5l-8.89-0.34l1.16-30.87l8.89,0.34l-0.37,9.76
			c0.53-0.49,1.12-0.93,1.76-1.33c1.16-0.72,2.59-1.06,4.25-1c2.52,0.1,4.49,0.96,5.86,2.57c1.36,1.6,1.99,3.75,1.89,6.41
			L171.19,45.59z M163.48,44.15l6.6,0.25l0.52-13.84c0.09-2.36-0.46-4.26-1.62-5.62c-1.17-1.37-2.81-2.08-5.03-2.17
			c-1.42-0.05-2.64,0.22-3.6,0.82c-1.01,0.63-1.87,1.38-2.56,2.22l-1.08,1.33l0.45-11.84l-6.6-0.25l-1.08,28.57l6.6,0.25l0.43-11.35
			c0.05-1.37,0.45-2.42,1.18-3.13c0.74-0.71,1.67-1.05,2.76-1.01c1.07,0.04,1.94,0.45,2.59,1.23c0.63,0.76,0.92,1.83,0.87,3.19
			L163.48,44.15z"/>
	</g>
	<g>
		<path class="st8" d="M102.89,42.35c-1.53-0.06-2.92-0.37-4.18-0.94c-1.26-0.57-2.34-1.32-3.25-2.27
			c-0.91-0.94-1.59-2.03-2.07-3.25c-0.47-1.22-0.68-2.52-0.63-3.88l0-0.07c0.05-1.37,0.36-2.65,0.94-3.84
			c0.57-1.19,1.35-2.23,2.32-3.1c0.97-0.87,2.12-1.55,3.43-2.03c1.31-0.48,2.73-0.69,4.26-0.64c1.53,0.06,2.92,0.38,4.18,0.96
			c1.26,0.58,2.34,1.33,3.25,2.27c0.91,0.93,1.59,2.01,2.07,3.23c0.47,1.22,0.68,2.52,0.63,3.88l0,0.07
			c-0.05,1.37-0.36,2.65-0.94,3.84c-0.57,1.19-1.35,2.23-2.32,3.1c-0.97,0.87-2.12,1.55-3.43,2.03
			C105.84,42.2,104.42,42.41,102.89,42.35z M103.18,36.62c0.61,0.02,1.17-0.07,1.67-0.27c0.5-0.2,0.93-0.49,1.29-0.86
			c0.35-0.37,0.64-0.81,0.84-1.32c0.21-0.51,0.32-1.04,0.34-1.6l0-0.07c0.02-0.58-0.06-1.14-0.24-1.66
			c-0.18-0.52-0.45-0.98-0.79-1.38c-0.35-0.4-0.77-0.73-1.25-0.98c-0.48-0.25-1.02-0.39-1.61-0.41c-0.61-0.02-1.17,0.07-1.67,0.27
			c-0.5,0.2-0.93,0.49-1.29,0.86c-0.36,0.37-0.64,0.81-0.84,1.32c-0.21,0.51-0.32,1.04-0.34,1.6l0,0.07
			c-0.02,0.58,0.06,1.14,0.24,1.66c0.18,0.52,0.44,0.98,0.79,1.38c0.35,0.4,0.77,0.73,1.25,0.98
			C102.05,36.46,102.59,36.6,103.18,36.62z"/>
		<path class="st4" d="M103.37,42.86c-0.17,0-0.33,0-0.5-0.01c-1.58-0.06-3.05-0.39-4.37-0.98c-1.31-0.59-2.46-1.39-3.4-2.37
			c-0.95-0.99-1.68-2.13-2.17-3.41c-0.49-1.28-0.72-2.65-0.66-4.08l0-0.07c0.05-1.43,0.39-2.79,0.99-4.04
			c0.6-1.25,1.42-2.34,2.44-3.25c1.02-0.91,2.22-1.63,3.59-2.13c1.37-0.5,2.86-0.72,4.45-0.67c1.59,0.06,3.06,0.4,4.37,1
			c1.31,0.6,2.45,1.4,3.4,2.37c0.95,0.98,1.68,2.12,2.17,3.4c0.49,1.28,0.72,2.65,0.66,4.08l0,0.07c-0.05,1.43-0.39,2.79-0.99,4.04
			c-0.6,1.25-1.42,2.34-2.44,3.25c-1.02,0.91-2.22,1.63-3.59,2.13C106.1,42.63,104.77,42.86,103.37,42.86z M103.23,22.83
			c-1.28,0-2.49,0.21-3.61,0.61c-1.25,0.46-2.35,1.11-3.27,1.93c-0.92,0.82-1.66,1.81-2.21,2.94c-0.54,1.13-0.84,2.35-0.89,3.64
			l0,0.07c-0.05,1.29,0.15,2.53,0.6,3.68c0.45,1.15,1.1,2.19,1.96,3.08c0.86,0.89,1.9,1.62,3.09,2.16c1.2,0.54,2.54,0.84,4,0.89l0,0
			c1.46,0.05,2.82-0.15,4.07-0.61c1.25-0.46,2.35-1.11,3.27-1.93c0.92-0.82,1.66-1.81,2.21-2.94c0.54-1.13,0.84-2.35,0.89-3.64
			l0-0.07c0.05-1.29-0.15-2.53-0.6-3.68c-0.44-1.15-1.1-2.18-1.96-3.06c-0.86-0.88-1.9-1.61-3.1-2.16c-1.2-0.55-2.54-0.86-3.99-0.91
			C103.54,22.83,103.39,22.83,103.23,22.83z M103.36,37.13c-0.07,0-0.13,0-0.2,0l0,0c-0.66-0.03-1.27-0.18-1.82-0.47
			c-0.54-0.28-1.01-0.65-1.4-1.09c-0.39-0.45-0.69-0.97-0.89-1.55c-0.2-0.58-0.29-1.2-0.26-1.84l0-0.07
			c0.02-0.62,0.15-1.21,0.38-1.77c0.23-0.56,0.55-1.06,0.94-1.48c0.4-0.42,0.89-0.75,1.46-0.98c0.57-0.23,1.2-0.33,1.87-0.31
			c0.66,0.02,1.27,0.18,1.82,0.47c0.54,0.28,1.01,0.65,1.4,1.09c0.39,0.45,0.69,0.97,0.89,1.55c0.2,0.58,0.29,1.2,0.26,1.84l0,0.07
			c-0.02,0.61-0.15,1.21-0.38,1.77c-0.23,0.56-0.55,1.06-0.94,1.48c-0.4,0.42-0.89,0.75-1.46,0.98
			C104.52,37.02,103.96,37.13,103.36,37.13z M103.2,36.13c0.54,0.02,1.03-0.06,1.46-0.23c0.43-0.18,0.81-0.43,1.11-0.75
			c0.31-0.33,0.56-0.72,0.74-1.17c0.18-0.45,0.29-0.93,0.31-1.43l0-0.07c0.02-0.52-0.05-1.01-0.21-1.48
			c-0.16-0.46-0.39-0.87-0.7-1.22c-0.31-0.35-0.68-0.64-1.11-0.86c-0.42-0.22-0.89-0.34-1.4-0.36c-0.53-0.02-1.03,0.06-1.46,0.23
			c-0.43,0.18-0.81,0.43-1.11,0.75c-0.31,0.33-0.56,0.72-0.74,1.16c-0.18,0.45-0.29,0.93-0.31,1.43l0,0.07
			c-0.02,0.52,0.05,1.02,0.21,1.48c0.16,0.46,0.39,0.87,0.7,1.22c0.31,0.35,0.68,0.64,1.11,0.86
			C102.22,35.99,102.69,36.11,103.2,36.13L103.2,36.13z"/>
	</g>
	<g>
		<path class="st8" d="M115.05,22.29l6.48-0.77l0.44,3.71c0.37-1.31,0.97-2.39,1.78-3.25c0.82-0.86,2-1.34,3.54-1.46l0.8,6.8
			l-0.54,0.06c-1.7,0.2-2.94,0.85-3.72,1.96c-0.79,1.11-1.05,2.72-0.8,4.86l0.67,5.71l-6.48,0.77L115.05,22.29z"/>
		<path class="st4" d="M116.8,41.23l-2.28-19.36l7.43-0.88l0.27,2.31c0.33-0.61,0.72-1.16,1.18-1.64c0.9-0.94,2.19-1.48,3.85-1.6
			l0.46-0.03l0.91,7.74l-1.02,0.12c-1.57,0.19-2.68,0.76-3.39,1.76c-0.71,1-0.95,2.52-0.72,4.52l0.73,6.19L116.8,41.23z
			 M115.58,22.71l2.06,17.44l5.52-0.65l-0.62-5.24c-0.26-2.24,0.03-3.99,0.89-5.19c0.87-1.22,2.23-1.94,4.06-2.16l0.06-0.01
			l-0.69-5.85c-1.19,0.16-2.12,0.58-2.77,1.26c-0.76,0.79-1.32,1.82-1.67,3.05l-0.66,2.32l-0.66-5.62L115.58,22.71z"/>
	</g>
	<g>
		<path class="st8" d="M131.07,44.26c-0.94-0.24-1.77-0.59-2.49-1.05c-0.73-0.46-1.32-1.02-1.78-1.68c-0.46-0.65-0.77-1.4-0.92-2.23
			c-0.15-0.83-0.1-1.74,0.15-2.73l0.02-0.07c0.25-1.01,0.66-1.86,1.23-2.53c0.57-0.68,1.24-1.18,2.03-1.52
			c0.79-0.34,1.68-0.52,2.68-0.55c1-0.03,2.08,0.1,3.23,0.39c0.91,0.23,1.76,0.53,2.55,0.89c0.79,0.37,1.43,0.71,1.94,1.05
			l0.08-0.33c0.25-1.01,0.13-1.87-0.37-2.59c-0.5-0.71-1.41-1.24-2.73-1.57c-1.03-0.26-1.99-0.4-2.88-0.42
			c-0.89-0.02-1.81,0.03-2.76,0.15l-0.19-5.19c1.22-0.18,2.48-0.25,3.79-0.22c1.31,0.04,2.8,0.26,4.48,0.69
			c1.75,0.44,3.18,1.02,4.29,1.74c1.11,0.72,1.95,1.56,2.53,2.52c0.56,0.91,0.88,1.92,0.95,3.02c0.07,1.11-0.07,2.34-0.41,3.72
			l-2.82,11.23l-6.77-1.71l0.51-2.02c-0.86,0.58-1.81,0.97-2.84,1.18C133.53,44.64,132.36,44.58,131.07,44.26z M134.59,40.58
			c1.01,0.25,1.9,0.17,2.67-0.25c0.77-0.42,1.28-1.12,1.52-2.11l0.23-0.9c-0.3-0.23-0.67-0.45-1.12-0.67
			c-0.44-0.21-0.92-0.39-1.42-0.51c-1.01-0.25-1.84-0.23-2.49,0.08c-0.65,0.31-1.07,0.83-1.25,1.55l-0.02,0.07
			c-0.17,0.67-0.07,1.26,0.29,1.74C133.37,40.07,133.9,40.4,134.59,40.58z"/>
		<path class="st4" d="M144.05,47.61l-7.78-1.96l0.34-1.35c-0.61,0.29-1.26,0.5-1.93,0.64c-1.11,0.23-2.36,0.17-3.73-0.18l0,0
			c-0.99-0.25-1.88-0.63-2.65-1.12c-0.78-0.5-1.43-1.11-1.93-1.82c-0.5-0.71-0.84-1.53-1-2.44c-0.16-0.9-0.11-1.89,0.16-2.95
			l0.02-0.07c0.27-1.08,0.72-2.01,1.33-2.74c0.62-0.74,1.36-1.3,2.22-1.67c0.84-0.36,1.81-0.56,2.88-0.59
			c1.04-0.03,2.18,0.11,3.37,0.41c0.94,0.24,1.83,0.55,2.64,0.93c0.51,0.24,0.97,0.47,1.37,0.7c0.11-0.7-0.01-1.28-0.36-1.79
			c-0.42-0.6-1.24-1.06-2.42-1.36c-0.99-0.25-1.92-0.39-2.76-0.4c-0.86-0.02-1.76,0.03-2.68,0.15l-0.57,0.07l-0.23-6.24l0.46-0.07
			c1.24-0.18,2.55-0.26,3.88-0.22c1.34,0.04,2.88,0.27,4.59,0.7c1.8,0.45,3.3,1.06,4.45,1.8c1.17,0.76,2.08,1.66,2.69,2.69
			c0.6,0.97,0.95,2.07,1.02,3.26c0.07,1.16-0.07,2.46-0.43,3.88L144.05,47.61z M137.53,44.89l5.75,1.45l2.69-10.72
			c0.33-1.31,0.46-2.51,0.4-3.56c-0.06-1.01-0.35-1.95-0.87-2.78c-0.53-0.9-1.33-1.69-2.36-2.35c-1.06-0.68-2.45-1.24-4.14-1.67
			c-1.63-0.41-3.1-0.64-4.37-0.67c-1.1-0.03-2.19,0.02-3.23,0.15l0.15,4.15c0.77-0.08,1.53-0.11,2.26-0.09
			c0.92,0.02,1.93,0.17,3,0.44c1.44,0.36,2.46,0.96,3.03,1.78c0.59,0.84,0.74,1.86,0.44,3.02l-0.26,1.04l-0.62-0.41
			c-0.48-0.32-1.11-0.66-1.87-1.01c-0.76-0.35-1.58-0.64-2.46-0.86c-1.1-0.28-2.14-0.4-3.09-0.38c-0.93,0.03-1.77,0.2-2.49,0.51
			c-0.71,0.3-1.32,0.77-1.83,1.38c-0.51,0.61-0.89,1.39-1.12,2.32l-0.02,0.07c-0.23,0.91-0.28,1.75-0.14,2.51
			c0.13,0.75,0.41,1.43,0.83,2.02c0.42,0.6,0.97,1.11,1.63,1.54c0.67,0.43,1.46,0.76,2.34,0.99l0,0c1.21,0.31,2.31,0.36,3.27,0.17
			c0.96-0.2,1.86-0.57,2.66-1.11l1.13-0.76L137.53,44.89z M135.68,41.24c-0.39,0-0.79-0.05-1.22-0.16l0,0
			c-0.81-0.21-1.45-0.61-1.88-1.19c-0.46-0.62-0.59-1.35-0.38-2.19l0.02-0.07c0.22-0.88,0.74-1.52,1.53-1.89
			c0.76-0.36,1.72-0.4,2.84-0.12c0.53,0.13,1.05,0.32,1.52,0.55c0.47,0.23,0.88,0.47,1.21,0.72l0.27,0.21l-0.31,1.24
			c-0.28,1.13-0.88,1.95-1.78,2.44C136.95,41.09,136.34,41.24,135.68,41.24z M134.72,40.07c0.88,0.22,1.63,0.16,2.29-0.2
			c0.64-0.35,1.06-0.93,1.27-1.78l0.14-0.55c-0.22-0.14-0.47-0.28-0.75-0.41c-0.41-0.2-0.86-0.36-1.32-0.48
			c-0.88-0.22-1.6-0.21-2.14,0.05c-0.51,0.24-0.82,0.63-0.97,1.2l-0.02,0.07c-0.13,0.52-0.06,0.94,0.2,1.3
			C133.71,39.66,134.14,39.92,134.72,40.07L134.72,40.07z"/>
	</g>
	<g>
		<path class="st9" d="M43.75,56.42c-3.19,1.8-6.1,2.45-8.73,1.93c-2.63-0.51-4.95-2.56-6.97-6.15L21.2,39.98l-3.54,2l-4.76-8.49
			l3.54-2l-4.27-7.6l10.57-5.97l4.27,7.6l6.97-3.94l4.76,8.49l-6.97,3.94l5.7,10.16c0.6,1.07,1.27,1.71,2.01,1.9
			c0.74,0.19,1.59,0.02,2.55-0.52c0.7-0.4,1.33-0.87,1.89-1.43c0.56-0.56,1.07-1.16,1.53-1.81l4.64,8.27
			c-0.67,1.06-1.52,2.09-2.56,3.09C46.48,54.66,45.22,55.58,43.75,56.42z"/>
		<path class="st4" d="M36.79,59.19c-0.65,0-1.28-0.06-1.9-0.18c-2.82-0.55-5.32-2.73-7.42-6.48L20.95,40.9l-3.54,2l-5.42-9.66
			l3.54-2l-4.27-7.6L22.99,17l4.27,7.6l6.97-3.94l5.42,9.66l-6.97,3.94l5.37,9.57c0.51,0.9,1.04,1.43,1.6,1.58
			c0.56,0.15,1.25-0.01,2.05-0.46c0.65-0.36,1.23-0.81,1.75-1.32c0.53-0.53,1.02-1.11,1.46-1.73l0.61-0.86l5.35,9.54l-0.21,0.34
			c-0.69,1.1-1.59,2.19-2.67,3.22c-1.08,1.04-2.4,2-3.91,2.85C41.5,58.46,39.06,59.19,36.79,59.19z M21.45,39.07l7.18,12.8
			c1.9,3.39,4.09,5.35,6.51,5.82c2.46,0.48,5.24-0.15,8.27-1.86v0c1.42-0.8,2.64-1.69,3.64-2.65c0.89-0.85,1.64-1.74,2.24-2.63
			l-3.94-7.03c-0.31,0.37-0.63,0.73-0.97,1.07c-0.6,0.6-1.28,1.12-2.04,1.54c-1.11,0.63-2.14,0.83-3.04,0.59
			c-0.92-0.24-1.73-0.98-2.43-2.22l-6.03-10.74l6.97-3.94l-4.11-7.32l-6.97,3.94l-4.27-7.6l-9.4,5.31l4.27,7.6l-3.54,2l4.11,7.32
			L21.45,39.07z"/>
	</g>
	<g>
		<path class="st9" d="M60.1,47.41c-2.7,0.85-5.06,0.69-7.07-0.48c-2.02-1.17-3.47-3.19-4.37-6.07l-5.13-16.43l8.84-2.78l4.25,13.6
			c0.43,1.39,1.08,2.34,1.95,2.85c0.86,0.51,1.83,0.6,2.89,0.26c1.04-0.33,1.78-0.95,2.25-1.88c0.46-0.93,0.48-2.09,0.04-3.48
			l-4.25-13.6l8.84-2.78l7.84,25.11l-8.84,2.78l-1.07-3.44c-0.46,1.3-1.16,2.54-2.1,3.72C63.21,45.98,61.86,46.85,60.1,47.41z"/>
		<path class="st4" d="M56.87,48.63c-1.52,0-2.92-0.37-4.19-1.1c-2.16-1.25-3.74-3.42-4.68-6.46l-5.34-17.09l10.14-3.19l4.45,14.26
			c0.38,1.22,0.93,2.05,1.64,2.47c0.69,0.41,1.46,0.48,2.34,0.2c0.86-0.27,1.46-0.77,1.84-1.53c0.38-0.76,0.38-1.76,0-2.97
			l-4.45-14.26l10.14-3.19l8.25,26.42l-10.14,3.19l-0.74-2.36c-0.4,0.76-0.89,1.5-1.45,2.21c-1.02,1.28-2.5,2.23-4.39,2.83l0,0
			C59.1,48.44,57.96,48.63,56.87,48.63z M44.38,24.88l4.93,15.78c0.84,2.7,2.21,4.61,4.06,5.68c1.86,1.08,3.99,1.21,6.53,0.42l0,0
			c1.63-0.51,2.88-1.31,3.73-2.37c0.89-1.11,1.55-2.3,1.99-3.52l0.69-1.93l1.48,4.73l7.53-2.37l-7.43-23.8l-7.53,2.37l4.04,12.95
			c0.49,1.56,0.46,2.91-0.08,3.99c-0.55,1.1-1.44,1.84-2.65,2.23c-1.25,0.39-2.41,0.28-3.44-0.33c-1.01-0.6-1.76-1.69-2.25-3.24
			l-4.04-12.95L44.38,24.88z"/>
	</g>
</g>
</svg>
