<svg width="128" height="128" viewBox="0 0 128 128" fill="none" xmlns="http://www.w3.org/2000/svg">
<rect width="128" height="128" rx="10" fill="#4162FF"/>
<path d="M42.764 90.768C39.3933 90.768 36.2573 90.1493 33.356 88.912C30.4973 87.6747 27.98 85.968 25.804 83.792C23.6707 81.5733 22.0067 78.9707 20.812 75.984C19.6173 72.9973 19.02 69.712 19.02 66.128C19.02 62.5867 19.596 59.3227 20.748 56.336C21.9427 53.3067 23.6067 50.704 25.74 48.528C27.8733 46.3093 30.3693 44.6027 33.228 43.408C36.0867 42.1707 39.2227 41.552 42.636 41.552C46.0067 41.552 49.0147 42.128 51.66 43.28C54.348 44.432 56.6093 45.9467 58.444 47.824C60.2787 49.6587 61.6013 51.664 62.412 53.84L55.692 57.104C54.7107 54.5013 53.0893 52.4107 50.828 50.832C48.5667 49.2107 45.836 48.4 42.636 48.4C39.4787 48.4 36.684 49.1467 34.252 50.64C31.82 52.1333 29.9213 54.2027 28.556 56.848C27.2333 59.4933 26.572 62.5867 26.572 66.128C26.572 69.6693 27.2547 72.784 28.62 75.472C30.028 78.1173 31.948 80.1867 34.38 81.68C36.812 83.1307 39.6067 83.856 42.764 83.856C45.4093 83.856 47.82 83.3227 49.996 82.256C52.2147 81.1467 53.9853 79.6107 55.308 77.648C56.6307 75.6427 57.292 73.3173 57.292 70.672V67.408L60.684 70.48H42.636V64.08H64.78V68.56C64.78 72.0587 64.1827 75.1947 62.988 77.968C61.7933 80.6987 60.172 83.024 58.124 84.944C56.076 86.864 53.7293 88.3147 51.084 89.296C48.4387 90.2773 45.6653 90.768 42.764 90.768ZM72.4905 90V42.32H92.5865C95.5732 42.32 98.1545 42.8533 100.331 43.92C102.507 44.944 104.171 46.4373 105.323 48.4C106.475 50.32 107.051 52.6027 107.051 55.248C107.051 57.552 106.453 59.664 105.259 61.584C104.107 63.4613 102.293 64.9547 99.8185 66.064V62.864C101.995 63.7173 103.765 64.8053 105.131 66.128C106.496 67.408 107.477 68.8587 108.075 70.48C108.715 72.1013 109.035 73.808 109.035 75.6C109.035 80.08 107.563 83.6 104.619 86.16C101.717 88.72 97.7278 90 92.6505 90H72.4905ZM80.0425 83.28H93.2265C95.7438 83.28 97.7492 82.5973 99.2425 81.232C100.736 79.824 101.483 77.968 101.483 75.664C101.483 73.3173 100.736 71.4613 99.2425 70.096C97.7492 68.688 95.7438 67.984 93.2265 67.984H80.0425V83.28ZM80.0425 61.328H92.7785C94.8265 61.328 96.4692 60.752 97.7065 59.6C98.9438 58.4053 99.5625 56.848 99.5625 54.928C99.5625 53.008 98.9438 51.5147 97.7065 50.448C96.4692 49.3813 94.8265 48.848 92.7785 48.848H80.0425V61.328Z" fill="white"/>
</svg>
