<svg width="700" height="700" viewBox="0 0 700 700" fill="none" xmlns="http://www.w3.org/2000/svg">
<rect width="700" height="700" rx="100" fill="#4162FF"/>
<path d="M245.32 484.34C228.467 484.34 212.787 481.247 198.28 475.06C183.987 468.873 171.4 460.34 160.52 449.46C149.853 438.367 141.533 425.353 135.56 410.42C129.587 395.487 126.6 379.06 126.6 361.14C126.6 343.433 129.48 327.113 135.24 312.18C141.213 297.033 149.533 284.02 160.2 273.14C170.867 262.047 183.347 253.513 197.64 247.54C211.933 241.353 227.613 238.26 244.68 238.26C261.533 238.26 276.573 241.14 289.8 246.9C303.24 252.66 314.547 260.233 323.72 269.62C332.893 278.793 339.507 288.82 343.56 299.7L309.96 316.02C305.053 303.007 296.947 292.553 285.64 284.66C274.333 276.553 260.68 272.5 244.68 272.5C228.893 272.5 214.92 276.233 202.76 283.7C190.6 291.167 181.107 301.513 174.28 314.74C167.667 327.967 164.36 343.433 164.36 361.14C164.36 378.847 167.773 394.42 174.6 407.86C181.64 421.087 191.24 431.433 203.4 438.9C215.56 446.153 229.533 449.78 245.32 449.78C258.547 449.78 270.6 447.113 281.48 441.78C292.573 436.233 301.427 428.553 308.04 418.74C314.653 408.713 317.96 397.087 317.96 383.86V367.54L334.92 382.9H244.68V350.9H355.4V373.3C355.4 390.793 352.413 406.473 346.44 420.34C340.467 433.993 332.36 445.62 322.12 455.22C311.88 464.82 300.147 472.073 286.92 476.98C273.693 481.887 259.827 484.34 245.32 484.34ZM393.953 480.5V242.1H494.433C509.366 242.1 522.273 244.767 533.153 250.1C544.033 255.22 552.353 262.687 558.113 272.5C563.873 282.1 566.753 293.513 566.753 306.74C566.753 318.26 563.766 328.82 557.793 338.42C552.033 347.807 542.966 355.273 530.593 360.82V344.82C541.473 349.087 550.326 354.527 557.153 361.14C563.979 367.54 568.886 374.793 571.873 382.9C575.073 391.007 576.673 399.54 576.673 408.5C576.673 430.9 569.313 448.5 554.593 461.3C540.086 474.1 520.139 480.5 494.753 480.5H393.953ZM431.713 446.9H497.633C510.219 446.9 520.246 443.487 527.713 436.66C535.179 429.62 538.913 420.34 538.913 408.82C538.913 397.087 535.179 387.807 527.713 380.98C520.246 373.94 510.219 370.42 497.633 370.42H431.713V446.9ZM431.713 337.14H495.393C505.633 337.14 513.846 334.26 520.033 328.5C526.219 322.527 529.312 314.74 529.312 305.14C529.312 295.54 526.219 288.073 520.033 282.74C513.846 277.407 505.633 274.74 495.393 274.74H431.713V337.14Z" fill="white"/>
</svg>
